<?xml version="1.0" encoding="UTF-8"?>
<svg width="24px" height="24px" viewBox="0 0 24 24" version="1.1" xmlns="http://www.w3.org/2000/svg" xmlns:xlink="http://www.w3.org/1999/xlink">
    <!-- Generator: Sketch 49 (51002) - http://www.bohemiancoding.com/sketch -->
    <title>icon/api-24</title>
    <desc>Created with Sketch.</desc>
    <defs></defs>
    <g id="icon/api-24" stroke="none" stroke-width="1" fill="none" fill-rule="evenodd">
        <path d="M4,7 L2,7 L2,4 C2,2.8954305 2.8954305,2 4,2 L20,2 C21.1045695,2 22,2.8954305 22,4 L22,7 L20,7 L20,4 L4,4 L4,7 Z M10,15 L10,16 C10,16.5522847 9.55228475,17 9,17 C6.58104209,17 4.56328845,15.2822403 4.10001812,13 L1,13 L1,11 L4.10001812,11 C4.56328845,8.71775968 6.58104209,7 9,7 C9.55228475,7 10,7.44771525 10,8 L10,9 L12,9 C12.5522847,9 13,9.44771525 13,10 C13,10.5522847 12.5522847,11 12,11 L10,11 L10,13 L12,13 C12.5522847,13 13,13.4477153 13,14 C13,14.5522847 12.5522847,15 12,15 L10,15 Z M19.8999819,11 L23,11 L23,13 L19.8999819,13 C19.4367116,15.2822403 17.4189579,17 15,17 C14.4477153,17 14,16.5522847 14,16 L14,8 C14,7.44771525 14.4477153,7 15,7 C17.4189579,7 19.4367116,8.71775968 19.8999819,11 Z M20,17 L22,17 L22,20 C22,21.1045695 21.1045695,22 20,22 L4,22 C2.8954305,22 2,21.1045695 2,20 L2,17 L4,17 L4,20 L20,20 L20,17 Z M8,9.17070571 C6.83480763,9.58254212 6,10.6937812 6,12 C6,13.3062188 6.83480763,14.4174579 8,14.8292943 L8,9.17070571 Z M16,9.17070571 L16,14.8292943 C17.1651924,14.4174579 18,13.3062188 18,12 C18,10.6937812 17.1651924,9.58254212 16,9.17070571 Z" id="Combined-Shape" fill="#394047" fill-rule="nonzero"></path>
    </g>
</svg>