<?xml version="1.0" encoding="UTF-8"?>
<svg width="24px" height="24px" viewBox="0 0 24 24" version="1.1" xmlns="http://www.w3.org/2000/svg" xmlns:xlink="http://www.w3.org/1999/xlink">
    <!-- Generator: Sketch 49 (51002) - http://www.bohemiancoding.com/sketch -->
    <title>icon/document-24</title>
    <desc>Created with Sketch.</desc>
    <defs></defs>
    <g id="icon/document-24" stroke="none" stroke-width="1" fill="none" fill-rule="evenodd">
        <path d="M14,3 L5,3 L5,21 L19,21 L19,8 L15,8 C14.4477153,8 14,7.55228475 14,7 L14,3 Z M16,3.41421356 L16,6 L18.5857864,6 L16,3.41421356 Z M5,1 L15.5857864,1 C16.1162194,1 16.6249272,1.21071368 17,1.58578644 L20.4142136,5 C20.7892863,5.37507276 21,5.88378058 21,6.41421356 L21,21 C21,22.1045695 20.1045695,23 19,23 L5,23 C3.8954305,23 3,22.1045695 3,21 L3,3 C3,1.8954305 3.8954305,1 5,1 Z M11,17 L11,19 L7,19 L7,17 L11,17 Z M15,14 L15,16 L7,16 L7,14 L15,14 Z M17,11 L17,13 L7,13 L7,11 L17,11 Z" id="Combined-Shape" fill="#394047" fill-rule="nonzero"></path>
    </g>
</svg>