<?xml version="1.0" encoding="UTF-8"?>
<svg width="24px" height="24px" viewBox="0 0 24 24" version="1.1" xmlns="http://www.w3.org/2000/svg" xmlns:xlink="http://www.w3.org/1999/xlink">
    <!-- Generator: Sketch 49 (51002) - http://www.bohemiancoding.com/sketch -->
    <title>icon/gis-24</title>
    <desc>Created with Sketch.</desc>
    <defs></defs>
    <g id="icon/gis-24" stroke="none" stroke-width="1" fill="none" fill-rule="evenodd">
        <path d="M17.7453107,4 C18.5361852,5.13383348 19,6.51275186 19,8 C19,12.5474484 14.2612764,18.4285714 12,18.4285714 C9.73872363,18.4285714 5,12.5474484 5,8 C5,6.51275186 5.46381481,5.13383348 6.25468928,4 L4,4 L4,20 L13.5857864,20 L20,13.5857864 L20,4 L17.7453107,4 Z M8.39241339,2 C9.44595619,1.36518017 10.6803319,1 12,1 C13.3196681,1 14.5540438,1.36518017 15.6075866,2 L20,2 C21.1045695,2 22,2.8954305 22,4 L22,20 C22,21.1045695 21.1045695,22 20,22 L4,22 C2.8954305,22 2,21.1045695 2,20 L2,4 C2,2.8954305 2.8954305,2 4,2 L8.39241339,2 Z M20,16.4142136 L16.4142136,20 L20,20 L20,16.4142136 Z M12.6673993,15.8872122 C13.2734276,15.3933661 13.9379548,14.7229582 14.5427492,13.9723615 C16.0737002,12.0723328 17,9.97944642 17,8 C17,5.23857625 14.7614237,3 12,3 C9.23857625,3 7,5.23857625 7,8 C7,9.97944642 7.92629984,12.0723328 9.4572508,13.9723615 C10.0620452,14.7229582 10.7265724,15.3933661 11.3326007,15.8872122 C11.5891895,16.0963038 11.8203235,16.2607994 12,16.3659049 C12.1796765,16.2607994 12.4108105,16.0963038 12.6673993,15.8872122 Z M12,11.5 C10.0670034,11.5 8.5,9.93299662 8.5,8 C8.5,6.06700338 10.0670034,4.5 12,4.5 C13.9329966,4.5 15.5,6.06700338 15.5,8 C15.5,9.93299662 13.9329966,11.5 12,11.5 Z M12,9.5 C12.8284271,9.5 13.5,8.82842712 13.5,8 C13.5,7.17157288 12.8284271,6.5 12,6.5 C11.1715729,6.5 10.5,7.17157288 10.5,8 C10.5,8.82842712 11.1715729,9.5 12,9.5 Z" id="Combined-Shape" fill="#394047" fill-rule="nonzero"></path>
    </g>
</svg>