<?xml version="1.0" encoding="UTF-8"?>
<svg width="24px" height="24px" viewBox="0 0 24 24" version="1.1" xmlns="http://www.w3.org/2000/svg" xmlns:xlink="http://www.w3.org/1999/xlink">
    <!-- Generator: Sketch 49 (51002) - http://www.bohemiancoding.com/sketch -->
    <title>icon/html-24</title>
    <desc>Created with Sketch.</desc>
    <defs></defs>
    <g id="icon/html-24" stroke="none" stroke-width="1" fill="none" fill-rule="evenodd">
        <path d="M20,8 L20,4 L4,4 L4,8 L20,8 Z M20,10 L4,10 L4,20 L20,20 L20,10 Z M4,2 L20,2 C21.1045695,2 22,2.8954305 22,4 L22,20 C22,21.1045695 21.1045695,22 20,22 L4,22 C2.8954305,22 2,21.1045695 2,20 L2,4 C2,2.8954305 2.8954305,2 4,2 Z M8.70710678,16.2928932 C9.09763107,16.6834175 9.09763107,17.3165825 8.70710678,17.7071068 C8.31658249,18.0976311 7.68341751,18.0976311 7.29289322,17.7071068 L5.29289322,15.7071068 C4.90236893,15.3165825 4.90236893,14.6834175 5.29289322,14.2928932 L7.29289322,12.2928932 C7.68341751,11.9023689 8.31658249,11.9023689 8.70710678,12.2928932 C9.09763107,12.6834175 9.09763107,13.3165825 8.70710678,13.7071068 L7.41421356,15 L8.70710678,16.2928932 Z M12.0513167,11.6837722 C12.2259645,11.1598289 12.7922844,10.8766689 13.3162278,11.0513167 C13.8401711,11.2259645 14.1233311,11.7922844 13.9486833,12.3162278 L11.9486833,18.3162278 C11.7740355,18.8401711 11.2077156,19.1233311 10.6837722,18.9486833 C10.1598289,18.7740355 9.87666893,18.2077156 10.0513167,17.6837722 L12.0513167,11.6837722 Z M15.2928932,16.2928932 L16.5857864,15 L15.2928932,13.7071068 C14.9023689,13.3165825 14.9023689,12.6834175 15.2928932,12.2928932 C15.6834175,11.9023689 16.3165825,11.9023689 16.7071068,12.2928932 L18.7071068,14.2928932 C19.0976311,14.6834175 19.0976311,15.3165825 18.7071068,15.7071068 L16.7071068,17.7071068 C16.3165825,18.0976311 15.6834175,18.0976311 15.2928932,17.7071068 C14.9023689,17.3165825 14.9023689,16.6834175 15.2928932,16.2928932 Z M9,7 C8.44771525,7 8,6.55228475 8,6 C8,5.44771525 8.44771525,5 9,5 L18,5 C18.5522847,5 19,5.44771525 19,6 C19,6.55228475 18.5522847,7 18,7 L9,7 Z M6,7 C5.44771525,7 5,6.55228475 5,6 C5,5.44771525 5.44771525,5 6,5 C6.55228475,5 7,5.44771525 7,6 C7,6.55228475 6.55228475,7 6,7 Z" id="Combined-Shape" fill="#394047" fill-rule="nonzero"></path>
    </g>
</svg>