<?xml version="1.0" encoding="UTF-8"?>
<svg width="24px" height="24px" viewBox="0 0 24 24" version="1.1" xmlns="http://www.w3.org/2000/svg" xmlns:xlink="http://www.w3.org/1999/xlink">
    <!-- Generator: Sketch 49 (51002) - http://www.bohemiancoding.com/sketch -->
    <title>icon/imageRaster-24</title>
    <desc>Created with Sketch.</desc>
    <defs></defs>
    <g id="icon/imageRaster-24" stroke="none" stroke-width="1" fill="none" fill-rule="evenodd">
        <path d="M4,13.5857864 L6.29289322,11.2928932 C6.68341751,10.9023689 7.31658249,10.9023689 7.70710678,11.2928932 L12.5,16.0857864 L16.2928932,12.2928932 C16.6834175,11.9023689 17.3165825,11.9023689 17.7071068,12.2928932 L20,14.5857864 L20,4 L4,4 L4,13.5857864 Z M4,16.4142136 L4,20 L13.5857864,20 L7,13.4142136 L4,16.4142136 Z M16.4142136,20 L20,20 L20,17.4142136 L17,14.4142136 L13.9142136,17.5 L16.4142136,20 Z M4,2 L20,2 C21.1045695,2 22,2.8954305 22,4 L22,20 C22,21.1045695 21.1045695,22 20,22 L4,22 C2.8954305,22 2,21.1045695 2,20 L2,4 C2,2.8954305 2.8954305,2 4,2 Z M13,12 C11.3431458,12 10,10.6568542 10,9 C10,7.34314575 11.3431458,6 13,6 C14.6568542,6 16,7.34314575 16,9 C16,10.6568542 14.6568542,12 13,12 Z M13,10 C13.5522847,10 14,9.55228475 14,9 C14,8.44771525 13.5522847,8 13,8 C12.4477153,8 12,8.44771525 12,9 C12,9.55228475 12.4477153,10 13,10 Z" id="Combined-Shape" fill="#394047" fill-rule="nonzero"></path>
    </g>
</svg>