<?xml version="1.0" encoding="UTF-8"?>
<svg width="24px" height="24px" viewBox="0 0 24 24" version="1.1" xmlns="http://www.w3.org/2000/svg" xmlns:xlink="http://www.w3.org/1999/xlink">
    <!-- Generator: Sketch 49 (51002) - http://www.bohemiancoding.com/sketch -->
    <title>icon/imageVector-24</title>
    <desc>Created with Sketch.</desc>
    <defs></defs>
    <g id="icon/imageVector-24" stroke="none" stroke-width="1" fill="none" fill-rule="evenodd">
        <path d="M4,4 L4,12 L2,12 L2,3.9 C2,2.85065898 2.85065898,2 3.9,2 L12,2 L12,4 L4,4 Z M20,12 L22,12 L22,20.1818182 C22,21.1859723 21.1859723,22 20.1818182,22 L12,22 L12,20 L20,20 L20,12 Z M14.7890549,10.6930443 C15.7123163,10.4541945 16.4580064,10.074192 17.0334665,9.54688857 C17.6890688,8.9461496 18.1237249,8.15422468 18.3482903,7.16202246 C18.5179388,6.41246108 20.5254789,6.31855535 20.386564,7.13780031 C19.89815,10.0182004 18.1602673,11.8746092 15.2727144,12.6234471 M5.91036299,16 L8,16 L8,23 L1,23 L1,16 L3.80536557,16 C4.41131148,13.8341483 5.83425889,12.3491594 8.020778,11.58978 C8.22619155,9.57335217 9.92935773,8 12,8 C14.209139,8 16,9.790861 16,12 C16,14.209139 14.209139,16 12,16 C10.359354,16 8.94940852,15.0122533 8.33239389,13.5989901 C7.16006852,14.0881487 6.36032155,14.8821232 5.91036299,16 Z M12,14 C13.1045695,14 14,13.1045695 14,12 C14,10.8954305 13.1045695,10 12,10 C10.8954305,10 10,10.8954305 10,12 C10,13.1045695 10.8954305,14 12,14 Z M16,1 L23,1 L23,8 L16,8 L16,1 Z M18,3 L18,6 L21,6 L21,3 L18,3 Z M3,18 L3,21 L6,21 L6,18 L3,18 Z" id="Combined-Shape" fill="#394047" fill-rule="nonzero"></path>
    </g>
</svg>