<?xml version="1.0" encoding="UTF-8"?>
<svg width="24px" height="24px" viewBox="0 0 24 24" version="1.1" xmlns="http://www.w3.org/2000/svg" xmlns:xlink="http://www.w3.org/1999/xlink">
    <!-- Generator: Sketch 49 (51002) - http://www.bohemiancoding.com/sketch -->
    <title>icon/spreadsheet-24</title>
    <desc>Created with Sketch.</desc>
    <defs></defs>
    <g id="icon/spreadsheet-24" stroke="none" stroke-width="1" fill="none" fill-rule="evenodd">
        <path d="M8,14 L4,14 L4,16 L8,16 L8,14 Z M8,12 L8,10 L4,10 L4,12 L8,12 Z M10,10 L10,20 L20,20 L20,10 L10,10 Z M8,20 L8,18 L4,18 L4,20 L8,20 Z M10,4 L10,8 L20,8 L20,4 L10,4 Z M8,4 L4,4 L4,8 L8,8 L8,4 Z M4,2 L20,2 C21.1045695,2 22,2.8954305 22,4 L22,20 C22,21.1045695 21.1045695,22 20,22 L4,22 C2.8954305,22 2,21.1045695 2,20 L2,4 C2,2.8954305 2.8954305,2 4,2 Z M11.3598156,12.7682213 C10.6413007,12.1694589 11.0647032,11 12,11 L18,11 C18.5522847,11 19,11.4477153 19,12 C19,12.5522847 18.5522847,13 18,13 L14.7620499,13 L16.2401844,14.2317787 C16.7199385,14.6315738 16.7199385,15.3684262 16.2401844,15.7682213 L14.7620499,17 L18,17 C18.5522847,17 19,17.4477153 19,18 C19,18.5522847 18.5522847,19 18,19 L12,19 C11.0647032,19 10.6413007,17.8305411 11.3598156,17.2317787 L14.0379501,15 L11.3598156,12.7682213 Z" id="Combined-Shape" fill="#394047" fill-rule="nonzero"></path>
    </g>
</svg>