<?xml version="1.0" encoding="UTF-8"?>
<svg width="24px" height="24px" viewBox="0 0 24 24" version="1.1" xmlns="http://www.w3.org/2000/svg" xmlns:xlink="http://www.w3.org/1999/xlink">
    <!-- Generator: Sketch 49 (51002) - http://www.bohemiancoding.com/sketch -->
    <title>icon/tabular-24</title>
    <desc>Created with Sketch.</desc>
    <defs></defs>
    <g id="icon/tabular-24" stroke="none" stroke-width="1" fill="none" fill-rule="evenodd">
        <path d="M10,14 L10,16 L20,16 L20,14 L10,14 Z M8,14 L4,14 L4,16 L8,16 L8,14 Z M10,20 L20,20 L20,18 L10,18 L10,20 Z M8,20 L8,18 L4,18 L4,20 L8,20 Z M10,10 L10,12 L20,12 L20,10 L10,10 Z M8,10 L4,10 L4,12 L8,12 L8,10 Z M10,4 L10,8 L20,8 L20,4 L10,4 Z M8,4 L4,4 L4,8 L8,8 L8,4 Z M4,2 L20,2 C21.1045695,2 22,2.8954305 22,4 L22,20 C22,21.1045695 21.1045695,22 20,22 L4,22 C2.8954305,22 2,21.1045695 2,20 L2,4 C2,2.8954305 2.8954305,2 4,2 Z" id="Combined-Shape" fill="#394047" fill-rule="nonzero"></path>
    </g>
</svg>