<?xml version="1.0" encoding="utf-8"?>
<!-- Generator: Adobe Illustrator 22.0.1, SVG Export Plug-In . SVG Version: 6.00 Build 0)  -->
<svg version="1.1" id="Layer_1" xmlns="http://www.w3.org/2000/svg" xmlns:xlink="http://www.w3.org/1999/xlink" x="0px" y="0px"
	 viewBox="0 0 1000 238.9" style="enable-background:new 0 0 1000 238.9;" xml:space="preserve">
<style type="text/css">
	.st0{fill:#FFFFFF;}
</style>
<g>
	<rect y="0.3" class="st0" width="52.9" height="238.6"/>
	<rect x="77.7" y="0.3" class="st0" width="52.9" height="185.7"/>
	<polygon class="st0" points="208.4,238.9 155.4,238.9 155.4,0.3 208.4,53.2 208.4,53.2 	"/>
	<path class="st0" d="M380.3,26.8L353.8,0.3H239.3v238.6h52.9v-92.8h61.5v92.8h52.9V53.3L380.3,26.8z M353.8,93.1h-61.5V53.3h61.5
		V93.1z"/>
	<path class="st0" d="M973.6,26.8L947.1,0.3H832.6v238.6h52.9v-92.8H947v92.8h52.9V53.3L973.6,26.8z M947.1,93.1h-61.5V53.3h61.5
		V93.1z"/>
	<rect x="635.1" y="0.3" class="st0" width="0.7" height="52.9"/>
	<polygon class="st0" points="803.1,53.3 803.1,238.9 635.1,238.9 635.1,185.9 750.2,185.9 750.2,53.3 688.7,53.3 688.7,159.4 
		635.7,159.4 635.7,0.3 750.2,0.3 	"/>
	<polygon class="st0" points="490.4,53.3 490.4,185.9 552,185.9 552,146.1 604.9,146.1 604.9,238.9 437.5,238.9 437.5,0.3 
		604.9,0.3 604.9,53.3 	"/>
</g>
</svg>
