<svg xmlns="http://www.w3.org/2000/svg" xmlns:xlink="http://www.w3.org/1999/xlink" width="38" height="38" viewBox="0 0 38 38">
    <defs>
        <path id="a" d="M12.538 10.683l4.497-4.307v17.958c0 1.035.879 1.873 1.963 1.873 1.085 0 1.964-.838 1.964-1.873V6.376l4.496 4.307c.37.355.871.554 1.395.554.523 0 1.025-.2 1.394-.554.371-.351.58-.83.58-1.33 0-.499-.209-.977-.58-1.329L20.392.534a1.978 1.978 0 0 0-.647-.394 2.052 2.052 0 0 0-1.493 0c-.24.09-.461.223-.648.394L9.75 8.024a1.821 1.821 0 0 0-.51 1.816 1.928 1.928 0 0 0 1.394 1.33 2.038 2.038 0 0 0 1.904-.487zM36.1 19.655c-1.05 0-1.9.821-1.9 1.835v11.007c0 1.013-.85 1.834-1.9 1.834H5.7c-1.05 0-1.9-.821-1.9-1.834V21.49c0-1.014-.85-1.835-1.9-1.835-1.05 0-1.9.821-1.9 1.835v11.007C0 35.536 2.552 38 5.7 38h26.6c3.148 0 5.7-2.464 5.7-5.503V21.49c0-1.014-.85-1.835-1.9-1.835z"/>
    </defs>
    <g fill="none" fill-rule="evenodd">
        <mask id="b" fill="#ffffff">
            <use xlink:href="#a"/>
        </mask>
        <g fill="#ffffff" mask="url(#b)">
            <path d="M-2.62-7.862h51v51h-51z"/>
        </g>
    </g>
</svg>
