<?xml version="1.0" encoding="UTF-8"?>
<svg width="18px" height="16px" viewBox="0 0 18 16" version="1.1" xmlns="http://www.w3.org/2000/svg" xmlns:xlink="http://www.w3.org/1999/xlink">
    <!-- Generator: Sketch 43.2 (39069) - http://www.bohemiancoding.com/sketch -->
    <title>apiAccess</title>
    <desc>Created with Sketch.</desc>
    <defs></defs>
    <g id="Page-1" stroke="none" stroke-width="1" fill="none" fill-rule="evenodd">
        <g id="apiAccess" fill-rule="nonzero" fill="#4c2a85" >
            <path d="M2.45454545,4 L0.818181818,4 L0.818181818,1.6 C0.818181818,0.7163444 1.55080677,0 2.45454545,0 L15.5454545,0 C16.4491932,0 17.1818182,0.7163444 17.1818182,1.6 L17.1818182,4 L15.5454545,4 L15.5454545,1.6 L2.45454545,1.6 L2.45454545,4 Z M7.36363636,10.4 L7.36363636,11.2 C7.36363636,11.6418278 6.99732389,12 6.54545455,12 C4.56630716,12 2.91541782,10.6257922 2.53637846,8.8 L0,8.8 L0,7.2 L2.53637846,7.2 C2.91541782,5.37420774 4.56630716,4 6.54545455,4 C6.99732389,4 7.36363636,4.3581722 7.36363636,4.8 L7.36363636,5.6 L9,5.6 C9.4518693,5.6 9.81818182,5.9581722 9.81818182,6.4 C9.81818182,6.84182776 9.4518693,7.2 9,7.2 L7.36363636,7.2 L7.36363636,8.8 L9,8.8 C9.4518693,8.8 9.81818182,9.15817224 9.81818182,9.6 C9.81818182,10.0418278 9.4518693,10.4 9,10.4 L7.36363636,10.4 Z M15.4636216,7.2 L18,7.2 L18,8.8 L15.4636216,8.8 C15.0845822,10.6257922 13.4336928,12 11.4545455,12 C11.0026762,12 10.6363636,11.6418278 10.6363636,11.2 L10.6363636,4.8 C10.6363636,4.3581722 11.0026762,4 11.4545455,4 C13.4336928,4 15.0845822,5.37420774 15.4636216,7.2 Z M15.5454545,12 L17.1818182,12 L17.1818182,14.4 C17.1818182,15.2836556 16.4491932,16 15.5454545,16 L2.45454545,16 C1.55080677,16 0.818181818,15.2836556 0.818181818,14.4 L0.818181818,12 L2.45454545,12 L2.45454545,14.4 L15.5454545,14.4 L15.5454545,12 Z M5.72727273,5.73656457 C4.77393352,6.0660337 4.09090909,6.95502496 4.09090909,8 C4.09090909,9.04497504 4.77393352,9.93396632 5.72727273,10.2634354 L5.72727273,5.73656457 Z M12.2727273,5.73656457 L12.2727273,10.2634354 C13.2260665,9.93396632 13.9090909,9.04497504 13.9090909,8 C13.9090909,6.95502496 13.2260665,6.0660337 12.2727273,5.73656457 Z" id="Combined-Shape" ></path>
        </g>
    </g>
</svg>
