<svg id="Layer_1" data-name="Layer 1" xmlns="http://www.w3.org/2000/svg" viewBox="0 0 301.57 71.62"><defs><style>.cls-1{fill:#231f20;}</style></defs><title>logo-gov</title><path class="cls-1" d="M139.14,56.18h-5l-.59,1.37a3,3,0,0,0-.29,1.13.94.94,0,0,0,.48.87,4,4,0,0,0,1.38.25v.38h-4.67V59.8a2.09,2.09,0,0,0,1.24-.63,8.34,8.34,0,0,0,1.2-2.12l5-11.21h.2l5.07,11.52a7,7,0,0,0,1.19,2.06,1.62,1.62,0,0,0,1,.37v.38h-6.8V59.8h.28a2.13,2.13,0,0,0,1.15-.23.55.55,0,0,0,.23-.48,1.27,1.27,0,0,0-.06-.38c0-.06-.12-.32-.31-.78Zm-.35-.77-2.09-4.84-2.15,4.84Z" transform="translate(-23.61 -16.74)"/><path class="cls-1" d="M154.64,50.5v7.58a2.78,2.78,0,0,0,.21,1.38,1.19,1.19,0,0,0,.84.35v.37h-3.95V58.89a5,5,0,0,1-1.39,1.21,3.2,3.2,0,0,1-1.55.38,2.29,2.29,0,0,1-1.46-.5,2.45,2.45,0,0,1-.85-1.18,8.68,8.68,0,0,1-.22-2.35V52.6a2.78,2.78,0,0,0-.2-1.37,1.23,1.23,0,0,0-.84-.35V50.5h3.95v6.62a5.5,5.5,0,0,0,.1,1.34.89.89,0,0,0,.31.46.81.81,0,0,0,.49.16,1.2,1.2,0,0,0,.67-.2,4.27,4.27,0,0,0,1-1.09V52.6a2.78,2.78,0,0,0-.2-1.37,1.23,1.23,0,0,0-.84-.35V50.5Z" transform="translate(-23.61 -16.74)"/><path class="cls-1" d="M162.15,50.23l.16,3.3H162a5.2,5.2,0,0,0-1.31-2,2.18,2.18,0,0,0-1.35-.54,1,1,0,0,0-.73.28.88.88,0,0,0-.3.66.85.85,0,0,0,.21.54,9.94,9.94,0,0,0,1.85,1.46,7.64,7.64,0,0,1,2,1.75,2.83,2.83,0,0,1,.48,1.61,3.4,3.4,0,0,1-.4,1.58,2.82,2.82,0,0,1-1.14,1.19,3.26,3.26,0,0,1-1.63.42,5.64,5.64,0,0,1-1.85-.44,1.52,1.52,0,0,0-.42-.11c-.23,0-.42.17-.57.52h-.34L156.28,57h.35A4.51,4.51,0,0,0,157.92,59a2.45,2.45,0,0,0,1.54.68,1.12,1.12,0,0,0,.81-.31,1,1,0,0,0,.32-.74,1.28,1.28,0,0,0-.31-.86,8.12,8.12,0,0,0-1.39-1.1A10.9,10.9,0,0,1,156.83,55a2.92,2.92,0,0,1-.68-1.87,3,3,0,0,1,.77-2,2.77,2.77,0,0,1,2.23-.91,3.26,3.26,0,0,1,1.52.38,1,1,0,0,0,.46.16.52.52,0,0,0,.3-.08,2,2,0,0,0,.36-.44Z" transform="translate(-23.61 -16.74)"/><path class="cls-1" d="M167.07,47V50.5h2.3v1h-2.3v6a4.57,4.57,0,0,0,.08,1.08.78.78,0,0,0,.27.39.62.62,0,0,0,.36.15q.67,0,1.27-1l.31.23a2.83,2.83,0,0,1-2.72,2,2.41,2.41,0,0,1-1.56-.51,2.27,2.27,0,0,1-.81-1.15,9.75,9.75,0,0,1-.1-1.91V51.52H162.9v-.36a13.34,13.34,0,0,0,2.22-1.94,11.81,11.81,0,0,0,1.6-2.27Z" transform="translate(-23.61 -16.74)"/><path class="cls-1" d="M173.25,50.5v2.2a7.09,7.09,0,0,1,1.69-2,2.5,2.5,0,0,1,1.4-.49,1.23,1.23,0,0,1,.93.36,1.39,1.39,0,0,1,.35,1,1.58,1.58,0,0,1-.34,1.08,1,1,0,0,1-.81.38,1.4,1.4,0,0,1-1-.35,6,6,0,0,0-.48-.39.45.45,0,0,0-.24-.06.87.87,0,0,0-.57.23,2.15,2.15,0,0,0-.64,1,7,7,0,0,0-.33,2.22v2.81a2.38,2.38,0,0,0,.07.76.82.82,0,0,0,.37.41,2.11,2.11,0,0,0,.82.16v.37h-5.23v-.37a1.14,1.14,0,0,0,.85-.35,3.22,3.22,0,0,0,.22-1.56V52.55a4,4,0,0,0-.08-1.06.83.83,0,0,0-.3-.42,1.61,1.61,0,0,0-.69-.19V50.5Z" transform="translate(-23.61 -16.74)"/><path class="cls-1" d="M182.93,58.75a5.11,5.11,0,0,1-3.18,1.56,1.88,1.88,0,0,1-1.38-.54,1.84,1.84,0,0,1-.55-1.36,2.67,2.67,0,0,1,1-2,18.07,18.07,0,0,1,4.15-2.36v-1a4.69,4.69,0,0,0-.12-1.38,1.11,1.11,0,0,0-.45-.5,1.35,1.35,0,0,0-.75-.21,1.91,1.91,0,0,0-1.11.3.53.53,0,0,0-.27.44.9.9,0,0,0,.29.54,1.33,1.33,0,0,1,.39.86,1.15,1.15,0,0,1-.38.86,1.38,1.38,0,0,1-1,.36,1.58,1.58,0,0,1-1.09-.39A1.2,1.2,0,0,1,178,53a2.15,2.15,0,0,1,.59-1.42,3.73,3.73,0,0,1,1.65-1,6.72,6.72,0,0,1,2.2-.36,3.64,3.64,0,0,1,2.18.59,2.75,2.75,0,0,1,1,1.27,8.24,8.24,0,0,1,.14,2v3.76a3.92,3.92,0,0,0,.05.83.5.5,0,0,0,.16.25.37.37,0,0,0,.24.08c.18,0,.36-.13.55-.38l.31.25A3.79,3.79,0,0,1,186.05,60a2.32,2.32,0,0,1-1.26.35,2,2,0,0,1-1.29-.39A1.76,1.76,0,0,1,182.93,58.75Zm0-.76V54.75a6.05,6.05,0,0,0-1.86,1.57,1.92,1.92,0,0,0-.4,1.13,1.19,1.19,0,0,0,.34.84.94.94,0,0,0,.73.28A2,2,0,0,0,182.93,58Z" transform="translate(-23.61 -16.74)"/><path class="cls-1" d="M190.92,46.13v12a2.31,2.31,0,0,0,.24,1.31,1.29,1.29,0,0,0,.93.33v.37h-5.23v-.37a1.26,1.26,0,0,0,1-.37,2.3,2.3,0,0,0,.21-1.26v-10a2.29,2.29,0,0,0-.24-1.3,1.28,1.28,0,0,0-.92-.33v-.38Z" transform="translate(-23.61 -16.74)"/><path class="cls-1" d="M195.75,50.5v7.68a2.31,2.31,0,0,0,.24,1.31,1.29,1.29,0,0,0,.93.33v.37h-5.23v-.37a1.27,1.27,0,0,0,1-.37,2.32,2.32,0,0,0,.21-1.26V52.52a2.31,2.31,0,0,0-.24-1.31,1.28,1.28,0,0,0-.92-.33V50.5Zm-1.45-4.69a1.6,1.6,0,1,1-1.13.47A1.54,1.54,0,0,1,194.29,45.8Z" transform="translate(-23.61 -16.74)"/><path class="cls-1" d="M202.14,58.75A5.11,5.11,0,0,1,199,60.32a1.88,1.88,0,0,1-1.38-.54,1.84,1.84,0,0,1-.55-1.36,2.67,2.67,0,0,1,1-2,18.07,18.07,0,0,1,4.15-2.36v-1A4.69,4.69,0,0,0,202,51.7a1.11,1.11,0,0,0-.45-.5,1.35,1.35,0,0,0-.75-.21,1.91,1.91,0,0,0-1.11.3.53.53,0,0,0-.27.44.9.9,0,0,0,.29.54,1.32,1.32,0,0,1,.39.86,1.15,1.15,0,0,1-.38.86,1.38,1.38,0,0,1-1,.36,1.58,1.58,0,0,1-1.09-.39,1.2,1.2,0,0,1-.44-.92,2.14,2.14,0,0,1,.59-1.42,3.73,3.73,0,0,1,1.65-1,6.72,6.72,0,0,1,2.2-.36,3.64,3.64,0,0,1,2.18.59,2.75,2.75,0,0,1,1,1.27,8.24,8.24,0,0,1,.14,2v3.76a3.92,3.92,0,0,0,.05.83.5.5,0,0,0,.16.25.37.37,0,0,0,.24.08c.18,0,.36-.13.55-.38l.31.25A3.79,3.79,0,0,1,205.27,60a2.32,2.32,0,0,1-1.26.35,2,2,0,0,1-1.29-.39A1.76,1.76,0,0,1,202.14,58.75Zm0-.76V54.75a6.05,6.05,0,0,0-1.86,1.57,1.92,1.92,0,0,0-.4,1.13,1.19,1.19,0,0,0,.34.84.94.94,0,0,0,.73.28A2,2,0,0,0,202.14,58Z" transform="translate(-23.61 -16.74)"/><path class="cls-1" d="M210.3,50.5v1.25a5.72,5.72,0,0,1,1.43-1.18,3.07,3.07,0,0,1,1.47-.37,2.35,2.35,0,0,1,1.56.52,2.51,2.51,0,0,1,.83,1.3,10,10,0,0,1,.17,2.27v3.77a2.88,2.88,0,0,0,.2,1.39,1.18,1.18,0,0,0,.84.35v.37h-4.9v-.37a1,1,0,0,0,.79-.46,3,3,0,0,0,.17-1.28V53.76a7,7,0,0,0-.09-1.5.91.91,0,0,0-.32-.48.79.79,0,0,0-.49-.17q-.89,0-1.66,1.27v5.19a2.89,2.89,0,0,0,.2,1.38,1,1,0,0,0,.75.36v.37h-4.9v-.37a1.21,1.21,0,0,0,.87-.39,2.91,2.91,0,0,0,.18-1.35V52.6a2.78,2.78,0,0,0-.2-1.37,1.23,1.23,0,0,0-.84-.35V50.5Z" transform="translate(-23.61 -16.74)"/><path class="cls-1" d="M235.25,45.81v5h-.38a6.32,6.32,0,0,0-2.08-3.09,4.9,4.9,0,0,0-3-1.06,3.92,3.92,0,0,0-2.62.89A4.8,4.8,0,0,0,225.65,50a12.24,12.24,0,0,0-.43,3.25,11.86,11.86,0,0,0,.48,3.54A4,4,0,0,0,227.23,59a4.41,4.41,0,0,0,2.52.71,5.22,5.22,0,0,0,1-.11,7.43,7.43,0,0,0,1.09-.32V56.38a3.11,3.11,0,0,0-.11-1.07,1.06,1.06,0,0,0-.47-.44,1.77,1.77,0,0,0-.87-.2h-.36v-.38h6.83v.38a3,3,0,0,0-1.08.21,1.06,1.06,0,0,0-.47.53,2.92,2.92,0,0,0-.09,1V59.3a13.82,13.82,0,0,1-2.8.91,14.64,14.64,0,0,1-3,.31,8.76,8.76,0,0,1-3.32-.54,8.29,8.29,0,0,1-2.33-1.43,6.75,6.75,0,0,1-1.58-2,7,7,0,0,1-.72-3.2A7.21,7.21,0,0,1,223.7,48a7.67,7.67,0,0,1,5.6-2.19,7.78,7.78,0,0,1,3.36.64,6.12,6.12,0,0,0,1.21.39.81.81,0,0,0,.54-.21,1.88,1.88,0,0,0,.46-.8Z" transform="translate(-23.61 -16.74)"/><path class="cls-1" d="M241.34,50.21a4.49,4.49,0,0,1,2.35.65,4.18,4.18,0,0,1,1.65,1.85,6.12,6.12,0,0,1,.56,2.63,5.56,5.56,0,0,1-1,3.45,4.13,4.13,0,0,1-3.49,1.68A4,4,0,0,1,238,58.94a5.66,5.66,0,0,1-1.18-3.55A5.74,5.74,0,0,1,238,51.75,4,4,0,0,1,241.34,50.21Zm0,.74a1.21,1.21,0,0,0-.91.4,2.78,2.78,0,0,0-.5,1.57q-.12,1.18-.12,3.27a13.92,13.92,0,0,0,.15,2.07,2,2,0,0,0,.49,1.12,1.16,1.16,0,0,0,.85.38,1.18,1.18,0,0,0,.78-.26,1.74,1.74,0,0,0,.54-1,24,24,0,0,0,.21-4,9.85,9.85,0,0,0-.2-2.42,1.85,1.85,0,0,0-.58-1A1.09,1.09,0,0,0,241.38,50.94Z" transform="translate(-23.61 -16.74)"/><path class="cls-1" d="M250.69,60.47,247.43,53a7.4,7.4,0,0,0-.92-1.72,1.23,1.23,0,0,0-.7-.36V50.5H251v.38a1,1,0,0,0-.66.18.71.71,0,0,0-.25.54A4.61,4.61,0,0,0,250.5,53l1.59,3.64,1.27-3.14a6.06,6.06,0,0,0,.55-1.91.66.66,0,0,0-.23-.52,1.35,1.35,0,0,0-.82-.22V50.5H256v.38a1.29,1.29,0,0,0-.75.34,6.33,6.33,0,0,0-.87,1.65l-3.23,7.6Z" transform="translate(-23.61 -16.74)"/><path class="cls-1" d="M264.07,55h-5.32a5,5,0,0,0,1,3,2.17,2.17,0,0,0,1.72.86,2,2,0,0,0,1.13-.35,4.39,4.39,0,0,0,1.09-1.25l.35.23a5.87,5.87,0,0,1-1.74,2.27,3.75,3.75,0,0,1-2.21.67,3.67,3.67,0,0,1-3.26-1.66A5.84,5.84,0,0,1,256,55.5a5.51,5.51,0,0,1,1.31-3.86,4,4,0,0,1,3.07-1.44,3.33,3.33,0,0,1,2.55,1.21A5.51,5.51,0,0,1,264.07,55Zm-2.55-.69a9.53,9.53,0,0,0-.18-2.29,1.88,1.88,0,0,0-.56-.94.86.86,0,0,0-.58-.19,1,1,0,0,0-.88.53,4.53,4.53,0,0,0-.61,2.53v.36Z" transform="translate(-23.61 -16.74)"/><path class="cls-1" d="M268.25,50.5v2.2a7.08,7.08,0,0,1,1.69-2,2.5,2.5,0,0,1,1.4-.49,1.23,1.23,0,0,1,.93.36,1.39,1.39,0,0,1,.35,1,1.58,1.58,0,0,1-.34,1.08,1,1,0,0,1-.81.38,1.4,1.4,0,0,1-1-.35,5.89,5.89,0,0,0-.48-.39.45.45,0,0,0-.24-.06.87.87,0,0,0-.57.23,2.15,2.15,0,0,0-.64,1,7,7,0,0,0-.33,2.22v2.81a2.4,2.4,0,0,0,.07.76.82.82,0,0,0,.37.41,2.11,2.11,0,0,0,.82.16v.37h-5.23v-.37a1.14,1.14,0,0,0,.85-.35,3.22,3.22,0,0,0,.22-1.56V52.55a4,4,0,0,0-.08-1.06.83.83,0,0,0-.3-.42,1.61,1.61,0,0,0-.69-.19V50.5Z" transform="translate(-23.61 -16.74)"/><path class="cls-1" d="M276.54,50.5v1.25A5.69,5.69,0,0,1,278,50.57a3.06,3.06,0,0,1,1.47-.37,2.35,2.35,0,0,1,1.56.52,2.51,2.51,0,0,1,.83,1.3A10,10,0,0,1,282,54.3v3.77a2.88,2.88,0,0,0,.2,1.39,1.18,1.18,0,0,0,.84.35v.37h-4.9v-.37a1,1,0,0,0,.79-.46,3,3,0,0,0,.17-1.28V53.76a7.11,7.11,0,0,0-.09-1.5.92.92,0,0,0-.32-.48.79.79,0,0,0-.49-.17q-.89,0-1.66,1.27v5.19a2.89,2.89,0,0,0,.2,1.38,1,1,0,0,0,.75.36v.37h-4.9v-.37a1.21,1.21,0,0,0,.87-.39,2.91,2.91,0,0,0,.18-1.35V52.6a2.78,2.78,0,0,0-.2-1.37,1.23,1.23,0,0,0-.84-.35V50.5Z" transform="translate(-23.61 -16.74)"/><path class="cls-1" d="M287.34,50.5v1.27a5.56,5.56,0,0,1,1.48-1.22,3.22,3.22,0,0,1,1.49-.35,2.69,2.69,0,0,1,1.56.44,2.74,2.74,0,0,1,1,1.33,6.17,6.17,0,0,1,1.59-1.35,3.28,3.28,0,0,1,1.59-.41,2.55,2.55,0,0,1,1.6.46,2.39,2.39,0,0,1,.83,1.17,7.92,7.92,0,0,1,.23,2.26v4a2.84,2.84,0,0,0,.2,1.39,1.23,1.23,0,0,0,.84.35v.37h-5v-.37a1.11,1.11,0,0,0,.87-.46,2.74,2.74,0,0,0,.19-1.28V53.9a7.72,7.72,0,0,0-.1-1.65,1,1,0,0,0-.33-.52.83.83,0,0,0-.52-.17,1.55,1.55,0,0,0-.9.33,4.18,4.18,0,0,0-.92,1v5.2a3,3,0,0,0,.18,1.32,1.07,1.07,0,0,0,.91.42v.37h-5v-.37a1.11,1.11,0,0,0,.64-.2.87.87,0,0,0,.31-.44,4.76,4.76,0,0,0,.08-1.1V53.9a7.61,7.61,0,0,0-.1-1.65,1,1,0,0,0-.35-.52.85.85,0,0,0-.52-.19,1.38,1.38,0,0,0-.76.22,4.22,4.22,0,0,0-1,1.1v5.2a2.94,2.94,0,0,0,.2,1.35,1.05,1.05,0,0,0,.84.39v.37h-5v-.37a1.21,1.21,0,0,0,.87-.39,2.91,2.91,0,0,0,.18-1.35V52.6a2.78,2.78,0,0,0-.2-1.37,1.23,1.23,0,0,0-.84-.35V50.5Z" transform="translate(-23.61 -16.74)"/><path class="cls-1" d="M308.14,55h-5.32a5,5,0,0,0,1,3,2.17,2.17,0,0,0,1.72.86,2,2,0,0,0,1.13-.35,4.39,4.39,0,0,0,1.09-1.25l.35.23a5.87,5.87,0,0,1-1.74,2.27,3.75,3.75,0,0,1-2.21.67,3.67,3.67,0,0,1-3.26-1.66A5.84,5.84,0,0,1,300,55.5a5.51,5.51,0,0,1,1.31-3.86,4,4,0,0,1,3.07-1.44A3.33,3.33,0,0,1,307,51.41,5.51,5.51,0,0,1,308.14,55Zm-2.55-.69a9.53,9.53,0,0,0-.18-2.29,1.88,1.88,0,0,0-.56-.94.86.86,0,0,0-.58-.19,1,1,0,0,0-.88.53,4.53,4.53,0,0,0-.61,2.53v.36Z" transform="translate(-23.61 -16.74)"/><path class="cls-1" d="M312.25,50.5v1.25a5.69,5.69,0,0,1,1.43-1.18,3.06,3.06,0,0,1,1.47-.37,2.35,2.35,0,0,1,1.56.52,2.51,2.51,0,0,1,.83,1.3,10,10,0,0,1,.17,2.27v3.77a2.88,2.88,0,0,0,.2,1.39,1.18,1.18,0,0,0,.84.35v.37h-4.9v-.37a1,1,0,0,0,.79-.46,3,3,0,0,0,.17-1.28V53.76a7.11,7.11,0,0,0-.09-1.5.92.92,0,0,0-.32-.48.79.79,0,0,0-.49-.17q-.89,0-1.66,1.27v5.19a2.89,2.89,0,0,0,.2,1.38,1,1,0,0,0,.75.36v.37h-4.9v-.37a1.21,1.21,0,0,0,.87-.39,2.91,2.91,0,0,0,.18-1.35V52.6a2.78,2.78,0,0,0-.2-1.37,1.23,1.23,0,0,0-.84-.35V50.5Z" transform="translate(-23.61 -16.74)"/><path class="cls-1" d="M322.87,47V50.5h2.3v1h-2.3v6a4.56,4.56,0,0,0,.08,1.08.78.78,0,0,0,.27.39.62.62,0,0,0,.36.15q.67,0,1.27-1l.31.23a2.83,2.83,0,0,1-2.72,2,2.41,2.41,0,0,1-1.56-.51,2.27,2.27,0,0,1-.81-1.15,9.75,9.75,0,0,1-.1-1.91V51.52h-1.26v-.36a13.35,13.35,0,0,0,2.22-1.94,11.81,11.81,0,0,0,1.6-2.27Z" transform="translate(-23.61 -16.74)"/><path class="cls-1" d="M56.54,74.14a.61.61,0,0,1-.25.25" transform="translate(-23.61 -16.74)"/><path class="cls-1" d="M58.83,56.25a.48.48,0,1,0-.48-.48.48.48,0,0,0,.48.48Z" transform="translate(-23.61 -16.74)"/><path class="cls-1" d="M81,36H63.75V50a3.16,3.16,0,0,0,1.35,2.88l6.63,4a.8.8,0,0,0,1.14.06l6.73-4A3.16,3.16,0,0,0,81,50V36Zm-11.51,4H68V36.51h1.49v3.56ZM68.4,41.32l.21-.22-.13-.24.28,0,.17-.29.16.29.28,0-.13.24.21.22-.27.05v.3l-.26-.19-.26.19v-.3l-.27-.05Zm-4.16,4.43V42.37H66v3.38Zm.3-4.9.28,0,.17-.29.16.29.28,0-.13.24.21.22-.27.05v.3L65,41.48l-.26.19v-.3l-.27-.05.21-.22-.13-.24Zm2,3.44.28,0L67,44l.16.29.28,0-.13.24.21.22-.27.05v.3L67,44.92l-.26.19v-.3l-.27-.05.21-.22-.13-.24Zm1.2-2.72c0-.09-.13-.11-.18-.11s-.23.27-.36.27-.17,0-.17-.11.21-.16.28-.24c-1.12,0-1.14.51-1.31.51s.25-.54.4-.7c-.23,0-.36-.32-.61-.46.12-.17.18-.1.33,0,0-.12.09-.25.35-.25.5,0,.36.48.44.48s0-.48.33-.48c.49,0,1.11,1.27.55,1.27-.24,0,0-.18-.05-.22ZM66.5,37.85l.21-.22-.13-.24.28,0,.17-.29.16.29.28,0-.13.24.21.22-.27.05v.3L67,38l-.26.19v-.3l-.27-.05ZM66,36.51v3.56H64.24V36.51ZM69.48,54.9l-4.12-2.46a3,3,0,0,1-1.12-2.3V46.22h5.24V54.9ZM68,45.75V42.37h1.49v3.38Zm6.8,9.43-1.9,1.14h0a.81.81,0,0,1-.5.18.8.8,0,0,1-.51-.18l-1.89-1.13v-9h4.84v9Zm0-9.43H69.95V36.51h4.84v9.24Zm5.71,4.39a3,3,0,0,1-1.12,2.3L75.26,54.9V46.22H80.5v3.92Zm0-4.39H75.26V36.51H80.5v9.24Z" transform="translate(-23.61 -16.74)"/><path class="cls-1" d="M69.2,49.41c0-.06-.66.21-.48.19a1.88,1.88,0,0,1,.53-.71c0-.22-.31,0-.61.13,1-1.41.35-.83-.2-.73.88-.94.65-.93,0-.63.51-.4.62-.88.54-1-.48.63-.91.54-.91,1.12A2.35,2.35,0,0,1,67.73,49c-.26.28-.06-1-.73-1-.22,0-.72,0-.88.25.14,0,.34.35.34.49s.13.52-.1.52-.5-.48-.5-.72,0-.18,0-.51a1.87,1.87,0,0,0-1.28-1.34c0,.39.51.48.51,1-.21,0-.52-.4-.52-.15s.32.29.32.51-.37-.08-.37.15.2.17.25.37c-.15,0-.28,0-.31.05s0,.15.16.22c-.05,0-.1.16-.1.49,0,1.1.69,1.61,1.2,1.61s.3-.25.35-.37c0,.19.19-.09.19.23s-.35.19-.35.48.55,0,.55.42a5.17,5.17,0,0,1-.07.72c0,.14.58-.19.54-.25.14.05.13.46.39.45s.2-.42.33-.45c-.08,0,.52.39.52.2,0-.51-.21-.29-.21-.65s.71-.26.6-.43-.16-.05-.23-.3c0,0-.56-.81.12-.37s.79-1.08.75-1.16Z" transform="translate(-23.61 -16.74)"/><path class="cls-1" d="M87.59,53.05a.5.5,0,1,0-.57-.5.54.54,0,0,0,.57.5Z" transform="translate(-23.61 -16.74)"/><path class="cls-1" d="M85.3,54.42a.5.5,0,1,0-.57-.5.54.54,0,0,0,.57.5Z" transform="translate(-23.61 -16.74)"/><path class="cls-1" d="M58.06,57.56a.5.5,0,1,0-.57-.5.54.54,0,0,0,.57.5Z" transform="translate(-23.61 -16.74)"/><path class="cls-1" d="M59.82,57.71a.5.5,0,1,0-.57-.5.54.54,0,0,0,.57.5Z" transform="translate(-23.61 -16.74)"/><path class="cls-1" d="M108.86,33.94a3.55,3.55,0,0,1,.42,3.75c-.33,0-.27-.45-.33-.7a4.51,4.51,0,0,1-.54-3.81c.39.06.24.54.45.76Z" transform="translate(-23.61 -16.74)"/><path class="cls-1" d="M36.9,35.3a5.35,5.35,0,0,0,0,2.39c-.15.15-.12-.15-.27-.12-1.17-.85-.63-2.51-.93-3.69a.23.23,0,0,1,.3-.06,2.16,2.16,0,0,1,.9,1.48Z" transform="translate(-23.61 -16.74)"/><path class="cls-1" d="M111.45,35.39c.18.33-.15.67-.39.82a.78.78,0,0,1-.75-.33.69.69,0,0,1,.36-.79.78.78,0,0,1,.78.3Z" transform="translate(-23.61 -16.74)"/><path class="cls-1" d="M35.07,36.73a.9.9,0,0,1-.39.67c-.18,0-.45,0-.57-.15A.56.56,0,0,1,34,36.6a.7.7,0,0,1,.57-.27c.21.09.42.15.51.39Z" transform="translate(-23.61 -16.74)"/><path class="cls-1" d="M112.62,37.24a.59.59,0,0,1-.81.76.81.81,0,0,1-.33-.52.91.91,0,0,1,.51-.55,1,1,0,0,1,.63.3Z" transform="translate(-23.61 -16.74)"/><path class="cls-1" d="M110.9,37.27c.24.12.06.42,0,.6s-.36.39-.63.3-.33-.15-.39-.36a.67.67,0,0,1,.42-.7.75.75,0,0,1,.57.15Z" transform="translate(-23.61 -16.74)"/><path class="cls-1" d="M108.71,37.72c0,.33,0,.76-.36.82a.57.57,0,0,1-.69-.42.72.72,0,0,1,.45-.73.81.81,0,0,1,.6.33Z" transform="translate(-23.61 -16.74)"/><path class="cls-1" d="M38.34,37.88c.09.3-.21.48-.39.64a.61.61,0,0,1-.6-.33c-.21-.21.06-.39.12-.57a.56.56,0,0,1,.87.27Z" transform="translate(-23.61 -16.74)"/><path class="cls-1" d="M36.54,38a.62.62,0,0,1-.33.58.55.55,0,0,1-.6-.27.51.51,0,0,1,.27-.7c.33-.12.54.18.66.39Z" transform="translate(-23.61 -16.74)"/><path class="cls-1" d="M101.44,38.09a6.35,6.35,0,0,1,.6,2.18c-.12.57.09,1.33-.33,1.73-.42-.15-.45-.67-.72-.94-.54-1.06-.06-2.3.12-3.33.24-.09.24.21.33.36Z" transform="translate(-23.61 -16.74)"/><path class="cls-1" d="M35.13,38.45c.09.36-.18.54-.39.76a.7.7,0,0,1-.75-.42.76.76,0,0,1,.39-.73.77.77,0,0,1,.75.39Z" transform="translate(-23.61 -16.74)"/><path class="cls-1" d="M106.19,39.33a4.37,4.37,0,0,1,.15,2.91l-.18.15a11.75,11.75,0,0,1-1.23-2.45,4,4,0,0,1,.36-1.73c.21-.15.33,0,.42.21a1.19,1.19,0,0,0,.48.91Z" transform="translate(-23.61 -16.74)"/><path class="cls-1" d="M110,38.78a.78.78,0,0,1-.45.73.54.54,0,0,1-.69-.36.65.65,0,0,1,.33-.73c.33-.18.66.12.81.36Z" transform="translate(-23.61 -16.74)"/><path class="cls-1" d="M36.57,39.72a.65.65,0,0,1-.45.58c-.24.18-.42-.12-.63-.21a.72.72,0,0,1,0-.7c.09-.18.3-.18.48-.24.27.15.54.27.6.58Z" transform="translate(-23.61 -16.74)"/><path class="cls-1" d="M37.89,39.57c.12.3-.21.45-.33.6-.36.12-.54-.15-.69-.36s.12-.49.33-.67c.36-.09.54.15.69.42Z" transform="translate(-23.61 -16.74)"/><path class="cls-1" d="M110.81,39.48c0,.39-.63.79-.69,1.18a3,3,0,0,1-1.86,1.7,1.44,1.44,0,0,1-.69.39c-.06-.6.48-1.15.81-1.69a4.46,4.46,0,0,1,2.43-1.58Z" transform="translate(-23.61 -16.74)"/><path class="cls-1" d="M36,40.75a11,11,0,0,0,1.23,1.42.25.25,0,0,1-.21.3c-1.47-.09-2.46-1.6-3.19-2.66.09-.33.48-.06.69-.09.51.39,1.08.51,1.47,1Z" transform="translate(-23.61 -16.74)"/><path class="cls-1" d="M111.23,41.18a3.89,3.89,0,0,1-1.86,3.27c-.33.12-.69.45-1,.24A15.17,15.17,0,0,1,111,41.18Z" transform="translate(-23.61 -16.74)"/><path class="cls-1" d="M105.46,42.05a.74.74,0,0,1-.51.88c-.33,0-.54-.24-.69-.48a.63.63,0,0,1,.42-.67.5.5,0,0,1,.36-.09c.18.06.27.21.42.36Z" transform="translate(-23.61 -16.74)"/><path class="cls-1" d="M34.32,42.33a17.61,17.61,0,0,1,1.62,1.42c-.39.27-.87,0-1.32,0-1-.36-1.71-1.24-2.76-1.54,0-.33.42-.21.63-.3a5.51,5.51,0,0,1,1.83.39Z" transform="translate(-23.61 -16.74)"/><path class="cls-1" d="M66.51,33.37c-1.68-.67-2.8,1.09-4.51.88-.21.12-.15.33-.27.48s-.24,0-.33,0c-.09-.73-.33-1.39-.42-2.09-.18-.3-.09-.73-.24-1-1-2.63,2.34-.64,3-2.18.57-1.33-1.11-1.48-1.62-2.42v-.39c-.48-.48-1-.64-1.29-1.27A4.38,4.38,0,0,0,60.92,23c0-.18-.15-.42-.42-.33-.57.79-1,1.42-1.53,2.18a16.18,16.18,0,0,0-1.77-1.33c-.45-.06-.87-.51-1.38-.33a.41.41,0,0,0,.09.45,4.34,4.34,0,0,0,1.47,3l.09.45a13.64,13.64,0,0,0-.54,4,22.18,22.18,0,0,1-6.52,9.17c-1.71,1.94-3.76,3.81-4,6.48-.09.42.06.94-.27,1.24a10.33,10.33,0,0,1-2.8-1.48c-1.38-1-3.37-.85-4.27-2.6-.36-.7.09-1.39.42-1.91,1-1,.87-2.69.33-3.87-.12,0-.15.12-.24.15-.09,1.79-1.5,3-1,5,.12.57.42.94.57,1.48a4.67,4.67,0,0,1-.69-.15,7.52,7.52,0,0,0-2-.27c-1.38.64-3.28-.15-4.39,1.12-.18,0-.42.06-.36.33.66,0,1.29.18,2,.15,1.05.18,1.74-.7,2.46-1.09h.18c.3-.3.81-.12,1.2-.18a12.07,12.07,0,0,1,4.93,2.06v.12c-.6.27-1.29.45-1.89.79a4.08,4.08,0,0,0-1.68,2c-.48.76.15,1.42.45,2.06,0,.3.06.67.33.79,1-1,.06-2.3.21-3.48a2.47,2.47,0,0,1,2-1.57c1.71-.73,2.95.67,4.33,1.45A20.52,20.52,0,0,1,46,52.92a3.74,3.74,0,0,1-1.41.21c-2.37.18-4.24,1.48-6.37,2.21-1,.33-2.1.3-3.07.67a7.47,7.47,0,0,0,2.31-.09c2.95-.42,5.2-2.69,8.39-2.3l.06.09a7.1,7.1,0,0,1-1.41,2c-.09-.33-.12-.61-.42-.79a.56.56,0,0,0-.69.24.41.41,0,0,0,0,.45A1,1,0,0,0,44,56c-.06.27-.39.39-.57.64-.84,1.42-2.56.85-3.55,1.85-.15.21-.69.33-.45.67a4.51,4.51,0,0,0,3.1-.79c1.11-1.24,2.28-2.42,3.4-3.6a3.61,3.61,0,0,1-.66,2.75,3.54,3.54,0,0,0-.81-.45.74.74,0,0,0-.54.61,1.78,1.78,0,0,0,.45.61A10.69,10.69,0,0,1,40.9,59.4a59.14,59.14,0,0,1-6.55.48c-1.05-.06-2.25.3-3.25,0-1.14.21-2.37-.15-3.31.48-.12.15,0,.3,0,.45,1.38.91,3.28.18,4.84.46H44.51a5.3,5.3,0,0,0,2.43-.46,8.81,8.81,0,0,0,3.16-4A6.2,6.2,0,0,0,50.73,55,2.61,2.61,0,0,1,53,53.16a13.77,13.77,0,0,1-.51,4.6c-.18,1-.81,1.91-.42,2.94.09.48.6.48,1,.55,3.64-.06,7.27-.21,11.12.06a9,9,0,0,0,2,.3c.06-.09.27-.12.18-.3a1.14,1.14,0,0,0-.72-.85c-.06-.18-.33-.12-.42-.24-1.92-1.09-4.24-.51-6.49-.48-1.17.12-2.34.33-3.34-.33-.45-.55-.12-2.27-.12-2.27a43.47,43.47,0,0,1,1.86-5.84,5.23,5.23,0,0,0,.18-1.39,5.86,5.86,0,0,0,.18-2.06A14,14,0,0,1,58.45,45c.18-.45.33-.94.51-1.39a4.52,4.52,0,0,1,.6-1.57c1,.62,1.94.6,2.41,1.72l.41,2.52c0,.15.12.45.33.27.78-.52.54-1.67.54-2.45.18-.94-.48-1.39-.75-2.21A3.62,3.62,0,0,1,62,41c-.12-.67-1.58-1.12-1.25-1.94a2.46,2.46,0,0,1,1-1.73.31.31,0,0,1,.15.21l.36-.25,0-2.53c1,0,2.43.12,3.42.12.27.09.48.3.78.33l.24-.33,2.44-.47c-1,.12-1.66-1.07-2.65-1.07Z" transform="translate(-23.61 -16.74)"/><path class="cls-1" d="M69.16,34.44l.22,0-.22,0Z" transform="translate(-23.61 -16.74)"/><path class="cls-1" d="M43,42.87a.67.67,0,0,1-.45.7c-.24-.09-.42-.12-.57-.36s.18-.58.42-.7c.24.06.54.09.6.36Z" transform="translate(-23.61 -16.74)"/><path class="cls-1" d="M41,42.87a.66.66,0,0,1,.12.7c-.21.18-.54.33-.72.09s-.36-.39-.21-.64.57-.39.81-.15Z" transform="translate(-23.61 -16.74)"/><path class="cls-1" d="M82.86,43.2l0,0" transform="translate(-23.61 -16.74)"/><path class="cls-1" d="M105.76,43.72c.12.33-.15.58-.39.7-.3-.09-.69-.15-.69-.55a.58.58,0,0,1,1.08-.15Z" transform="translate(-23.61 -16.74)"/><path class="cls-1" d="M107.36,43.66c.09.15.3.39.06.54a1.16,1.16,0,0,0-.3.24.58.58,0,0,1-.72-.36c-.06-.33.21-.48.45-.64s.36.09.51.21Z" transform="translate(-23.61 -16.74)"/><path class="cls-1" d="M33.48,44a.59.59,0,0,1-.81.39,1.25,1.25,0,0,1-.24-.39.56.56,0,0,1,.33-.52.72.72,0,0,1,.72.52Z" transform="translate(-23.61 -16.74)"/><path class="cls-1" d="M43.61,44.54c0,.24-.3.45-.51.57a.78.78,0,0,1-.66-.42.61.61,0,0,1,.36-.61.67.67,0,0,1,.81.45Z" transform="translate(-23.61 -16.74)"/><path class="cls-1" d="M41.83,44.32a.47.47,0,0,1,.09.48c-.18.15-.45.42-.75.24s-.39-.27-.33-.58a1.33,1.33,0,0,1,.45-.36c.24-.06.36.09.54.21Z" transform="translate(-23.61 -16.74)"/><path class="cls-1" d="M112,44.69a.8.8,0,0,1-.39.57.59.59,0,0,1-.66-.15c-.18-.06-.12-.3-.12-.45a1,1,0,0,1,.57-.39,1.1,1.1,0,0,1,.6.42Z" transform="translate(-23.61 -16.74)"/><path class="cls-1" d="M113.88,45a.75.75,0,0,1-.57.55c-.18,0-.51-.09-.45-.36a.54.54,0,0,1,.27-.48.53.53,0,0,1,.75.3Z" transform="translate(-23.61 -16.74)"/><path class="cls-1" d="M36.9,45.38a.59.59,0,0,1-.36.73c-.21.12-.42,0-.57-.15a.52.52,0,0,1-.15-.61c.06-.27.33-.21.51-.33a.74.74,0,0,1,.57.36Z" transform="translate(-23.61 -16.74)"/><path class="cls-1" d="M38.38,45.66c.09.24-.18.33-.24.51a.5.5,0,0,1-.54.06c-.21-.18-.45-.45-.24-.73.24-.45.87-.21,1,.15Z" transform="translate(-23.61 -16.74)"/><path class="cls-1" d="M110.18,45.5c0,.3-.24.51-.42.7a.52.52,0,0,1-.6-.36.63.63,0,0,1,.33-.58.66.66,0,0,1,.69.24Z" transform="translate(-23.61 -16.74)"/><path class="cls-1" d="M112.65,46c-.06.27,0,.58-.33.76a.86.86,0,0,1-.72-.12.55.55,0,0,1-.12-.64.71.71,0,0,1,.72-.36c.21.12.27.27.45.36Z" transform="translate(-23.61 -16.74)"/><path class="cls-1" d="M35.76,46.62c.12.24-.15.3-.24.42a.61.61,0,0,1-.6-.06c-.21-.12-.12-.42-.09-.57.27-.52.81-.15.93.21Z" transform="translate(-23.61 -16.74)"/><path class="cls-1" d="M110.75,47.2c.12,0,.06.21,0,.27a2.28,2.28,0,0,1-2.43-.12,9.39,9.39,0,0,0-1.2-.67c.15-.39.69-.36,1.08-.45.87.12,1.56.94,2.52,1Z" transform="translate(-23.61 -16.74)"/><path class="cls-1" d="M37.2,46.93c.06.24-.12.33-.18.51s-.36.12-.51.06a.5.5,0,1,1,.69-.58Z" transform="translate(-23.61 -16.74)"/><path class="cls-1" d="M39.85,47.11c.12.27-.06.51-.3.67s-.39-.06-.57-.09c-.15-.21-.42-.45-.15-.7.27-.45.81-.21,1,.12Z" transform="translate(-23.61 -16.74)"/><path class="cls-1" d="M74.6,48.39c-.06.6-1.06-.09-.91.72a4.61,4.61,0,0,0,.6,1.7c.28.4.14,1,.11,1.52a2.72,2.72,0,0,1-1.14,1c-.86-.09-2.11.43-2.51-.63a4.28,4.28,0,0,1-.49-1.44c.09-.06.2-.06.29-.14s-.23-.32-.2-.52c1-.17-.4-1,.43-1.09.68.72,1.8.49,2.4,1.27a2.64,2.64,0,0,0,.43.37c-.11-.72-.46-1.44-.57-2.21a1,1,0,0,1,.34-1c.51-.4.94.17,1.23.49Z" transform="translate(-23.61 -16.74)"/><path class="cls-1" d="M42.49,48.2c.09.3-.15.48-.33.64s-.42-.18-.54-.33c-.09-.3.12-.45.3-.61a.65.65,0,0,1,.57.3Z" transform="translate(-23.61 -16.74)"/><path class="cls-1" d="M61,48.5a4.15,4.15,0,0,1-.36,3.39c0,.24.06.64-.27.61-.81-1.12-.21-2.69.12-3.88.06-.3.42-.42.51-.12Z" transform="translate(-23.61 -16.74)"/><path class="cls-1" d="M86.77,49.08a3.41,3.41,0,0,1,.06,2.82l-.24.24A6.92,6.92,0,0,1,85.9,50a7.3,7.3,0,0,0,.36-1.6c.42-.09.39.45.51.7Z" transform="translate(-23.61 -16.74)"/><path class="cls-1" d="M44.84,49.41c-.18.36-.69.45-1,.7a3.58,3.58,0,0,1-2.67.52,3.27,3.27,0,0,1,3.43-1.42c.06.12.21.06.27.21Z" transform="translate(-23.61 -16.74)"/><path class="cls-1" d="M32.48,50.5c1.11.79,1.41,1.88,2.07,3,.09.12.39.15.27.39s-.48-.18-.81-.12a3.33,3.33,0,0,1-1.83-3.12c0-.12.18-.12.3-.12Z" transform="translate(-23.61 -16.74)"/><path class="cls-1" d="M85.6,51.44c0,.3,0,.61-.27.7a.55.55,0,0,1-.69-.36c-.09-.21.09-.33.15-.48a.53.53,0,0,1,.81.15Z" transform="translate(-23.61 -16.74)"/><path class="cls-1" d="M98.28,53a15.07,15.07,0,0,1,.21-1.66,1.1,1.1,0,0,0,.12-.64c.72-1,2.19-.67,3.34-.58a6.38,6.38,0,0,0,1.5.33,1.1,1.1,0,0,1,.75-.15c1-.52.33-1.63.39-2.51l-.36-.91a3.52,3.52,0,0,1-.24-.61c-.18-.21-.3-.61-.48-.82-.51-1.33-1.5-2.09-2.35-3.15a12.7,12.7,0,0,0-6.34-3.91c-2.37-.82-4.78.24-6.91,1a1.72,1.72,0,0,1-1.17-1.27A6,6,0,0,1,87.31,35a11.85,11.85,0,0,1,.81-2,21.6,21.6,0,0,0,1.23-5.21,2.73,2.73,0,0,0-1.62-2.39,1.64,1.64,0,0,0-1.65.33,4.39,4.39,0,0,1-2,1.76c-.06.51.57.18.78.36.66.12,1.41-.09,2,.33a5.14,5.14,0,0,1-1.26,3.12A24.05,24.05,0,0,0,82.86,36l-.12-.12.15,7.4c1,1.59,2.15,3.41,3.94,4,1,.79,2.16,1.72,3.46,1,.69-.21.75.76,1.08,1.15.36,1.12-.45,1.91-.51,2.94L90.07,54A21.66,21.66,0,0,1,87,59.16c-.45,0-.72.48-1.17.51-.24.33-.72.09-1,.21-.93.39-2.25.15-2.89,1a.41.41,0,0,0,.24.15c1.83,0,3.88.15,5.83.06a.73.73,0,0,0,.48-.58c-.27-.51.09-1,.33-1.36.15-.73.63-1.18.84-1.88.63-1.24,1.35-2.45,2-3.69l.93-1.51a10.67,10.67,0,0,1,.93-1.7,3.89,3.89,0,0,0,.54-.82c0-.3-.12-.42-.3-.64.21-.21.54-.15.81-.21a3.4,3.4,0,0,1,1.68,2l.27.79.12.36-.06,1,.12.94a21.61,21.61,0,0,1-.27,4.39c-.51,1.76-2.52,1.57-4,2-.36.24-1.05.12-1.05.73a26.91,26.91,0,0,0,5.65.12c.3-.12.36-.39.51-.67s.45-.73.33-1.15c-.33-.42,0-1.09-.12-1.67a.93.93,0,0,0,0-.58c.24-.88.18-1.94.36-2.79L98.28,53Z" transform="translate(-23.61 -16.74)"/><path class="cls-1" d="M113.07,51.86c-1,1.36-2,2.91-3.67,3.39-.12,0-.24.06-.3-.09,1-1.09,1.56-2.79,3.16-3.18a1,1,0,0,1,.81-.12Z" transform="translate(-23.61 -16.74)"/><path class="cls-1" d="M31,53.35c-.15.12,0,.39-.3.42a.48.48,0,0,1-.63-.27.54.54,0,0,1,.39-.67c.24.12.48.21.54.51Z" transform="translate(-23.61 -16.74)"/><path class="cls-1" d="M39.67,53.77c.09.27-.21.27-.36.33a3.27,3.27,0,0,1-3.46-.88c0-.12,0-.24.12-.27,1.23.3,2.68.06,3.7.82Z" transform="translate(-23.61 -16.74)"/><path class="cls-1" d="M32.66,53.38a.8.8,0,0,1,.06.45.67.67,0,0,1-.75.27,1,1,0,0,1-.39-.39.72.72,0,0,1,.51-.58.9.9,0,0,1,.57.24Z" transform="translate(-23.61 -16.74)"/><path class="cls-1" d="M60.83,53.53c.06.27-.18.45-.36.57a.59.59,0,0,1-.63-.24.44.44,0,0,1,.21-.58c.27-.06.69,0,.78.24Z" transform="translate(-23.61 -16.74)"/><path class="cls-1" d="M114.21,53.65c.09.3-.18.45-.39.64a.66.66,0,0,1-.57-.09c0-.15-.21-.27-.15-.48a.64.64,0,0,1,.69-.36,3.5,3.5,0,0,1,.42.3Z" transform="translate(-23.61 -16.74)"/><path class="cls-1" d="M116.2,53.53c.18.27,0,.48-.12.7a.41.41,0,0,1-.54.18c-.18-.18-.42-.27-.45-.55s.27-.42.45-.51.42.18.66.18Z" transform="translate(-23.61 -16.74)"/><path class="cls-1" d="M29.75,54.4c0,.21-.15.33-.21.51s-.3.18-.48.12a.88.88,0,0,1-.45-.48.79.79,0,0,1,.54-.61.77.77,0,0,1,.6.45Z" transform="translate(-23.61 -16.74)"/><path class="cls-1" d="M93,54.4a.87.87,0,0,1,0,.39c-.18.24-.42.45-.72.3s-.39-.36-.3-.64a.59.59,0,0,1,1-.06Z" transform="translate(-23.61 -16.74)"/><path class="cls-1" d="M34.59,54.86c-.06.21-.15.42-.42.45s-.36-.21-.51-.33c0-.27,0-.55.24-.7a.55.55,0,0,1,.69.58Z" transform="translate(-23.61 -16.74)"/><path class="cls-1" d="M31.7,54.92a.64.64,0,0,1-.3.67.71.71,0,0,1-.81-.42.86.86,0,0,1,.54-.7c.27,0,.42.3.57.45Z" transform="translate(-23.61 -16.74)"/><path class="cls-1" d="M95,54.86a.6.6,0,0,1-.33.73c-.36.12-.66-.18-.81-.42.15-.24.18-.58.54-.64a.69.69,0,0,1,.6.33Z" transform="translate(-23.61 -16.74)"/><path class="cls-1" d="M33.12,55c.09.21-.09.3-.15.45-.15,0-.24.18-.42.12s-.36-.21-.39-.42.18-.45.39-.58a.55.55,0,0,1,.57.42Z" transform="translate(-23.61 -16.74)"/><path class="cls-1" d="M112.56,55.22a.9.9,0,0,1-.51.48c-.24.06-.39-.15-.57-.24s-.09-.39,0-.54a.6.6,0,0,1,1.11.3Z" transform="translate(-23.61 -16.74)"/><path class="cls-1" d="M114.84,55.34a.78.78,0,0,1-.72.51c-.27-.12-.57-.33-.36-.7.12-.12.18-.24.36-.27a.58.58,0,0,1,.72.45Z" transform="translate(-23.61 -16.74)"/><path class="cls-1" d="M100.56,55.56c.15.39-.21.51-.45.7a1.37,1.37,0,0,1-.57-.24.7.7,0,0,1,.42-.79.73.73,0,0,1,.6.33Z" transform="translate(-23.61 -16.74)"/><path class="cls-1" d="M92.3,55.92c.15.06.09.27.06.36s-.42.42-.69.24a.51.51,0,0,1-.3-.57.56.56,0,0,1,.93,0Z" transform="translate(-23.61 -16.74)"/><path class="cls-1" d="M94,56.13a.41.41,0,0,1-.24.48c-.21.21-.45,0-.66-.09a.49.49,0,0,1,0-.45.67.67,0,0,1,.39-.24c.21.06.45.06.54.3Z" transform="translate(-23.61 -16.74)"/><path class="cls-1" d="M43,56.16c.18.18,0,.39-.06.58a.59.59,0,0,1-.75.15c-.3-.12-.27-.52-.21-.76.18-.06.18-.27.42-.27a1,1,0,0,1,.6.3Z" transform="translate(-23.61 -16.74)"/><path class="cls-1" d="M103.78,56.28c.06.3-.24.42-.45.48-.36.12-.54-.15-.69-.39s.18-.3.24-.45c.42-.18.69.12.9.36Z" transform="translate(-23.61 -16.74)"/><path class="cls-1" d="M102.16,56.28c.12.3-.21.45-.33.61a.6.6,0,0,1-.66-.12c-.15-.09-.15-.27-.15-.45.18-.15.27-.33.48-.39a.78.78,0,0,1,.66.36Z" transform="translate(-23.61 -16.74)"/><path class="cls-1" d="M115.71,56.64c.06.42-.48.21-.69.33-1.26.76-2.89.18-4.09-.27.09-.39.54-.24.78-.39,1.29-.82,2.61.18,3.91.24l.09.09Z" transform="translate(-23.61 -16.74)"/><path class="cls-1" d="M33.45,56.28l-.12.21a4.87,4.87,0,0,1-3.88.7L29.33,57a5.44,5.44,0,0,1,4-.82l.09.09Z" transform="translate(-23.61 -16.74)"/><path class="cls-1" d="M106.85,56.49a.69.69,0,0,1-.3.57.6.6,0,0,1-.78-.33c-.09-.24.15-.48.39-.58s.57,0,.69.33Z" transform="translate(-23.61 -16.74)"/><path class="cls-1" d="M38.83,56.62c-.12.24-.06.48-.36.61a.65.65,0,0,1-.75-.39c-.09-.33.15-.42.3-.57.36-.18.63.09.81.36Z" transform="translate(-23.61 -16.74)"/><path class="cls-1" d="M36.69,56.77c.09.21-.09.33-.15.48a.55.55,0,0,1-.6.09c-.21-.18-.42-.39-.33-.73a1.71,1.71,0,0,1,.48-.33.68.68,0,0,1,.6.48Z" transform="translate(-23.61 -16.74)"/><path class="cls-1" d="M109,57.46a.65.65,0,0,1-.48.55.68.68,0,0,1-.57-.3.47.47,0,0,1,.12-.58c.06-.09.27-.09.39-.15a.65.65,0,0,1,.54.48Z" transform="translate(-23.61 -16.74)"/><path class="cls-1" d="M34.47,57.13c.09.24-.12.33-.15.51a4.43,4.43,0,0,1-.66,1.3c-.57.7-1.38.7-2.19.91l-.12-.24a7.9,7.9,0,0,1,3-2.54l.09.06Z" transform="translate(-23.61 -16.74)"/><path class="cls-1" d="M107.45,57.8c.06.36-.24.42-.45.57a.68.68,0,0,1-.6-.36c-.09-.33.21-.45.39-.61a.6.6,0,0,1,.66.39Z" transform="translate(-23.61 -16.74)"/><path class="cls-1" d="M37.92,57.8c0,.06,0,.12.09.15,0,.33-.27.42-.45.58a.81.81,0,0,1-.66-.3.5.5,0,0,1,.3-.7c.27,0,.63,0,.72.27Z" transform="translate(-23.61 -16.74)"/><path class="cls-1" d="M113,58.7c.3,0,.36-.39.69-.45a.73.73,0,0,1,.72.33c.12.36-.15.54-.39.7s-.66-.18-.63.21a.94.94,0,0,1,.42.61c-.06.12-.27.09-.36,0a3.8,3.8,0,0,1-2.16-1.88c-.12-.27-.69-.48-.36-.73A2.78,2.78,0,0,1,113,58.7Z" transform="translate(-23.61 -16.74)"/><path class="cls-1" d="M115.86,57.77a.46.46,0,0,1,0,.58c-.15.3-.6.18-.87.15s-.3-.3-.24-.55a1,1,0,0,1,.45-.39.83.83,0,0,1,.69.21Z" transform="translate(-23.61 -16.74)"/><path class="cls-1" d="M105,59.4a4.35,4.35,0,0,1,.66,1.21c-.06.09-.21.06-.27.06-1-.58-2.34-1.21-2.74-2.42-.09-.12-.33-.27-.3-.48a2.8,2.8,0,0,1,2.07.85c.21.3.45.45.57.79Z" transform="translate(-23.61 -16.74)"/><path class="cls-1" d="M36.24,58.25c.12.27-.12.48-.27.61a.69.69,0,0,1-.69-.24c-.21-.33.18-.61.42-.73s.39.21.54.36Z" transform="translate(-23.61 -16.74)"/><path class="cls-1" d="M108.71,58.95c0,.18-.21.3-.3.42s-.48.12-.69-.09c-.06-.15-.21-.39,0-.54.33-.42.81-.09,1,.21Z" transform="translate(-23.61 -16.74)"/><path class="cls-1" d="M116.2,59.37a.71.71,0,0,1-.42.76.79.79,0,0,1-.72-.27c-.15-.18,0-.36,0-.57a.75.75,0,0,1,.78-.21,1.61,1.61,0,0,1,.36.3Z" transform="translate(-23.61 -16.74)"/><path class="cls-1" d="M95.39,63.55c0,.36-.66.27-.93.55a6.44,6.44,0,0,1-3.16.45v-.18a4.46,4.46,0,0,1,4.09-.82Z" transform="translate(-23.61 -16.74)"/><path class="cls-1" d="M51.54,64.85a.5.5,0,0,1-1,.21c-.12-.36.18-.51.39-.67a.7.7,0,0,1,.57.45Z" transform="translate(-23.61 -16.74)"/><path class="cls-1" d="M94.88,65.18a.86.86,0,0,1-.45.7c-.27.06-.45-.09-.66-.21s-.06-.33-.09-.48a.65.65,0,0,1,1.2,0Z" transform="translate(-23.61 -16.74)"/><path class="cls-1" d="M100.87,65.3a4.93,4.93,0,0,1-2.59,1.06l-1.62,0-.15-.12c1-1.21,2.8-1.21,4.36-1.09v.18Z" transform="translate(-23.61 -16.74)"/><path class="cls-1" d="M43.3,66a.56.56,0,0,1-.39.58.52.52,0,0,1-.39-1c.33-.21.66.15.78.39Z" transform="translate(-23.61 -16.74)"/><path class="cls-1" d="M44.81,66.33c.09.15-.06.24-.12.39a.49.49,0,0,1-.57,0,.38.38,0,0,1-.18-.52c.09-.18.27-.15.36-.27a.85.85,0,0,1,.51.39Z" transform="translate(-23.61 -16.74)"/><path class="cls-1" d="M33.3,69.39c-.3.36-.78-.09-1.11-.27-1.05-.6-1-1.79-2.07-2.48.12-.36.39,0,.6,0a4,4,0,0,0,.63.33c1,.58,1.26,1.54,2,2.45Z" transform="translate(-23.61 -16.74)"/><path class="cls-1" d="M120.91,57.64a2.39,2.39,0,0,0-2.25-1.24A2.07,2.07,0,0,0,117,57.64a1.53,1.53,0,0,0,.57,1.67.46.46,0,0,0,.6-.15c.15-.39-.27-.39-.33-.7a1,1,0,0,1,.33-1.06c.3-.3.81-.15,1.17-.15a2.11,2.11,0,0,1,.9.88,2.44,2.44,0,0,1,0,1.6,2.69,2.69,0,0,1-1.86,1.51c-2.49.36-29.88.24-29.88.24-3.22.3-6.88-.61-9.65,1.09a4.77,4.77,0,0,0-2.22,3.24,22,22,0,0,0-2.35,2.39l-.09-.09c.15-.73.48-1.36.63-2.09a12.49,12.49,0,0,0,.78-2.09,16.64,16.64,0,0,1,4-5c.75-1,2.07-.82,3.22-.82A8,8,0,0,0,87,58.7a.28.28,0,0,0,.09-.21c-.42-.39-1.11-.55-1.59-.94-1.2-.58-2.35.18-3.61.09-.06-.06-.12-.09-.09-.18a17.77,17.77,0,0,1,3.73-2,25.54,25.54,0,0,1,3.28-1.3c.45,0,.87-.39,1.29-.12l1.59-.42c.06,0,.12.12.24.09,1.35-.45,3.07,0,4.6-.06l.21.18,1.44.36c.54.06.78.7,1.35.73.3-.42-.33-.61-.48-.88a3.3,3.3,0,0,1,2,.3l-.3.33c-.18.33.09.58.36.7s.36-.09.51-.15c.39-.27,0-.55.09-.79a28.69,28.69,0,0,1,6.4,1.82,5.13,5.13,0,0,0,1.74.57,7.91,7.91,0,0,0-2.28-1.21c-.51-.3-1.23-.33-1.62-.76.09-.15.3-.09.39-.21A4.46,4.46,0,0,0,109,53c.06-.18.39-.12.36-.36-.27-.3-.72.09-1.08.06-1.26.24-1.8,1.72-3.07,2-1.53-.36-3.1-.73-4.63-1.12A9.35,9.35,0,0,1,98.28,53l-1.68-.15H93.53c0-.06-.12-.09-.09-.18,1.08-.27,2-.91,3.1-1.18l8.06-3.69a19.8,19.8,0,0,0,2.28-2.48.57.57,0,0,0-.33-.58.5.5,0,0,0-.6.12c-.36.27,0,.61,0,.94A5.08,5.08,0,0,1,104.56,47c-.12,0-8.3,3.72-8.3,3.72A20.67,20.67,0,0,1,92.6,52.1l-1.74.27a1.15,1.15,0,0,1-.75.7,7.17,7.17,0,0,1-1.38.39c-3.91,1.51-8,3.12-11.06,6.21A3.42,3.42,0,0,0,78,58.4a2.51,2.51,0,0,0-.33-1.33c-.07-.17-.29-.65-.22-.83l-.44.28a4.21,4.21,0,0,0-.24,2.57c.09.54.54,1.18.12,1.66a27.86,27.86,0,0,0-3.22,5.87c-.36-.06-.54-.39-.69-.73a10.09,10.09,0,0,0,2.13-4.42c.21-.15.06-.55.27-.73-.06-.48.27-1,0-1.36.19-.66-.88-1.27-.19-1.69l-.57.27c-1.29,1.7.67,4.24-.8,5.87V64a5.16,5.16,0,0,1-1.2,1.45c-.72-.3-1-1.12-1.41-1.73a2.69,2.69,0,0,1-.27-2.82c.27-.88-.18-1.63-.27-2.42l-.3-.18a3.5,3.5,0,0,0-.42,3.54c.3.55.33,1.3.78,1.76A9.78,9.78,0,0,0,72,65.82c.12.3-.18.36-.33.51-.33-.21-.27-.7-.57-.91a22,22,0,0,0-3.85-5.54c-.06-.27-.33-.51-.18-.82a2.22,2.22,0,0,0,.39-2.3c-.06-.15-.24-.33-.21-.48l-.45-.36c.06,1.06-.63,2-.33,3.12v.06a57.2,57.2,0,0,0-10-6l-.28.77a20.78,20.78,0,0,1,3.22,1.64,20.7,20.7,0,0,1,3,1.6c4.09,2.27,6.79,6,8.63,10.2,0,.33.33.7.12,1A16.5,16.5,0,0,0,68.88,66a4.41,4.41,0,0,0-2.28-3.36c-.45-.67-1.41-.73-2.16-.94l-10.94-.06c-8.9-.12-17,.27-25.85.12-1.23-.12-2.74-.54-3.1-1.85a2,2,0,0,1,0-1.66,1.84,1.84,0,0,1,1.53-.82,1.61,1.61,0,0,1,1,.85c0,.39-.33.76-.48,1.09,0,.12.15.36.36.27a1.41,1.41,0,0,0,.78-1c0-.21.12-.51-.09-.67a2,2,0,0,0-1.41-1.24A2.36,2.36,0,0,0,23.74,60,4.06,4.06,0,0,0,27,62.43l29.25.12c2.86.15,6.07-.33,9,.24a3.46,3.46,0,0,1,2.43,2.3c0,.06-.12,0-.21,0a13,13,0,0,0-8.54-1.76,10.44,10.44,0,0,0-3.37.7A1.71,1.71,0,0,1,54,63.58c-1.08-1-3-.91-4.36-.55,0,.09,0,.18,0,.21,1.47-.12,2.34,1.15,3.67,1.3.3.06.54-.27.81,0A27.16,27.16,0,0,1,50,66.39c-.45-.09-.69-.51-1.05-.76-.57-.64-1.62-.36-2.4-.42-.27.06-.51-.12-.69,0a2.56,2.56,0,0,0,1.29,1c.75.33,1.62,0,2.31.42a2.89,2.89,0,0,1-.63.42c-1.41.55-2.59,1.82-4.15,1.73a5.36,5.36,0,0,1-4.45-1.45,3,3,0,0,0-3-1.76c-.09.06-.21.06-.18.21.66.39,1.17,1.18,1.83,1.64.42.51,1.23,0,1.62.57a5.36,5.36,0,0,0,2,.85,8.52,8.52,0,0,0,1.56.42l-.21.12a25.74,25.74,0,0,1-9,.88c-.9,0-1.77-.3-2.68-.27a1.7,1.7,0,0,0,.72.42,1.83,1.83,0,0,1-.81.24,5.36,5.36,0,0,0-1.14.3,3,3,0,0,0-1.29.3,6.12,6.12,0,0,1-1.71,1.39c0,.12,0,.3.12.3.57-.24,1.29-.06,1.86-.3,1-.09,1.56-1.18,2.35-1.63a4,4,0,0,1,3.07-.36c.6.15-.06.39.12.79.24.21.45.45.78.36a.53.53,0,0,1,.21-.15.69.69,0,0,0,0-.76c.42-.27,1,0,1.44-.15,1.14,0,2.28-.27,3.4-.3.18,0,.39-.21.57,0-.09.24-.39.27-.27.61s.36.39.6.45c.3-.12.57-.33.45-.73-.06-.21-.3-.24-.45-.33.63-.3,1.35-.39,2-.7a5.63,5.63,0,0,0,1.26-.42c.39,0,.72-.39,1.08-.24a6.24,6.24,0,0,1-.63,1.45c-.48,1.6-.84,3.72,0,5.27.09,0,.12,0,.18-.06a7.23,7.23,0,0,1,.27-5c.42-2.57,3.07-3.33,5-4.3l.09.12c-.51,1.33-1.26,2.6-1.14,4.21.06.27-.12.54,0,.73a3.18,3.18,0,0,0,1.11-1.39c.21-1.36-.57-3.06.81-4.06,2.46-1,4.78-2.24,7.63-2.27.09.09.3-.06.33.12-.6.67-1.47,1.3-1.74,2.12-1,1.33-.93,3.6-.51,5.24.27.94-.54,1.45-.93,2.18-.19.26-.24.7-.41,1l.59.07a3.22,3.22,0,0,0,1-2,.83.83,0,0,0,.57.61c.21-.33-.18-.58-.21-.91.48-.27.69.33,1.08.45a7.66,7.66,0,0,0,1.83.42l.21-.21c-.66-1-2-1.21-3.13-1.27A6.06,6.06,0,0,1,58,68.15a5.3,5.3,0,0,1,.6-1.88,4.52,4.52,0,0,1,.84-1.15,4.18,4.18,0,0,1,1.89-1h.09a.13.13,0,0,0,0,.09c-.81.64-.9,1.51-1.38,2.3a2.53,2.53,0,0,0-.27,2.63c.18.39.09,1,.51,1.27a6.7,6.7,0,0,0,.63-1.85c-.09-1-.69-1.94-.12-2.91a2.48,2.48,0,0,1,1.62-1.33c1.65-.15,3.1.7,4.54,1.33.3.21.81.39.87.82a2.46,2.46,0,0,1-3.85,2,2.08,2.08,0,0,1-.48-1.85,1.24,1.24,0,0,1,1.32-.48c.3.15.57.45,1,.27a.38.38,0,0,0,.12-.48c-.33-.18-.45-.64-.9-.7a2,2,0,0,0-1.65.33,2.13,2.13,0,0,0-.69,2.12,2.59,2.59,0,0,0,1.86,1.94,3.49,3.49,0,0,0,3.7-1.27,4.11,4.11,0,0,0,.66-1.3A7.85,7.85,0,0,1,72,71a6.41,6.41,0,0,1,0,1.51l1.05.09a1,1,0,0,1,.09-.73,9.12,9.12,0,0,1,3.1-5c.51-.3.39.39.51.61a4,4,0,0,0,2.62,2.3,3.3,3.3,0,0,0,3.25-1.06c.39-.73.87-1.79.21-2.54a2.07,2.07,0,0,0-1.65-.79,2,2,0,0,0-1.65,1.12c0,.24,0,.51.18.64s.36,0,.45-.15c.06-.45.45-.67.81-.91a.94.94,0,0,1,1,.18,1.58,1.58,0,0,1,.42,1.18,1.82,1.82,0,0,1-1,1.42,3.05,3.05,0,0,1-2.89-.27,6.65,6.65,0,0,1-.84-1.33,2.2,2.2,0,0,1,0-1.39,10.16,10.16,0,0,1,4.3-1.51,3.06,3.06,0,0,1,1.59,1c1.38,1.42-.3,3.45.66,5,.36-.06.36-.54.51-.85.45-1.09-.12-2.27-.39-3.33a6.23,6.23,0,0,0-1.14-1.79.76.76,0,0,1,.36-.06A7.46,7.46,0,0,1,85.36,66a8.14,8.14,0,0,1,1.17,5c-.24.91-1.2,1.33-2,1.66a2.81,2.81,0,0,0-.81,1c.36.21.87,0,1.23-.15.57-.21.9-.94,1.29-1.27.06,0,0,.12.06.18,0,.33-.15.79.15.88a10.78,10.78,0,0,0,.27-1.54,3,3,0,0,1,.57,1.51c.27.55.72,1.27,1.44,1.36.18-.27,0-.55-.09-.79-.09-.76-.72-1.15-1.14-1.7-1.05-1.45-.57-3.72-1.38-5.36a6.36,6.36,0,0,0-1.62-2.24l.12-.12a17.79,17.79,0,0,1,4.06.73c1.65.82,4.06.64,4.84,2.79a8,8,0,0,0,1.71,3.27l.09-.06a1.23,1.23,0,0,0,0-1.12c-.18-1.51-1.5-1.88-2.2-3.15l.09-.12a20.35,20.35,0,0,1,2.19.7,6.47,6.47,0,0,1,4.39,5.48A11.85,11.85,0,0,1,98.73,78c-.09.24-.51.52-.24.73.33-.24.39-.64.57-.91a8.43,8.43,0,0,0,1-6.08c0-.39-.48-.7-.27-1.09a1,1,0,0,0,.51.27c.18-.12.45-.12.57-.33s.15-.39,0-.55a.83.83,0,0,0-.87-.21,1.45,1.45,0,0,0-.36.67,6.24,6.24,0,0,0-1.08-1.6l.06-.09c1.35.45,2.58,1.12,4,1.48a2,2,0,0,0,1.05.33,30.15,30.15,0,0,0,3.7.94c.9-.09,1.65.33,2.56.12v-.06l0,0c-.33-.42-1.05,0-1.44-.33a22.68,22.68,0,0,1-5.92-1.48c0-.09.15-.06.24-.06a.78.78,0,0,0,.48-.76.81.81,0,0,0-.69-.33.85.85,0,0,0-.45.51.75.75,0,0,0,.45.58c-.06.06-.18,0-.27,0-.93-.42-1.83-.82-2.74-1.24-.33-.06-.6-.33-.93-.39-.69-.33-1.38-.67-2.07-.94A47.47,47.47,0,0,0,90.41,65l-1.29-.36c-.75-.21-1.5-.39-2.25-.61-2.55-.64-6-.7-8.21.7-.36-.12-.57.45-.75.09.63-1.67,2.47-2.21,4.12-2.27,12.05-.12,23.36-.21,35.23-.39a3.8,3.8,0,0,0,3.46-1.73,3,3,0,0,0,.21-2.79ZM73.12,68.82a2.73,2.73,0,0,0-.33,1.06l-.12.06c.09-.45-.36-.73-.24-1.21-.24-.36-.24-.82-.45-1.21s.24-.7.45-1c.42.18.57.58.87.94.18.51-.21.91-.18,1.39Z" transform="translate(-23.61 -16.74)"/><path class="cls-1" d="M105.73,66.91c0,.09.18.12.12.27a6.28,6.28,0,0,1-4,1.27c-.12,0-.24.12-.39.09s-.12-.15-.06-.21a4.59,4.59,0,0,1,4.36-1.42Z" transform="translate(-23.61 -16.74)"/><path class="cls-1" d="M100.9,67.39c.12.42-.15.67-.48.82a.86.86,0,0,1-.66-.48c-.09-.24.12-.36.21-.51a.57.57,0,0,1,.93.18Z" transform="translate(-23.61 -16.74)"/><path class="cls-1" d="M43.76,67.45a.62.62,0,0,1-.15.64.61.61,0,0,1-.54.15c-.21,0-.33-.27-.39-.45a.65.65,0,0,1,.39-.58c.24,0,.51,0,.69.24Z" transform="translate(-23.61 -16.74)"/><path class="cls-1" d="M38.38,69.42v.21a2.34,2.34,0,0,1-2-.45,4,4,0,0,0-1.59-1.51c0-.09-.18-.21,0-.27,1.5,0,2.4,1.21,3.55,2Z" transform="translate(-23.61 -16.74)"/><path class="cls-1" d="M110.3,67.42c-.69,1-1.29,2.3-2.52,2.75-.21,0-.39.3-.57.09a5.54,5.54,0,0,1,2.68-2.88,1,1,0,0,1,.42,0Z" transform="translate(-23.61 -16.74)"/><path class="cls-1" d="M45.5,67.79c0,.33-.21.39-.42.58-.24,0-.36-.15-.51-.33s.15-.42.3-.58a.63.63,0,0,1,.63.33Z" transform="translate(-23.61 -16.74)"/><path class="cls-1" d="M114.09,68c-.27.39-.15,1-.42,1.39-.6.7-1.11,1.48-2.07,1.63-.15-.3.21-.6.36-.88a4.33,4.33,0,0,1,2-2.33l.15.18Z" transform="translate(-23.61 -16.74)"/><path class="cls-1" d="M29.06,68.24a.6.6,0,0,1,0,.67.71.71,0,0,1-.69.12.56.56,0,0,1-.24-.73c.18-.27.72-.42.93-.06Z" transform="translate(-23.61 -16.74)"/><path class="cls-1" d="M27.34,68.6c0,.15.12.27.09.42a.71.71,0,0,1-.42.36.63.63,0,0,1-.69-.39.59.59,0,0,1,.3-.64.61.61,0,0,1,.72.24Z" transform="translate(-23.61 -16.74)"/><path class="cls-1" d="M30.89,68.78c.06.24.12.67-.24.73s-.66-.12-.9-.36a.69.69,0,0,1,.36-.61.83.83,0,0,1,.78.24Z" transform="translate(-23.61 -16.74)"/><path class="cls-1" d="M35.82,69.18c0,.21,0,.52-.21.58s-.42.09-.57.06c-.06-.18-.39-.33-.21-.55a1.13,1.13,0,0,1,.42-.33c.18.09.45,0,.57.24Z" transform="translate(-23.61 -16.74)"/><path class="cls-1" d="M117,69.39c-.09.21-.21.48-.45.48s-.54-.06-.69-.33.15-.51.39-.6.69.12.75.45Z" transform="translate(-23.61 -16.74)"/><path class="cls-1" d="M111.48,69.54c0,.24-.24.42-.36.52a.73.73,0,0,1-.93-.45.78.78,0,0,1,.51-.54.79.79,0,0,1,.78.48Z" transform="translate(-23.61 -16.74)"/><path class="cls-1" d="M115.2,69.48a.63.63,0,0,1-.27.51.7.7,0,0,1-.72-.12c-.27-.24-.06-.45.12-.64s.78-.12.87.24Z" transform="translate(-23.61 -16.74)"/><path class="cls-1" d="M28.28,70a.64.64,0,0,1-.36.76.69.69,0,0,1-.66-.42.57.57,0,0,1,.3-.64.69.69,0,0,1,.72.3Z" transform="translate(-23.61 -16.74)"/><path class="cls-1" d="M110,70.33a.67.67,0,0,1-.42.79c-.24.06-.39-.06-.57-.21s-.27-.48,0-.64a.59.59,0,0,1,1,.06Z" transform="translate(-23.61 -16.74)"/><path class="cls-1" d="M44.45,70.66c.12.33-.24.39-.33.57s-.36.09-.45,0-.33-.36-.24-.64c.15-.12.21-.24.39-.3.33-.09.45.21.63.39Z" transform="translate(-23.61 -16.74)"/><path class="cls-1" d="M116.43,70.87c.06.21-.12.3-.15.45a.81.81,0,0,1-.69.12c-.27-.15-.27-.39-.27-.67.18-.12.21-.27.42-.33a.69.69,0,0,1,.69.42Z" transform="translate(-23.61 -16.74)"/><path class="cls-1" d="M114.57,71c.12.36-.21.54-.45.64s-.3-.06-.33.12a7.94,7.94,0,0,1,1.86,1.6v.24a4.06,4.06,0,0,1-3-1.15c-.21-.15-.57-.15-.81-.36.39-.39,1.11-.24,1.65-.27.39-.42-.45-.73.06-1.09.18,0,.3-.21.54-.15a1,1,0,0,1,.45.42Z" transform="translate(-23.61 -16.74)"/><path class="cls-1" d="M102.28,71c.06.15-.12.33-.15.48a.6.6,0,0,1-.66.12c-.15-.21-.39-.39-.3-.7a.62.62,0,0,1,1.11.09Z" transform="translate(-23.61 -16.74)"/><path class="cls-1" d="M35.07,72.05c-.09.27-.21.45-.51.48a.59.59,0,0,1-.54-.36c0-.21.12-.33.15-.48.33-.27.93-.09.9.36Z" transform="translate(-23.61 -16.74)"/><path class="cls-1" d="M37.5,71.66c0,.42-.45.67-.6,1.09a3.07,3.07,0,0,1-2.4,2c-.12-.27.39-.61.51-.88a6.25,6.25,0,0,1,2.31-2.21Z" transform="translate(-23.61 -16.74)"/><path class="cls-1" d="M101.56,72.08c0,.33-.27.58-.51.7s-.48-.12-.63-.24-.09-.48,0-.73c.36-.36.87-.06,1.11.27Z" transform="translate(-23.61 -16.74)"/><path class="cls-1" d="M103.42,72.3a.75.75,0,0,1-.54.67c-.06-.09-.21,0-.3-.06a.67.67,0,0,1-.39-.54c.15-.15.21-.39.42-.42s.72,0,.81.36Z" transform="translate(-23.61 -16.74)"/><path class="cls-1" d="M42.16,72.27a.65.65,0,0,1-.45.64.59.59,0,0,1-.57-.36c-.06-.27.21-.45.36-.6.36-.12.45.15.66.33Z" transform="translate(-23.61 -16.74)"/><path class="cls-1" d="M44.24,72.39a.72.72,0,0,1-.57.51c-.21-.06-.45-.12-.54-.36s.21-.45.42-.6a.63.63,0,0,1,.69.45Z" transform="translate(-23.61 -16.74)"/><path class="cls-1" d="M109.88,74.51c.15.12.42.27.36.48-.48.21-.87-.33-1.32-.42a6.21,6.21,0,0,1-1.56-2.42c.27-.27.57.06.81.15a5.93,5.93,0,0,1,1.71,2.21Z" transform="translate(-23.61 -16.74)"/><path class="cls-1" d="M111,72.39a.75.75,0,0,1-.06.67c-.18.3-.57.24-.84.18s-.42-.42-.24-.7.36-.3.57-.39.36.15.57.24Z" transform="translate(-23.61 -16.74)"/><path class="cls-1" d="M47,73.17c0,.24.09.61-.21.76a.58.58,0,0,1-.72-.36c-.15-.36.18-.42.36-.6s.39.06.57.21Z" transform="translate(-23.61 -16.74)"/><path class="cls-1" d="M103.33,75.14a4.43,4.43,0,0,1,.78,2.15c-.09.21.15.42,0,.57H104c-1.35-1-1.65-2.33-2.16-3.69a.25.25,0,0,1-.12-.3c.3-.27.51.27.81.36l.84.91Z" transform="translate(-23.61 -16.74)"/><path class="cls-1" d="M50.91,74.11s0,.06,0,.06a4,4,0,0,1-4.27.54.23.23,0,0,1,.15-.27,6.21,6.21,0,0,1,2.65-.58l1.44.24Z" transform="translate(-23.61 -16.74)"/><path class="cls-1" d="M44.06,74.26c-1,.64-2,1.88-3.22,2.18-.24.09-.39.42-.69.24A4.44,4.44,0,0,1,44.06,74v.24Z" transform="translate(-23.61 -16.74)"/><path class="cls-1" d="M101.56,75.63c.09.24,0,.58-.24.64a.42.42,0,0,1-.57,0c-.27-.12-.27-.39-.27-.61s.3-.24.45-.33c.27.06.48.06.63.3Z" transform="translate(-23.61 -16.74)"/><path class="cls-1" d="M99.06,75.78a1.69,1.69,0,0,1-1.08.79c-1,.36-2-.12-2.86-.36,0-.24.33-.15.48-.3a6.54,6.54,0,0,1,3.07-.15.32.32,0,0,1,.39,0Z" transform="translate(-23.61 -16.74)"/><path class="cls-1" d="M44.06,76.66c-.09.12-.12.39-.36.48a.63.63,0,0,1-.6-.12c-.06-.18-.27-.33-.12-.55s.3-.27.48-.33a.64.64,0,0,1,.6.51Z" transform="translate(-23.61 -16.74)"/><path class="cls-1" d="M45.83,76.93a1.11,1.11,0,0,1-.42.58.66.66,0,0,1-.6-.21.72.72,0,0,1-.09-.61c.06-.15.27-.18.42-.27s.57.27.69.52Z" transform="translate(-23.61 -16.74)"/><path class="cls-1" d="M101,77.23a.8.8,0,0,1-.21.58.51.51,0,0,1-.66.12c-.21,0-.27-.27-.36-.42s.12-.39.21-.61a.65.65,0,0,1,1,.33Z" transform="translate(-23.61 -16.74)"/><path class="cls-1" d="M102.31,77.17c0,.15.12.3.06.42s-.3.54-.66.39c-.18.06-.27-.18-.36-.24a.58.58,0,0,1,.36-.82c.27-.09.45.15.6.24Z" transform="translate(-23.61 -16.74)"/><path class="cls-1" d="M44.75,78a.82.82,0,0,1-.3.82c-.33.06-.75.06-.87-.33a.81.81,0,0,1,.36-.88.73.73,0,0,1,.81.39Z" transform="translate(-23.61 -16.74)"/><path class="cls-1" d="M46.46,77.93a2.77,2.77,0,0,1-1.08,2.36c-.48.09-1,.55-1.44.24v-.15a32.15,32.15,0,0,1,2.52-2.45Z" transform="translate(-23.61 -16.74)"/><path class="cls-1" d="M96.27,78.62c.12.18-.09.33-.18.49s-.51.12-.72,0-.24-.39-.15-.61a.61.61,0,0,1,.39-.33c.27,0,.51.21.66.42Z" transform="translate(-23.61 -16.74)"/><path class="cls-1" d="M49.47,80c.42.7.18,1.64.42,2.39-.51.06-.72-.51-1.05-.82-.66-.91-.57-2.12-.87-3.18a.16.16,0,0,1,.21-.06,7.66,7.66,0,0,1,1.14,1.27c-.06.21.18.21.15.39Z" transform="translate(-23.61 -16.74)"/><path class="cls-1" d="M97.77,78.87c0,.24-.27.3-.42.45a1.1,1.1,0,0,1-.57-.27c-.09-.3.15-.39.3-.54a.5.5,0,0,1,.69.36Z" transform="translate(-23.61 -16.74)"/><path class="cls-1" d="M101.35,81.56c0,.09,0,.27-.18.21H101c-.87-.79-1.74-1.66-1.62-2.88l.18,0a3.79,3.79,0,0,1,1.74,2.69Z" transform="translate(-23.61 -16.74)"/><path class="cls-1" d="M99.09,80.59a.7.7,0,0,1-.27.57c-.33.09-.84.06-.9-.39,0-.3.3-.45.45-.61a.62.62,0,0,1,.72.42Z" transform="translate(-23.61 -16.74)"/><path class="cls-1" d="M97.11,81.23c-.42,1.12-1.56,1.7-2.34,2.54-.15-.09-.09-.33-.06-.45A4.19,4.19,0,0,1,97,80.59c.48.06,0,.39.09.64Z" transform="translate(-23.61 -16.74)"/><path class="cls-1" d="M99.36,82.14c0,.27-.27.39-.42.55a.88.88,0,0,1-.66-.33c0-.3.21-.39.39-.54a.63.63,0,0,1,.69.33Z" transform="translate(-23.61 -16.74)"/><path class="cls-1" d="M77,27.17a.75.75,0,0,1,0,1.5H68.08a.75.75,0,0,1,0-1.5Zm-6.3,1.29c.87,0,0-1.06-.42-1.06H69.4c-.87,0,0,1.06.42,1.06Zm3.65,0c.87,0,0-1.06-.42-1.06h-.87c-.87,0,0,1.06.42,1.06ZM77,27.41h-.33c-.87,0-.13,1.06.34,1.06s.62-1.06,0-1.06Z" transform="translate(-23.61 -16.74)"/><path class="cls-1" d="M76.21,37.4l1.7.65,1.67-.65-.66,2.51,1.33-.27-.45,1.52.45,1.46-1.18-.32.51,2.7-1.67-.65-1.7.65.69-2.7-1.36.38.36-1.52-.36-1.46,1.3.21-.63-2.51Zm2.51,4.52c.38,0,.42-.53.42-1,0-1-.82,0-1.24-1-.31.82-1.15.06-1.15.94,0,.61,0,1,.6,1ZM77.06,41c0,.39.53.13.92.13s.92.26.92-.13c0-.56-.53-.36-.92-.36s-.92-.19-.92.36Z" transform="translate(-23.61 -16.74)"/><polygon class="cls-1" points="48.62 24.34 48.62 24.03 48.34 23.97 48.56 23.74 48.42 23.48 48.71 23.52 48.89 23.2 49.06 23.51 49.36 23.48 49.22 23.74 49.45 23.97 49.16 24.03 49.16 24.34 48.89 24.14 48.62 24.34 48.62 24.34"/><polygon class="cls-1" points="47.3 26.05 47.3 25.73 47.02 25.68 47.24 25.44 47.1 25.19 47.39 25.22 47.57 24.91 47.74 25.21 48.04 25.19 47.9 25.44 48.12 25.68 47.84 25.73 47.84 26.05 47.57 25.84 47.3 26.05 47.3 26.05"/><polygon class="cls-1" points="49.54 25.83 49.54 25.51 49.26 25.46 49.48 25.23 49.34 24.97 49.64 25 49.81 24.69 49.98 25 50.28 24.97 50.15 25.23 50.37 25.46 50.08 25.51 50.08 25.83 49.81 25.63 49.54 25.83 49.54 25.83"/><polygon class="cls-1" points="49.81 27.1 49.81 26.92 49.65 26.89 49.77 26.76 49.69 26.61 49.86 26.63 49.96 26.46 50.06 26.63 50.23 26.61 50.15 26.76 50.27 26.89 50.11 26.92 50.11 27.1 49.96 26.99 49.81 27.1 49.81 27.1"/><polygon class="cls-1" points="47.73 28.56 47.73 28.01 47.24 27.92 47.62 27.52 47.38 27.08 47.88 27.14 48.19 26.6 48.48 27.13 48.99 27.08 48.75 27.52 49.14 27.92 48.65 28.01 48.65 28.56 48.19 28.21 47.73 28.56 47.73 28.56"/><polygon class="cls-1" points="48.78 0 49.84 2.6 52.52 1.81 51.16 4.27 53.45 5.89 50.69 6.35 50.86 9.16 48.78 7.28 46.71 9.16 46.88 6.35 44.12 5.89 46.41 4.27 45.05 1.81 47.73 2.6 48.78 0 48.78 0"/><path class="cls-1" d="M62.69,75.12c-.32.12-.44.21-.36.54l.38,1.59a1.43,1.43,0,0,1-.11,1,1.94,1.94,0,0,1-1.09.65,2.2,2.2,0,0,1-1.28,0,1,1,0,0,1-.63-.81l-.4-1.67c-.1-.42-.26-.39-.6-.34l0-.13,2-.48,0,.12c-.39.11-.57.16-.47.6l.4,1.67c.07.29.23,1,1.09.77a1,1,0,0,0,.8-1.34l-.36-1.53c-.07-.31-.18-.46-.7-.35l0-.13L62.66,75l0,.13Z" transform="translate(-23.61 -16.74)"/><path class="cls-1" d="M65.68,75.46a1.28,1.28,0,0,0-1.38-.67c-.31.07-.61.29-.54.62s.2.36.75.45l1,.17a1.07,1.07,0,0,1,.86.78c.1.44-.15,1.13-1.25,1.38a5.31,5.31,0,0,1-1.06.06c-.13,0-.14.13-.14.21l-.17,0-.27-1.24.17,0a1.28,1.28,0,0,0,1.46.8c.72-.16.64-.66.62-.73-.07-.34-.38-.39-.8-.46l-.44-.07c-1.11-.18-1.21-.62-1.26-.85s0-1,1.1-1.28a5.38,5.38,0,0,1,1,0c.14,0,.15-.11.16-.22l.18,0,.24,1.09-.17,0Z" transform="translate(-23.61 -16.74)"/><path class="cls-1" d="M69.65,77.44l-2.18.21v-.13c.44-.07.59-.1.55-.53l-.26-2.7c-.42.06-1.05.15-1.1,1l-.18,0-.08-1,3.66-.35.11,1L70,75c-.2-.81-.83-.77-1.25-.75L69,76.9c0,.44.19.43.64.41v.13Z" transform="translate(-23.61 -16.74)"/><path class="cls-1" d="M74.75,77.44l-1.26,0-1.24-1.64h-.17l0,1c0,.41.13.43.53.48v.13l-2.07,0v-.13c.42,0,.54,0,.55-.46l0-2.27c0-.44-.18-.46-.53-.48v-.13l2,0c.43,0,1.73.07,1.71.94,0,.63-.65.78-1,.86l1.2,1.49a.31.31,0,0,0,.25.1v.13Zm-2.65-1.83c.8,0,1.12-.1,1.14-.77a.65.65,0,0,0-.73-.76c-.34,0-.35.05-.38.21l0,1.31Z" transform="translate(-23.61 -16.74)"/><path class="cls-1" d="M78.77,78l-2-.25,0-.13c.38,0,.49,0,.51-.14a2.61,2.61,0,0,0-.2-.71l-1.37-.17a3,3,0,0,0-.35.62c0,.19.27.25.47.28l0,.13-1.23-.15,0-.13c.33,0,.44-.16.67-.52L77,74.16l.17,0,1,2.85c.21.58.28.77.58.79l0,.13Zm-1.71-1.44L76.6,75.2l-.73,1.17,1.19.15Z" transform="translate(-23.61 -16.74)"/><path class="cls-1" d="M82.34,78.69,78.85,78l0-.13c.34,0,.53,0,.58-.26l.44-2.45c.06-.33-.18-.39-.45-.45l0-.13,2.1.39,0,.13c-.42-.06-.61-.09-.69.35l-.43,2.39c0,.24.08.31.49.38a1.51,1.51,0,0,0,1.71-.71l.17,0-.46,1.1Z" transform="translate(-23.61 -16.74)"/><path class="cls-1" d="M84.65,79.2l-2.1-.44,0-.13c.33,0,.57.07.63-.24l.5-2.44c.07-.33-.21-.4-.48-.48l0-.13,2.1.44,0,.13c-.28,0-.57-.1-.64.24l-.5,2.44c-.07.32.17.39.5.48l0,.13Z" transform="translate(-23.61 -16.74)"/><path class="cls-1" d="M88.91,79.75l-2-.2v-.13c.38,0,.49,0,.51-.15a2.67,2.67,0,0,0-.21-.71l-1.37-.14a2.94,2.94,0,0,0-.34.63c0,.19.27.24.48.27v.13l-1.24-.13v-.13c.33,0,.44-.17.66-.54L87.08,76l.17,0,1.09,2.83c.22.58.3.76.59.78v.13Zm-1.74-1.4L86.69,77,86,78.22l1.19.12Z" transform="translate(-23.61 -16.74)"/><path class="cls-1" d="M73.24,38.23c0-1.24-.69-.08-1.08-1.13-.28.89-1.11.14-1.11,1.1a.75.75,0,0,0,.27.69v.36a.17.17,0,0,0,.17.17H72.8a.17.17,0,0,0,.17-.17v-.4a.81.81,0,0,0,.27-.63Zm-1.07.24c-.36,0-.85.25-.85-.18,0-.61.41-.47.77-.47s.92-.14.92.47c0,.43-.49.18-.85.18Z" transform="translate(-23.61 -16.74)"/><path class="cls-1" d="M84,53.4a.5.5,0,1,0-.57-.5.54.54,0,0,0,.57.5Z" transform="translate(-23.61 -16.74)"/><path class="cls-1" d="M81.33,35.09a3.12,3.12,0,0,0-.27.53.27.27,0,1,0,.54,0l-.27-.53Z" transform="translate(-23.61 -16.74)"/><path class="cls-1" d="M63.17,35.09a3.12,3.12,0,0,0-.27.53.27.27,0,1,0,.54,0l-.27-.53Z" transform="translate(-23.61 -16.74)"/><path class="cls-1" d="M67.71,35.09a3.12,3.12,0,0,0-.26.53.27.27,0,1,0,.54,0l-.27-.53Z" transform="translate(-23.61 -16.74)"/><path class="cls-1" d="M72.25,35.09a3.12,3.12,0,0,0-.27.53.27.27,0,1,0,.54,0l-.27-.53Z" transform="translate(-23.61 -16.74)"/><path class="cls-1" d="M76.79,35.09a3.12,3.12,0,0,0-.26.53.27.27,0,1,0,.54,0l-.27-.53Z" transform="translate(-23.61 -16.74)"/><path class="cls-1" d="M63.18,41.32a3.12,3.12,0,0,1,.26.53.27.27,0,1,1-.54,0l.27-.53Z" transform="translate(-23.61 -16.74)"/><path class="cls-1" d="M63.18,47.38a3.14,3.14,0,0,1,.26.53.27.27,0,1,1-.54,0l.27-.53Z" transform="translate(-23.61 -16.74)"/><path class="cls-1" d="M63.91,52.17a3.12,3.12,0,0,1,.27.53.27.27,0,1,1-.54,0l.27-.53Z" transform="translate(-23.61 -16.74)"/><path class="cls-1" d="M67.72,54.72a3.12,3.12,0,0,1,.27.53.27.27,0,1,1-.54,0l.27-.53Z" transform="translate(-23.61 -16.74)"/><path class="cls-1" d="M81.56,41.32a3.12,3.12,0,0,0-.26.53.27.27,0,1,0,.54,0l-.27-.53Z" transform="translate(-23.61 -16.74)"/><path class="cls-1" d="M81.56,47.38a3.14,3.14,0,0,0-.26.53.27.27,0,1,0,.54,0l-.27-.53Z" transform="translate(-23.61 -16.74)"/><path class="cls-1" d="M80.83,52.17a3.12,3.12,0,0,0-.27.53.27.27,0,1,0,.54,0l-.27-.53Z" transform="translate(-23.61 -16.74)"/><path class="cls-1" d="M77,54.72a3.13,3.13,0,0,0-.26.53.27.27,0,1,0,.54,0L77,54.72Z" transform="translate(-23.61 -16.74)"/><path class="cls-1" d="M72.39,57.42a3.12,3.12,0,0,0-.26.53.27.27,0,1,0,.54,0l-.27-.53Z" transform="translate(-23.61 -16.74)"/><path class="cls-1" d="M79.78,48.39c.06.09.2.11.38.05l.17-.49s-.2-.23-.32-.2c-.49.12-1,.17-1.28.63a1,1,0,0,0,.46.75c.17-.06.2.12.31.2a.2.2,0,0,1-.2.26c-.34-.35-.94.12-1.2-.32.11-.43.34-.92,0-1.32,0-.09.17-.17.09-.26-.14-.4-.57-.09-.83-.09a1.09,1.09,0,0,0-1,.52.8.8,0,0,0,.23.43c.12,0,.17,0,.2.12l-.29.17a.61.61,0,0,1,.11.32c-.2.09-.4-.2-.49-.34s0-.63-.29-.69a1.21,1.21,0,0,0-.25.08.83.83,0,0,0-.12.48,2,2,0,0,0,.11.51,5,5,0,0,1,1.08,1.05c-.26.52-.26,1.24-.86,1.52a.48.48,0,0,0-.17.46l.14.11c.37-.2,1.08-.26,1-.89a2.28,2.28,0,0,1,.54-.75.59.59,0,0,1,.66.32,1.13,1.13,0,0,1-.77.86c-.06.06,0,.14,0,.23s.43.12.6.09c.49-.32.69-.89,1.11-1.06.06.29-.57.37-.17.66.26-.06.6,0,.77-.32-.2-.49.68-.72.14-1.15,0-.43.46-.6.43-1.06s-.71-.46-.86-.89a.63.63,0,0,1,.6,0Z" transform="translate(-23.61 -16.74)"/><path class="cls-1" d="M58.92,53.62a.5.5,0,1,0-.57-.5.54.54,0,0,0,.57.5Z" transform="translate(-23.61 -16.74)"/><path class="cls-1" d="M29.48,70.82a.54.54,0,1,0-.56-.54.55.55,0,0,0,.56.54Z" transform="translate(-23.61 -16.74)"/><path class="cls-1" d="M48.22,75h0l0,0h0v0s0,0,0,0h-.06s0,0,0,0v-.07s0,0,0,0h.06s.05,0,.05,0,0,0,0,0l0,0h0Zm-.08-.05s0,0,0,0a0,0,0,0,0,0,0h0v0Z" transform="translate(-23.61 -16.74)"/><path class="cls-1" d="M48.3,74.92a0,0,0,0,0,0,0h0l0,0h0a0,0,0,0,1,0,0s0,0,0,0h0v0h0a0,0,0,0,0,0,0s0,0,0,0,0,0,0,0h0s0,0,0,0,0,0,0,0h0v0Z" transform="translate(-23.61 -16.74)"/><path class="cls-1" d="M48.48,74.9h0l0,.09h0l0-.07h0l0,.07h0l0-.09h0l0,.05h0l0,0h0l0,.05h0l0-.05h0Z" transform="translate(-23.61 -16.74)"/><path class="cls-1" d="M48.49,75a.05.05,0,0,0,0,0h0a0,0,0,0,1,0,0,0,0,0,0,1,0,0,0,0,0,0,1,0,0s0,.06-.08.06Zm0,0h0s0,0,0,0,0,0,0,0,0,0,0,0Z" transform="translate(-23.61 -16.74)"/><path class="cls-1" d="M48.59,74.92h0a0,0,0,0,1,0,0s0,0-.05,0h0a0,0,0,0,0,0,0l0,0h0l0-.05h.06v0h-.05Z" transform="translate(-23.61 -16.74)"/><path class="cls-1" d="M82.84,34.37h-21l0,16c0,1.63.69,3.06,1.65,3.5L71.6,59a1,1,0,0,0,1.39.08l8.18-5.19c1-.44,1.65-1.87,1.65-3.5l0-16ZM82.25,50.6a3.6,3.6,0,0,1-1.36,2.79l-7.9,5h0a1,1,0,0,1-1.23,0l-7.88-5a3.6,3.6,0,0,1-1.36-2.79V34.94H82.25V50.6Z" transform="translate(-23.61 -16.74)"/><path class="cls-1" d="M75.18,57.71l.25-.12a1.32,1.32,0,0,0-.25.12Z" transform="translate(-23.61 -16.74)"/><path class="cls-1" d="M59.38,79.59l-2,.23v-.13c.38-.07.48-.09.46-.26a2.6,2.6,0,0,0-.36-.65l-1.37.16a3,3,0,0,0-.19.69c0,.19.32.18.53.16v.13l-1.24.14v-.13c.32-.08.39-.26.53-.67l1-3,.17,0,1.67,2.53c.34.51.45.68.75.63v.13Zm-2-1-.76-1.17-.43,1.31,1.19-.14Z" transform="translate(-23.61 -16.74)"/><path class="cls-1" d="M94.07,72.08a3.16,3.16,0,0,0-2-1.88,2.63,2.63,0,0,0-2.62.67c-1.08.88-.33,2.33-.3,3.51,0,.24,0,.42-.21.55-4.36-.39-8.42-1.48-12.74-1.94-1-.17-2-.13-2.94-.33L72,72.54a51,51,0,0,0-11,1.24c-.75.24-1.59.3-2.34.58-.54-.09-1,.3-1.5.15l-1,.23a.83.83,0,0,1-.33,0c-.48-1.24,1-2,.51-3.21a2.2,2.2,0,0,0-2.07-1.24,2.51,2.51,0,0,0-2.41,1.24c-.69,1.51.18,3.09.45,4.57-.06.48.48,1,0,1.42a4.12,4.12,0,0,0-3.4-.7c-.36.18-1-.06-1.2.36a8.61,8.61,0,0,0,4.39.55c.18-.06.3-.09.45,0,.12.79-.15,1.85.33,2.54a3.1,3.1,0,0,0,2.31,1,35.93,35.93,0,0,0,7.75-1.54c.39,0,.69-.24,1.11-.24a22,22,0,0,1,4.27-.58A7.53,7.53,0,0,0,67,81.65c-.36.82.63.94.93,1.39a23.68,23.68,0,0,0-2.46,1.27c-1.92-.06-3.55.67-5.35.88,0,.39.63.27.69.67-.09.27-.36.3-.57.45,0,.18,0,.21.18.24.18-.21.57-.06.75-.27.6,0,1.11-.18,1.68-.21a5.61,5.61,0,0,0,1.53-.61c.63-.18,1-.61,1.65-.79.9,0,1.71-.3,2.55-.36v.18c-.69,1.12-1.41,2.27-2.13,3.33a.34.34,0,0,0,.21.48,1.56,1.56,0,0,0,1.17-.18c.63-1.09,1.2-2.12,1.71-3.24a4.38,4.38,0,0,1,1.71-2.27c.12-.06.3-.24.42-.06a13.8,13.8,0,0,0-1.44,2.12,2.56,2.56,0,0,0,.45,2.63c.36.3.9.21,1.38.24,1.17-.61,2.67.36,3.58-.79.54-.09.63.54.93.85.51.15,1.05.67,1.56.3,0-.33-.39-.64-.57-.94-.36-.64-.81-1.15-1.14-1.73A6,6,0,0,1,76,84.13a9.5,9.5,0,0,0,1.62.64,10,10,0,0,1,1.62.48,5.52,5.52,0,0,0,1.5,1.15c.75.36,1.59.42,2.37.73.3,0,.75.27,1,0a1.27,1.27,0,0,0-.45-.33c-.09-.39.54-.18.75-.48a.43.43,0,0,0-.35-.23c-.43-.23-1.5-.31-1.79-.47a7,7,0,0,1-1.05-.33c-1.8,0-2.8-1.64-4.24-2.24.33-.3.84-.55,1.05-1a1.68,1.68,0,0,0,.09-1.6c-.27-.94-1.47-.82-2.16-1.33L76,79a12.57,12.57,0,0,1,3.25.42c2.88.39,5.56,1.48,8.57,1.54,1.65,0,3.73.09,4.54-1.51.15-.94.33-1.88.48-2.82.36-1.51,1.35-2.91,1.2-4.57ZM61.61,85.89l-.42-.39c.21-.27.66-.12,1-.3a5.22,5.22,0,0,1,2.56-.36,7.26,7.26,0,0,1-3.13,1.06Zm18.77-.48a13.13,13.13,0,0,0,3.21.76c-.09.41-.83,0-.74.6a7,7,0,0,1-2.71-1.27c.06,0,.12-.12.24-.09ZM52.17,72.54A2.19,2.19,0,0,1,52.89,71a2.54,2.54,0,0,1,2.38.09,1.16,1.16,0,0,1,.48.57,1.35,1.35,0,0,1-.45,1.36H55a3.34,3.34,0,0,1,.18-1.36c0-.36-.33-.39-.57-.54a1.75,1.75,0,0,0-1.35.3,1.37,1.37,0,0,0-.39,1.33c.21.33,0,.79.15,1.15l-.09.12a1.87,1.87,0,0,1-.75-1.51Zm1.41.87c.45.33,1.08.18,1.62.27a1.14,1.14,0,0,1-.15,1c-.51-.12-1.17-.06-1.44-.54.06-.21-.09-.51,0-.76Zm-.09-1c.09-.24,0-.61.33-.67s.54-.06.57.18A6,6,0,0,1,54.25,73a.7.7,0,0,1-.75-.58Zm14.1,9.72a3.28,3.28,0,0,1,1-2.72,1.74,1.74,0,0,1,1.29.06c-.78.21-1.77.39-2,1.39,0,.39-.09.61.09.94.33.58,1.08.33,1.5.79a.39.39,0,0,1-.27.36,11.62,11.62,0,0,1-1.62-.82Zm-1.08,2.09c.72-.3,1.47-.94,2.28-.67a4.13,4.13,0,0,1-2.28.67Zm2.86.3a23.21,23.21,0,0,1-1.47,2.85c-.06.15-.3.18-.48.21,0-.42.42-.76.6-1.12.63-.82.81-1.7,1.53-2.48.18.18-.18.3-.18.54Zm.75-1.76v.12h-.06v-.15h.12a.18.18,0,0,0-.12,0Zm-.27-.82a7.17,7.17,0,0,1-1.44-.36c-.3-.3,0-.64,0-1a1.54,1.54,0,0,1,2.19-.39,3.22,3.22,0,0,1-.75,1.73Zm.66,0A5.07,5.07,0,0,1,71,80.65a2.54,2.54,0,0,1-.48,1.27Zm.33-2.45c-.39-.09-.6-.54-1-.54a2.4,2.4,0,0,1,1.14,0c.15.21-.09.39-.12.58Zm.36.91h0V80h0v.33Zm0,1.39c0-.12.06-.27.09-.42s.3.12.36.21a.45.45,0,0,1-.45.21Zm.45-1.88a3.37,3.37,0,0,1,.45-1.12,1.76,1.76,0,0,1,.81.12c.06.61.81,1.42,0,1.94-.27.12-.66.39-1,.12a.84.84,0,0,1-.3-1.06ZM73.87,79c-.06-.27.27-.06.39-.18l.93.06c-.48-.06-1.08,1.06-1.32.12Zm1.5.39c-.36.12-.63.55-1,.64a1.22,1.22,0,0,1,1-.64Zm-1.26,1.88v.09h0v-.09Zm.06,1.85c0,.06,0,.15-.06.21l-.69-.54a.73.73,0,0,1,.75.33Zm-.81-.94a.22.22,0,0,1,.27,0Zm-.42-.45c.12-.18.27-.45.48-.45,0,0,0,.06.06.09a1.54,1.54,0,0,1-.54.36Zm-.69-.06h-.12l.18-.18c.09.06,0,.12-.06.18Zm.09,1.15c.39-.42.75.24.9.58.45.67,1.62,1.27,1.17,2.18-.57.51-1.47,0-2.1.42-.33,0-.9.06-1.08-.27a17.66,17.66,0,0,1,1.11-2.91Zm-.84.58.15-.24a12.84,12.84,0,0,1-1,2.18c-.18-.73.57-1.3.84-1.94ZM72.82,87c-.57,0-1.44.36-2-.12,0-.24-.24-.36-.21-.61.48-.18.9.39,1.35,0a12.23,12.23,0,0,1,2.1.06c.33.09.84-.55.9.09-.24,1-1.44.3-2.16.61Zm1.74-4.36v-.09h.06v.09Zm.18,1.91c0,.3.33.42.15.7a.93.93,0,0,1-.15-.7Zm.84,1.82-.15.06c-.15-.12-.09-.45-.06-.64.18.15.33.36.21.58Zm1.5.73c0,.09-.18.09-.24,0A16.09,16.09,0,0,1,75,83.53l.12,0c.72,1.18,1.29,2.48,2,3.63Zm1.11-2.79a.12.12,0,0,0-.06.12,3.44,3.44,0,0,1-2.1-.94l0-.15a5.69,5.69,0,0,1,2.2,1Zm-.78-4c.36.09.39.48.42.79a1.79,1.79,0,0,1-2.19,1.61,1.92,1.92,0,0,0,1.8-1l0-1.36Zm-.66-.12A2,2,0,0,1,77,81.53c-.3.57-.9.57-1.44.7A.94.94,0,0,1,74.9,82a.31.31,0,0,0-.12-.3c.09-.39-.69-.79-.15-1.12s1.62-1.48,2.13-.39ZM92,78c-.24.3,0,.79-.33,1.06,0,.55-.45.82-.84,1-3.58.79-7.09-.42-10.55-1a36.77,36.77,0,0,0-15.42-.24c-2.31.42-4.57,1-6.79,1.61a9.87,9.87,0,0,1-4.21,0c-1.08-.52-.63-1.91-1-2.88a15.83,15.83,0,0,0-.24-2.09,1.79,1.79,0,0,1-.12-.79c.45.06.9.39,1.38.52,2.52.48,4.78-.33,7.12-.76A51.92,51.92,0,0,1,68,73.33a44.47,44.47,0,0,1,8.06.27c.84,0,1.56.24,2.37.3,1.68.21,3.25.67,5,.79a8.22,8.22,0,0,0,.9.15c2.7.42,5.74,1.18,8.33,0A22.33,22.33,0,0,1,92,78Zm-.84-3.69c0,.48-.42.36-.66.54H89.8a1.65,1.65,0,0,1-.09-.85,6,6,0,0,1,1.47.3Zm-.33-.76c.33-.33-.09-2.24.84-1,0,.24,0,.61-.21.79s-.39.36-.63.21Zm2.43-.3a1.73,1.73,0,0,1-1.29,1c0-.73.69-1.24.45-2.06a1.81,1.81,0,0,0-1.89-.61c-.27.18-.15.48-.24.76l-.12,1c-.6,0-.63-.54-.81-1a1.75,1.75,0,0,1,.93-1.57,2.07,2.07,0,0,1,1.74.06,1.35,1.35,0,0,1,1,.64c.45.42.33,1.18.24,1.73Z" transform="translate(-23.61 -16.74)"/></svg>