<svg xmlns="http://www.w3.org/2000/svg" xmlns:xlink="http://www.w3.org/1999/xlink" width="24" height="24" viewBox="0 0 24 24">
  <defs>
    <path id="path-1" d="M11,2.04937524 C5.94667731,2.55109967 2,6.8146519 2,12 C2,17.5228475 6.4771525,22 12,22 C17.5228475,22 22,17.5228475 22,12 C22,10.3332553 21.5922313,8.76175014 20.8710122,7.37980292 L12.5482841,12.8362922 C11.8832515,13.2722962 11,12.7952155 11,12 L11,2.04937524 Z M13,2.04937524 L13,10.1486326 L19.7729959,5.70816807 C18.1367628,3.68925108 15.7298559,2.32041184 13,2.04937524 Z M12,24 C5.372583,24 0,18.627417 0,12 C0,5.372583 5.372583,0 12,0 C18.627417,0 24,5.372583 24,12 C24,18.627417 18.627417,24 12,24 Z"/>
  </defs>
  <g fill="none" fill-rule="evenodd">
    <mask id="mask-2" fill="white">
      <use xlink:href="#path-1"/>
    </mask>
    <use fill="#000000" fill-rule="nonzero" xlink:href="#path-1"/>
    <g fill="#4b3081" mask="url(#mask-2)" id="#chart-pie-svg">
      <rect width="24" height="24"/>
    </g>
  </g>
</svg>
