<svg xmlns="http://www.w3.org/2000/svg" xmlns:xlink="http://www.w3.org/1999/xlink" width="24" height="24" viewBox="0 0 24 24">
  <defs>
    <path id="path-1" d="M4.5,21 C3.67157288,21 3,20.3284271 3,19.5 C3,18.6715729 3.67157288,18 4.5,18 C5.32842712,18 6,18.6715729 6,19.5 C6,20.3284271 5.32842712,21 4.5,21 Z M7.5,16 C6.67157288,16 6,15.3284271 6,14.5 C6,13.6715729 6.67157288,13 7.5,13 C8.32842712,13 9,13.6715729 9,14.5 C9,15.3284271 8.32842712,16 7.5,16 Z M11.5,19 C10.6715729,19 10,18.3284271 10,17.5 C10,16.6715729 10.6715729,16 11.5,16 C12.3284271,16 13,16.6715729 13,17.5 C13,18.3284271 12.3284271,19 11.5,19 Z M12.5,10 C11.6715729,10 11,9.32842712 11,8.5 C11,7.67157288 11.6715729,7 12.5,7 C13.3284271,7 14,7.67157288 14,8.5 C14,9.32842712 13.3284271,10 12.5,10 Z M18.5,5 C17.6715729,5 17,4.32842712 17,3.5 C17,2.67157288 17.6715729,2 18.5,2 C19.3284271,2 20,2.67157288 20,3.5 C20,4.32842712 19.3284271,5 18.5,5 Z M16.5,14 C15.6715729,14 15,13.3284271 15,12.5 C15,11.6715729 15.6715729,11 16.5,11 C17.3284271,11 18,11.6715729 18,12.5 C18,13.3284271 17.3284271,14 16.5,14 Z"/>
  </defs>
  <g fill="none" fill-rule="evenodd">
    <mask id="mask-2" fill="white">
      <use xlink:href="#path-1"/>
    </mask>
    <use fill="#000000" xlink:href="#path-1"/>
    <g fill="#4b3081" mask="url(#mask-2)">
      <rect width="24" height="24"/>
    </g>
  </g>
</svg>
