<svg xmlns="http://www.w3.org/2000/svg" xmlns:xlink="http://www.w3.org/1999/xlink" width="24" height="24" viewBox="0 0 24 24">
  <defs>
    <path id="path-1" d="M3,16 C3,15.4477153 3.44771525,15 4,15 C4.55228475,15 5,15.4477153 5,16 L5,20 C5,20.5522847 4.55228475,21 4,21 C3.44771525,21 3,20.5522847 3,20 L3,16 Z M11,5 C11,4.44771525 11.4477153,4 12,4 C12.5522847,4 13,4.44771525 13,5 L13,20 C13,20.5522847 12.5522847,21 12,21 C11.4477153,21 11,20.5522847 11,20 L11,5 Z M7,10 C7,9.44771525 7.44771525,9 8,9 C8.55228475,9 9,9.44771525 9,10 L9,20 C9,20.5522847 8.55228475,21 8,21 C7.44771525,21 7,20.5522847 7,20 L7,10 Z M15,13 C15,12.4477153 15.4477153,12 16,12 C16.5522847,12 17,12.4477153 17,13 L17,20 C17,20.5522847 16.5522847,21 16,21 C15.4477153,21 15,20.5522847 15,20 L15,13 Z M19,11 C19,10.4477153 19.4477153,10 20,10 C20.5522847,10 21,10.4477153 21,11 L21,20 C21,20.5522847 20.5522847,21 20,21 C19.4477153,21 19,20.5522847 19,20 L19,11 Z"/>
  </defs>
  <g fill="none" fill-rule="evenodd">
    <mask id="mask-2" fill="white">
      <use xlink:href="#path-1"/>
    </mask>
    <use fill="#313131" fill-rule="nonzero" xlink:href="#path-1"/>
    <g fill="#ffffff" mask="url(#mask-2)">
      <rect width="24" height="24"/>
    </g>
  </g>
</svg>
