<?xml version="1.0" encoding="utf-8"?>
<!-- Generator: Adobe Illustrator 22.1.0, SVG Export Plug-In . SVG Version: 6.00 Build 0)  -->
<svg version="1.1" id="Layer_1" xmlns="http://www.w3.org/2000/svg" xmlns:xlink="http://www.w3.org/1999/xlink" x="0px" y="0px"
	 viewBox="2 7 95 85" style="enable-background:new 0 0 100 125;" xml:space="preserve">
<g style="fill: #4b2a85">
	<path d="M35.4,20.4H24.8c-1.1,0-2,0.9-2,2s0.9,2,2,2h10.6c1.1,0,2-0.9,2-2S36.5,20.4,35.4,20.4z"/>
	<path d="M75.5,20.4h-32c-1.1,0-2,0.9-2,2s0.9,2,2,2h32c1.1,0,2-0.9,2-2S76.6,20.4,75.5,20.4z"/>
	<path d="M35.4,30.7H24.8c-1.1,0-2,0.9-2,2c0,1.1,0.9,2,2,2h10.6c1.1,0,2-0.9,2-2C37.4,31.5,36.5,30.7,35.4,30.7z"/>
	<path d="M75.5,30.7h-32c-1.1,0-2,0.9-2,2c0,1.1,0.9,2,2,2h32c1.1,0,2-0.9,2-2C77.5,31.5,76.6,30.7,75.5,30.7z"/>
	<path d="M35.4,41.1H24.8c-1.1,0-2,0.9-2,2s0.9,2,2,2h10.6c1.1,0,2-0.9,2-2S36.5,41.1,35.4,41.1z"/>
	<path d="M75.5,41.1h-32c-1.1,0-2,0.9-2,2s0.9,2,2,2h32c1.1,0,2-0.9,2-2S76.6,41.1,75.5,41.1z"/>
	<path d="M97.3,89.7L85.7,67.5c-0.3-0.7-1-1.1-1.7-1.1H51.3v-8.3h31.4c1.1,0,2-0.9,2-2V9.4c0-1.1-0.9-2-2-2H15.1c-1.1,0-2,0.9-2,2
		v46.8c0,1.1,0.9,2,2,2h32.3v8.3H17c-0.7,0-1.4,0.4-1.7,1L2.8,89.6c-0.3,0.6-0.3,1.4,0,2s1,1,1.7,1h91.1c0.7,0,1.3-0.4,1.7-1
		C97.6,91,97.6,90.3,97.3,89.7z M17,11.4h63.7v42.9H17V11.4z M7.9,88.6l10.4-18.4l30.9,0.1h0.1h33.4l9.5,18.2L7.9,88.6L7.9,88.6z"/>
	<path d="M28.5,77.9h5.2c1.1,0,2-0.9,2-2s-0.9-2-2-2h-5.2c-1.1,0-2,0.9-2,2S27.4,77.9,28.5,77.9z"/>
	<path d="M41.3,77.9h5.2c1.1,0,2-0.9,2-2s-0.9-2-2-2h-5.2c-1.1,0-2,0.9-2,2S40.2,77.9,41.3,77.9z"/>
	<path d="M54,77.9h5.2c1.1,0,2-0.9,2-2s-0.9-2-2-2H54c-1.1,0-2,0.9-2,2S52.9,77.9,54,77.9z"/>
	<path d="M67.1,77.9h5.2c1.1,0,2-0.9,2-2s-0.9-2-2-2h-5.2c-1.1,0-2,0.9-2,2S66,77.9,67.1,77.9z"/>
	<path d="M78.4,80.9h-5.2c-1.1,0-2,0.9-2,2s0.9,2,2,2h5.2c1.1,0,2-0.9,2-2S79.5,80.9,78.4,80.9z"/>
	<path d="M27.3,80.9h-5.2c-1.1,0-2,0.9-2,2s0.9,2,2,2h5.2c1.1,0,2-0.9,2-2S28.4,80.9,27.3,80.9z"/>
	<path d="M40.1,80.9h-5.2c-1.1,0-2,0.9-2,2s0.9,2,2,2h5.2c1.1,0,2-0.9,2-2S41.2,80.9,40.1,80.9z"/>
	<path d="M52.8,80.9h-5.2c-1.1,0-2,0.9-2,2s0.9,2,2,2h5.2c1.1,0,2-0.9,2-2S53.9,80.9,52.8,80.9z"/>
	<path d="M65.9,80.9h-5.2c-1.1,0-2,0.9-2,2s0.9,2,2,2h5.2c1.1,0,2-0.9,2-2C67.8,81.8,67,80.9,65.9,80.9z"/>
</g>
</svg>
