<svg xmlns="http://www.w3.org/2000/svg" width="24" height="24" viewBox="0 0 24 24">
  <g fill="none" fill-rule="evenodd">
    <rect width="24" height="24"/>
    <path fill="#C0C0C0" fill-rule="nonzero" d="M5,7 L11,7 L11,4 L5,4 L5,7 Z M5,9 L5,20 L11,20 L11,9 L5,9 Z M19,7 L19,4 L13,4 L13,7 L19,7 Z M19,9 L13,9 L13,20 L19,20 L19,9 Z M4,2 L20,2 C20.5522847,2 21,2.44771525 21,3 L21,21 C21,21.5522847 20.5522847,22 20,22 L4,22 C3.44771525,22 3,21.5522847 3,21 L3,3 C3,2.44771525 3.44771525,2 4,2 Z M10,10 L10,12 L6,12 L6,10 L10,10 Z M10,13 L10,15 L6,15 L6,13 L10,13 Z M10,16 L10,18 L6,18 L6,16 L10,16 Z M18,10 L18,12 L14,12 L14,10 L18,10 Z M18,13 L18,15 L14,15 L14,13 L18,13 Z M18,16 L18,18 L14,18 L14,16 L18,16 Z"/>
  </g>
</svg>
