<svg xmlns="http://www.w3.org/2000/svg" viewBox="0 0 220 150"><style>.st0{fill:#fff}.st1{fill:#981b1e}.st2{fill:url(#SVGID_1_)}.st3{enable-background:new}.st4{fill:#231f20}.st5{fill:#751113}</style><path class="st0" d="M67.7 51.1c-.6 0-1-.4-1-1v-9.5c0-.6.4-1 1-1h9.5c.6 0 1 .4 1 1v9.5c0 .6-.4 1-1 1h-9.5z"/><path class="st1" d="M77.2 40.6v9.5h-9.5v-9.5h9.5m0-2h-9.5c-1.1 0-2 .9-2 2v9.5c0 1.1.9 2 2 2h9.5c1.1 0 2-.9 2-2v-9.5c0-1.1-.9-2-2-2z"/><path class="st0" d="M83.3 66.7c-.6 0-1-.4-1-1v-9.5c0-.6.4-1 1-1h9.5c.6 0 1 .4 1 1v9.5c0 .6-.4 1-1 1h-9.5z"/><path class="st1" d="M92.8 56.2v9.5h-9.5v-9.5h9.5m0-2h-9.5c-1.1 0-2 .9-2 2v9.5c0 1.1.9 2 2 2h9.5c1.1 0 2-.9 2-2v-9.5c0-1.1-.9-2-2-2z"/><radialGradient id="SVGID_1_" cx="40.696" cy="93.366" r="70.99" gradientTransform="matrix(1 0 0 -1 0 150)" gradientUnits="userSpaceOnUse"><stop offset="0" stop-color="#EC1E24"/><stop offset=".186" stop-color="#E51E24"/><stop offset=".454" stop-color="#D21D22"/><stop offset=".77" stop-color="#B31C20"/><stop offset="1" stop-color="#981B1E"/></radialGradient><path class="st2" d="M63.5 67.8c0 1.1.9 2 2 2h42.8c1.1 0 2 .9 2 2v32.4c0 1.1-.9 2-2 2h-6.4c-1.1 0-2 .9-2 2v6.4c0 1.1.9 2 2 2h6.4c1.1 0 2 .9 2 2v6.4c0 1.1-.9 2-2 2H8.4c-1.1 0-2-.9-2-2V25c0-1.1.9-2 2-2h53.2c1.1 0 2 .9 2 2v42.8h-.1zm15.7-11.6c0-1.1-.9-2-2-2h-9.5c-1.1 0-2 .9-2 2v9.5c0 1.1.9 2 2 2h9.5c1.1 0 2-.9 2-2v-9.5zm0-31.2c0-1.1-.9-2-2-2h-9.5c-1.1 0-2 .9-2 2v9.5c0 1.1.9 2 2 2h9.5c1.1 0 2-.9 2-2V25zm15.6 15.6c0-1.1-.9-2-2-2h-9.5c-1.1 0-2 .9-2 2v9.5c0 1.1.9 2 2 2h9.5c1.1 0 2-.9 2-2v-9.5zm15.6 15.6c0-1.1-.9-2-2-2h-9.5c-1.1 0-2 .9-2 2v9.5c0 1.1.9 2 2 2h9.5c1.1 0 2-.9 2-2v-9.5z"/><path class="st1" d="M176.7 115.6c0 .6-.4 1-1 1h-3.2c-.6 0-1-.4-1-1v-3.2c0-.5.4-1 1-1h3.2c.6 0 1 .5 1 1v3.2z"/><path class="st4" d="M132.8 115.8c0 5.8-3 9.1-9.8 9.1-2 0-3.8-.3-6.8-1.3l.4-3.3c2.7 1.2 4.3 1.7 6.9 1.7 3.7 0 5.9-2.5 5.9-6.6v-1.9h-.1c-1.5 2-4 3-6.4 3-5.5 0-8.2-4.5-8.2-9.4s2.8-10.1 8.5-10.1c3.4 0 5.2 1.2 6.3 3.3h.1v-2.8h3.3v18.3zm-3.5-8.5c0-4-1.8-7.4-5.6-7.4-3.6 0-5.3 3.9-5.3 7.1 0 3.6 2 6.7 5.3 6.7s5.6-2.9 5.6-6.4zM144.6 97c5.8 0 9.7 4.2 9.7 10 0 5.5-4 10-9.7 10-5.8 0-9.7-4.5-9.7-10-.1-5.8 3.8-10 9.7-10zm0 17.2c4.1 0 6-3.7 6-7.1 0-3.6-2.2-7.1-6-7.1s-6 3.5-6 7.1c0 3.3 1.8 7.1 6 7.1zm21.9 2.4h-4.2l-6.8-19.1h3.9l5.2 15.6h.1l5.3-15.6h3.5l-7 19.1zm15.3-17.8c1.8-1 3.9-1.8 6.3-1.8 5.5 0 7.7 2.7 7.7 7.9v7.9c0 2.2.1 3.2.2 3.7h-3.3V114h-.1c-.8 1.2-2.7 2.9-5.9 2.9-4.1 0-7-1.8-7-6 0-4.8 5.2-6.3 8.9-6.3 1.4 0 2.4 0 3.7.1 0-3.3-1.2-5-4.7-5-2 0-4.1.7-5.5 1.9l-.3-2.8zm10.5 8.7l-2.2-.1c-1.9 0-6.6.3-6.6 3.7 0 2 1.9 3.1 3.6 3.1 3.5 0 5.3-2.2 5.3-5v-1.7zm24.4 9.1h-3.4v-3h-.1c-1 2.2-3.6 3.5-6.2 3.5-4.9 0-7.1-3.1-7.1-8.2V97.5h3.5v9.9c0 4.5 1 6.6 4 6.8 4 0 5.8-3.2 5.8-7.9v-8.8h3.5v19.1z"/><path class="st5" d="M41 91.9c1.7-.8 4.1-1.9 8-1.9 7.8 0 9.6 3.8 9.6 10.1v11c0 1.8.2 3.5.3 4.4h-5.5c-.3-1-.3-2.2-.3-3.4H53c-1.5 2.1-3.4 3.8-7 3.8-3.9 0-7.5-2.7-7.5-7.4 0-6.8 5.6-8.6 13.2-8.6h1.2V99c0-2.5-1.2-4.8-4.7-4.8-3 0-5.7 1.5-6.9 2.4l-.3-4.7zm11.9 11.4h-.5c-5.2 0-8.3 1.1-8.3 4.7 0 2.3 1.5 3.9 3.9 3.9 3.6 0 4.9-2.7 4.9-7.2v-1.4zm24.3-11.4c1.7-.8 4.1-1.9 8-1.9 7.8 0 9.6 3.8 9.6 10.1v11c0 1.8.2 3.5.3 4.4h-5.5c-.3-1-.3-2.2-.3-3.4h-.1c-1.5 2.1-3.4 3.8-7 3.8-3.9 0-7.5-2.7-7.5-7.4 0-6.8 5.6-8.6 13.2-8.6h1.2V99c0-2.5-1.2-4.8-4.7-4.8-3 0-5.7 1.5-6.9 2.4l-.3-4.7zm11.9 11.4h-.5c-5.2 0-8.3 1.1-8.3 4.7 0 2.3 1.5 3.9 3.9 3.9 3.6 0 4.9-2.7 4.9-7.2v-1.4zM74 94.9v-4.4h-5v-7.1l-6 1.8v5.2h-4v4.4h4v13.8c0 5.3 2.5 7.3 7 7.3 1.8 0 3.1-.4 4.1-.8v-4.3c-.4.2-1.2.5-2.3.5-1.8 0-2.7-.8-2.7-3.5v-13l4.9.1zM37.2 74v37.3c0 1.8 0 3.4.2 4.3h-5.7c-.1-.7-.2-2.2-.2-3.9h-.1c-1 2.1-2.8 4.3-6.7 4.3-6.3 0-8.8-6-8.8-12.9 0-8.2 3.3-13 8.7-13 3.6 0 5.6 2.1 6.5 4h.1V75.9l6-1.9zm-10.9 37.5c3.6 0 4.8-3.9 4.8-8.6 0-4.9-1.4-8.5-4.7-8.5-3.4 0-4.5 3.3-4.5 8.3 0 5.9.9 8.8 4.4 8.8z"/><path class="st0" d="M41 92.9c1.7-.8 4.1-1.9 8-1.9 7.8 0 9.6 3.8 9.6 10.1v11c0 1.8.2 3.5.3 4.4h-5.5c-.3-1-.3-2.2-.3-3.4H53c-1.5 2.1-3.4 3.8-7 3.8-3.9 0-7.5-2.7-7.5-7.4 0-6.8 5.6-8.6 13.2-8.6h1.2v-.9c0-2.5-1.2-4.8-4.7-4.8-3 0-5.7 1.5-6.9 2.4l-.3-4.7zm11.9 11.4h-.5c-5.2 0-8.3 1.1-8.3 4.7 0 2.3 1.5 3.9 3.9 3.9 3.6 0 4.9-2.7 4.9-7.2v-1.4zm24.3-11.4c1.7-.8 4.1-1.9 8-1.9 7.8 0 9.6 3.8 9.6 10.1v11c0 1.8.2 3.5.3 4.4h-5.5c-.3-1-.3-2.2-.3-3.4h-.1c-1.5 2.1-3.4 3.8-7 3.8-3.9 0-7.5-2.7-7.5-7.4 0-6.8 5.6-8.6 13.2-8.6h1.2v-.9c0-2.5-1.2-4.8-4.7-4.8-3 0-5.7 1.5-6.9 2.4l-.3-4.7zm11.9 11.4h-.5c-5.2 0-8.3 1.1-8.3 4.7 0 2.3 1.5 3.9 3.9 3.9 3.6 0 4.9-2.7 4.9-7.2v-1.4zM74 95.9v-4.4h-5v-7.1l-6 1.8v5.2h-4v4.4h4v13.8c0 5.3 2.5 7.3 7 7.3 1.8 0 3.1-.4 4.1-.8v-4.3c-.4.2-1.2.5-2.3.5-1.8 0-2.7-.8-2.7-3.5v-13l4.9.1zM37.2 75v37.3c0 1.8 0 3.4.2 4.3h-5.7c-.1-.7-.2-2.2-.2-3.9h-.1c-1 2.1-2.8 4.3-6.7 4.3-6.3 0-8.8-6-8.8-12.9 0-8.2 3.3-13 8.7-13 3.6 0 5.6 2.1 6.5 4h.1V76.9l6-1.9zm-10.9 37.5c3.6 0 4.8-3.9 4.8-8.6 0-4.9-1.4-8.5-4.7-8.5-3.4 0-4.5 3.3-4.5 8.3 0 5.9.9 8.8 4.4 8.8z"/></svg>