<svg width="36" height="36" viewBox="0 0 36 36" fill="none" xmlns="http://www.w3.org/2000/svg">
<path fill-rule="evenodd" clip-rule="evenodd" d="M27 0H3C1.34314 0 0 1.34314 0 3V9V12V15V18V21V24V27C0 28.6569 1.34314 30 3 30H27C28.6569 30 30 28.6569 30 27V24V21V18V15V12V9V3C30 1.34314 28.6569 0 27 0ZM3 27V24H9V27H3ZM12 27H27V24H12V27ZM12 21H27V18H12V21ZM12 15H27V12H12V15ZM9 12V15H3V12H9ZM12 9H27V3H12V9ZM9 3V9H3V3H9ZM9 18V21H3V18H9Z" transform="translate(3 3)" fill="#00698F"/>
<mask id="mask0" mask-type="alpha" maskUnits="userSpaceOnUse" x="3" y="3" width="30" height="30">
<path fill-rule="evenodd" clip-rule="evenodd" d="M27 0H3C1.34314 0 0 1.34314 0 3V9V12V15V18V21V24V27C0 28.6569 1.34314 30 3 30H27C28.6569 30 30 28.6569 30 27V24V21V18V15V12V9V3C30 1.34314 28.6569 0 27 0ZM3 27V24H9V27H3ZM12 27H27V24H12V27ZM12 21H27V18H12V21ZM12 15H27V12H12V15ZM9 12V15H3V12H9ZM12 9H27V3H12V9ZM9 3V9H3V3H9ZM9 18V21H3V18H9Z" transform="translate(3 3)" fill="white"/>
</mask>
<g mask="url(#mask0)">
<path fill-rule="evenodd" clip-rule="evenodd" d="M0 0H36V36H0V0Z" fill="#4B2A85"/>
</g>
</svg>
