<svg width="10" height="6" viewBox="0 0 10 6" version="1.1" xmlns="http://www.w3.org/2000/svg" xmlns:xlink="http://www.w3.org/1999/xlink">
<title>downArrow-24 Copy</title>
<desc>Created using Figma</desc>
<g id="Canvas" transform="translate(1490 -3416)">
<g id="icon/downArrow-24 Copy">
<g id="Path 2">
<use xlink:href="#path0_stroke" transform="translate(-1489 3417)" fill="#F7F8F9"/>
</g>
</g>
</g>
<defs>
<path id="path0_stroke" d="M 0.707107 -0.707107C 0.316583 -1.09763 -0.316583 -1.09763 -0.707107 -0.707107C -1.09763 -0.316583 -1.09763 0.316583 -0.707107 0.707107L 0.707107 -0.707107ZM 4 4L 3.29289 4.70711C 3.68342 5.09763 4.31658 5.09763 4.70711 4.70711L 4 4ZM 8.70711 0.707107C 9.09763 0.316583 9.09763 -0.316583 8.70711 -0.707107C 8.31658 -1.09763 7.68342 -1.09763 7.29289 -0.707107L 8.70711 0.707107ZM -0.707107 0.707107L 3.29289 4.70711L 4.70711 3.29289L 0.707107 -0.707107L -0.707107 0.707107ZM 4.70711 4.70711L 8.70711 0.707107L 7.29289 -0.707107L 3.29289 3.29289L 4.70711 4.70711Z"/>
</defs>
</svg>
