<svg xmlns="http://www.w3.org/2000/svg" width="24" height="24" viewBox="0 0 24 24">
  <g fill="none" fill-rule="evenodd">
    <rect width="24" height="24"/>
    <path fill="#494949" fill-rule="nonzero" d="M16.5857864,6 L15,6 C14.4477153,6 14,5.55228475 14,5 C14,4.44771525 14.4477153,4 15,4 L19,4 C19.5522847,4 20,4.44771525 20,5 L20,9 C20,9.55228475 19.5522847,10 19,10 C18.4477153,10 18,9.55228475 18,9 L18,7.41421356 L12.7071068,12.7071068 C12.3165825,13.0976311 11.6834175,13.0976311 11.2928932,12.7071068 C10.9023689,12.3165825 10.9023689,11.6834175 11.2928932,11.2928932 L16.5857864,6 Z M17,17 L17,13 C17,12.4477153 17.4477153,12 18,12 C18.5522847,12 19,12.4477153 19,13 L19,18 C19,18.5522847 18.5522847,19 18,19 L6,19 C5.44771525,19 5,18.5522847 5,18 L5,6 C5,5.44771525 5.44771525,5 6,5 L11,5 C11.5522847,5 12,5.44771525 12,6 C12,6.55228475 11.5522847,7 11,7 L7,7 L7,17 L17,17 Z"/>
  </g>
</svg>
