<?xml version="1.0" encoding="UTF-8"?>
<svg width="54px" height="59px" viewBox="0 0 54 59" version="1.1" xmlns="http://www.w3.org/2000/svg" xmlns:xlink="http://www.w3.org/1999/xlink">
    <!-- Generator: Sketch 61.2 (89653) - https://sketch.com -->
    <title>files</title>
    <desc>Created with Sketch.</desc>
    <defs>
        <polygon id="path-1" points="0 0.8787 22.9395429 0.8787 22.9395429 29.0001074 0 29.0001074"></polygon>
        <polygon id="path-3" points="0 0.8787 22.9395429 0.8787 22.9395429 29 0 29"></polygon>
        <polygon id="path-5" points="-0.000219047619 0.8787 22.9395429 0.8787 22.9395429 29 -0.000219047619 29"></polygon>
    </defs>
    <g id="Design-Library" stroke="none" stroke-width="1" fill="none" fill-rule="evenodd">
        <g id="Icons" transform="translate(-635.000000, -800.000000)">
            <g id="files" transform="translate(635.000000, 800.000000)">
                <g id="Group-3">
                    <mask id="mask-2" fill="white">
                        <use xlink:href="#path-1"></use>
                    </mask>
                    <g id="Clip-2"></g>
                    <path d="M14.3375429,17.7513296 L12.9038762,17.7513296 L12.9038762,16.3453667 C12.9038762,15.5688111 12.2609714,14.9394037 11.4702095,14.9394037 C10.6783524,14.9394037 10.0365429,15.5688111 10.0365429,16.3453667 L10.0365429,17.7513296 L8.60287619,17.7513296 C7.81101905,17.7513296 7.16920952,18.380737 7.16920952,19.1572926 C7.16920952,19.9338481 7.81101905,20.5632556 8.60287619,20.5632556 L10.0365429,20.5632556 L10.0365429,21.9692185 C10.0365429,22.7457741 10.6783524,23.3751815 11.4702095,23.3751815 C12.2609714,23.3751815 12.9038762,22.7457741 12.9038762,21.9692185 L12.9038762,20.5632556 L14.3375429,20.5632556 C15.1294,20.5632556 15.7723048,19.9338481 15.7723048,19.1572926 C15.7723048,18.380737 15.1294,17.7513296 14.3375429,17.7513296 L14.3375429,17.7513296 Z M20.0722095,24.7811444 C20.0722095,25.5587741 19.4304,26.1871074 18.6396381,26.1871074 L4.30187619,26.1871074 C3.50892381,26.1871074 2.86711429,25.5587741 2.86711429,24.7811444 L2.86711429,5.09658889 C2.86711429,4.32003333 3.50892381,3.69062593 4.30187619,3.69062593 L11.4702095,3.69062593 L11.4702095,7.90851481 C11.4702095,10.2381815 13.3967333,12.1274778 15.7723048,12.1274778 L20.0722095,12.1274778 L20.0722095,24.7811444 Z M14.3375429,5.67336667 L18.0514952,9.31555185 L15.7723048,9.31555185 C14.9793524,9.31555185 14.3375429,8.68614444 14.3375429,7.90851481 L14.3375429,5.67336667 Z M22.9395429,10.636663 C22.9253048,10.5077741 22.8957333,10.3799593 22.8541143,10.2564407 L22.8541143,10.1307741 C22.7851143,9.98684815 22.6931143,9.85258889 22.5814,9.73658889 L13.9794,1.30081111 C13.860019,1.19125556 13.7242095,1.10103333 13.5785429,1.03336667 C13.5358286,1.0279963 13.492019,1.0279963 13.4482095,1.03336667 C13.3036381,0.951737037 13.1415429,0.899107407 12.9761619,0.8787 L4.30187619,0.8787 C1.92520952,0.8787 -0.000219047619,2.76692222 -0.000219047619,5.09658889 L-0.000219047619,24.7811444 C-0.000219047619,27.1108111 1.92520952,29.0001074 4.30187619,29.0001074 L18.6396381,29.0001074 C21.0152095,29.0001074 22.9395429,27.1108111 22.9395429,24.7811444 L22.9395429,10.7215148 L22.9395429,10.636663 Z" id="Fill-1" fill="#30384e" mask="url(#mask-2)"></path>
                </g>
                <path d="M39.3754118,17.7997861 L37.9379804,17.7997861 L37.9379804,16.3998931 C37.9379804,15.6266901 37.2933874,15 36.5005491,15 C35.7066126,15 35.0631177,15.6266901 35.0631177,16.3998931 L35.0631177,17.7997861 L33.6256863,17.7997861 C32.8317498,17.7997861 32.188255,18.4264762 32.188255,19.1996792 C32.188255,19.9728821 32.8317498,20.5995722 33.6256863,20.5995722 L35.0631177,20.5995722 L35.0631177,21.9994653 C35.0631177,22.7726682 35.7066126,23.3993583 36.5005491,23.3993583 C37.2933874,23.3993583 37.9379804,22.7726682 37.9379804,21.9994653 L37.9379804,20.5995722 L39.3754118,20.5995722 C40.1693483,20.5995722 40.8139413,19.9728821 40.8139413,19.1996792 C40.8139413,18.4264762 40.1693483,17.7997861 39.3754118,17.7997861 L39.3754118,17.7997861 Z M45.1251373,24.7992514 C45.1251373,25.5735238 44.4816424,26.1991445 43.688804,26.1991445 L29.3133922,26.1991445 C28.5183576,26.1991445 27.8748627,25.5735238 27.8748627,24.7992514 L27.8748627,5.19967917 C27.8748627,4.42647621 28.5183576,3.79978611 29.3133922,3.79978611 L36.5005491,3.79978611 L36.5005491,7.99946528 C36.5005491,10.3190742 38.4321318,12.2002139 40.8139413,12.2002139 L45.1251373,12.2002139 L45.1251373,24.7992514 Z M39.3754118,5.77396685 L43.0991167,9.40042777 L40.8139413,9.40042777 C40.0189067,9.40042777 39.3754118,8.77373768 39.3754118,7.99946528 L39.3754118,5.77396685 Z M48,10.7158353 C47.9857245,10.5875029 47.9560754,10.4602399 47.9143471,10.3372546 L47.9143471,10.2121305 C47.8451659,10.0688259 47.7529243,9.93514628 47.6409167,9.81964709 L39.0163285,1.42028875 C38.896634,1.31120617 38.7604679,1.22137346 38.6144187,1.15399893 C38.5715923,1.14865175 38.5276677,1.14865175 38.4837431,1.15399893 C38.3387921,1.07272172 38.1762712,1.0203193 38.010456,1 L29.3133922,1 C26.9304846,1 25,2.88007028 25,5.19967917 L25,24.7992514 C25,27.1188603 26.9304846,29 29.3133922,29 L43.688804,29 C46.0706135,29 48,27.1188603 48,24.7992514 L48,10.8003208 L48,10.7158353 Z" id="Fill-4" fill="#30384e"></path>
                <g id="Group-8" transform="translate(0.000000, 30.000000)">
                    <mask id="mask-4" fill="white">
                        <use xlink:href="#path-3"></use>
                    </mask>
                    <g id="Clip-7"></g>
                    <path d="M14.3375429,17.7513296 L12.9038762,17.7513296 L12.9038762,16.3453667 C12.9038762,15.5688111 12.2609714,14.9394037 11.4702095,14.9394037 C10.6783524,14.9394037 10.0365429,15.5688111 10.0365429,16.3453667 L10.0365429,17.7513296 L8.60287619,17.7513296 C7.81101905,17.7513296 7.16920952,18.380737 7.16920952,19.1572926 C7.16920952,19.9338481 7.81101905,20.5632556 8.60287619,20.5632556 L10.0365429,20.5632556 L10.0365429,21.9692185 C10.0365429,22.7457741 10.6783524,23.3751815 11.4702095,23.3751815 C12.2609714,23.3751815 12.9038762,22.7457741 12.9038762,21.9692185 L12.9038762,20.5632556 L14.3375429,20.5632556 C15.1294,20.5632556 15.7723048,19.9338481 15.7723048,19.1572926 C15.7723048,18.380737 15.1294,17.7513296 14.3375429,17.7513296 L14.3375429,17.7513296 Z M20.0722095,24.7811444 C20.0722095,25.5587741 19.4304,26.1871074 18.6396381,26.1871074 L4.30187619,26.1871074 C3.50892381,26.1871074 2.86711429,25.5587741 2.86711429,24.7811444 L2.86711429,5.09658889 C2.86711429,4.32003333 3.50892381,3.69062593 4.30187619,3.69062593 L11.4702095,3.69062593 L11.4702095,7.90851481 C11.4702095,10.2381815 13.3967333,12.1274778 15.7723048,12.1274778 L20.0722095,12.1274778 L20.0722095,24.7811444 Z M14.3375429,5.67336667 L18.0514952,9.31555185 L15.7723048,9.31555185 C14.9793524,9.31555185 14.3375429,8.68614444 14.3375429,7.90851481 L14.3375429,5.67336667 Z M22.9395429,10.636663 C22.9253048,10.5077741 22.8957333,10.3799593 22.8541143,10.2564407 L22.8541143,10.1307741 C22.7851143,9.98684815 22.6931143,9.85258889 22.5814,9.73658889 L13.9794,1.30081111 C13.860019,1.19125556 13.7242095,1.10103333 13.5785429,1.03336667 C13.5358286,1.0279963 13.492019,1.0279963 13.4482095,1.03336667 C13.3036381,0.951737037 13.1415429,0.899107407 12.9761619,0.8787 L4.30187619,0.8787 C1.92520952,0.8787 -0.000219047619,2.76692222 -0.000219047619,5.09658889 L-0.000219047619,24.7811444 C-0.000219047619,27.1108111 1.92520952,29.0001074 4.30187619,29.0001074 L18.6396381,29.0001074 C21.0152095,29.0001074 22.9395429,27.1108111 22.9395429,24.7811444 L22.9395429,10.7215148 L22.9395429,10.636663 Z" id="Fill-6" fill="#30384e" mask="url(#mask-4)"></path>
                </g>
                <g id="Group-11" transform="translate(25.000000, 30.000000)">
                    <mask id="mask-6" fill="white">
                        <use xlink:href="#path-5"></use>
                    </mask>
                    <g id="Clip-10"></g>
                    <path d="M14.3375429,17.7513296 L12.9038762,17.7513296 L12.9038762,16.3453667 C12.9038762,15.5688111 12.2609714,14.9394037 11.4702095,14.9394037 C10.6783524,14.9394037 10.0365429,15.5688111 10.0365429,16.3453667 L10.0365429,17.7513296 L8.60287619,17.7513296 C7.81101905,17.7513296 7.16920952,18.380737 7.16920952,19.1572926 C7.16920952,19.9338481 7.81101905,20.5632556 8.60287619,20.5632556 L10.0365429,20.5632556 L10.0365429,21.9692185 C10.0365429,22.7457741 10.6783524,23.3751815 11.4702095,23.3751815 C12.2609714,23.3751815 12.9038762,22.7457741 12.9038762,21.9692185 L12.9038762,20.5632556 L14.3375429,20.5632556 C15.1294,20.5632556 15.7723048,19.9338481 15.7723048,19.1572926 C15.7723048,18.380737 15.1294,17.7513296 14.3375429,17.7513296 L14.3375429,17.7513296 Z M20.0722095,24.7811444 C20.0722095,25.5587741 19.4304,26.1871074 18.6396381,26.1871074 L4.30187619,26.1871074 C3.50892381,26.1871074 2.86711429,25.5587741 2.86711429,24.7811444 L2.86711429,5.09658889 C2.86711429,4.32003333 3.50892381,3.69062593 4.30187619,3.69062593 L11.4702095,3.69062593 L11.4702095,7.90851481 C11.4702095,10.2381815 13.3967333,12.1274778 15.7723048,12.1274778 L20.0722095,12.1274778 L20.0722095,24.7811444 Z M14.3375429,5.67336667 L18.0514952,9.31555185 L15.7723048,9.31555185 C14.9793524,9.31555185 14.3375429,8.68614444 14.3375429,7.90851481 L14.3375429,5.67336667 Z M22.9395429,10.636663 C22.9253048,10.5077741 22.8957333,10.3799593 22.8541143,10.2564407 L22.8541143,10.1307741 C22.7851143,9.98684815 22.6931143,9.85258889 22.5814,9.73658889 L13.9794,1.30081111 C13.860019,1.19125556 13.7242095,1.10103333 13.5785429,1.03336667 C13.5358286,1.0279963 13.492019,1.0279963 13.4482095,1.03336667 C13.3036381,0.951737037 13.1415429,0.899107407 12.9761619,0.8787 L4.30187619,0.8787 C1.92520952,0.8787 -0.000219047619,2.76692222 -0.000219047619,5.09658889 L-0.000219047619,24.7811444 C-0.000219047619,27.1108111 1.92520952,29.0001074 4.30187619,29.0001074 L18.6396381,29.0001074 C21.0152095,29.0001074 22.9395429,27.1108111 22.9395429,24.7811444 L22.9395429,10.7215148 L22.9395429,10.636663 Z" id="Fill-9" fill="#30384e" mask="url(#mask-6)"></path>
                </g>
            </g>
        </g>
    </g>
</svg>