<?xml version="1.0" ?>
<!DOCTYPE svg  PUBLIC '-//W3C//DTD SVG 1.1//EN'  'http://www.w3.org/Graphics/SVG/1.1/DTD/svg11.dtd'>
<svg enable-background="new 0 0 23 24" height="24px" id="Layer_1" version="1.1" viewBox="0 0 24 24" width="24px" xml:space="preserve"
    xmlns="http://www.w3.org/2000/svg"
    xmlns:xlink="http://www.w3.org/1999/xlink">
    <g style="fill: #320e3b">
        <path d="M22,0h-7H8H1C0.4,0,0,0.4,0,1v22c0,0.6,0.4,1,1,1h7h7h7c0.6,0,1-0.4,1-1V1C23,0.4,22.6,0,22,0z M2,2h5v20H2V2z M9,2h5v20H9   V2z M21,22h-5V2h5V22z"/>
        <path d="M4.5,4C3.7,4,3,4.7,3,5.5S3.7,7,4.5,7S6,6.3,6,5.5S5.3,4,4.5,4z M4.5,6C4.2,6,4,5.8,4,5.5S4.2,5,4.5,5S5,5.2,5,5.5   S4.8,6,4.5,6z"/>
        <path d="M11.5,4C10.7,4,10,4.7,10,5.5S10.7,7,11.5,7S13,6.3,13,5.5S12.3,4,11.5,4z M11.5,6C11.2,6,11,5.8,11,5.5S11.2,5,11.5,5   S12,5.2,12,5.5S11.8,6,11.5,6z"/>
        <path d="M18.5,7C19.3,7,20,6.3,20,5.5S19.3,4,18.5,4S17,4.7,17,5.5S17.7,7,18.5,7z M18.5,5C18.8,5,19,5.2,19,5.5S18.8,6,18.5,6   S18,5.8,18,5.5S18.2,5,18.5,5z"/>
        <rect height="1" width="3" x="3" y="11"/>
        <rect height="1" width="3" x="3" y="13"/>
        <rect height="1" width="3" x="3" y="15"/>
        <rect height="1" width="3" x="10" y="11"/>
        <rect height="1" width="3" x="10" y="13"/>
        <rect height="1" width="3" x="10" y="15"/>
        <rect height="1" width="3" x="17" y="11"/>
        <rect height="1" width="3" x="17" y="13"/>
        <rect height="1" width="3" x="17" y="15"/>
    </g>
</svg>