<svg xmlns="http://www.w3.org/2000/svg" width="24" height="24" viewBox="0 0 24 24">
  <g fill="none" fill-rule="evenodd">
    <rect width="24" height="24"/>
    <path fill="#4C2A85" fill-rule="nonzero" d="M7,17 L7,19 L17,19 L17,10 L13,10 C12.4477153,10 12,9.55228475 12,9 L12,5 L7,5 L7,11 L13,11 C13.5522847,11 14,11.4477153 14,12 L14,16 C14,16.5522847 13.5522847,17 13,17 L7,17 Z M5,17 C4.44771525,17 4,16.5522847 4,16 L4,12 C4,11.4477153 4.44771525,11 5,11 L5,4 C5,3.44771525 5.44771525,3 6,3 L14,3 C14.2652165,3 14.5195704,3.10535684 14.7071068,3.29289322 L18.7071068,7.29289322 C18.8946432,7.4804296 19,7.73478351 19,8 L19,20 C19,20.5522847 18.5522847,21 18,21 L6,21 C5.44771525,21 5,20.5522847 5,20 L5,17 Z M16.5857864,8 L14,5.41421356 L14,8 L16.5857864,8 Z M6,13 L6,15 L12,15 L12,13 L6,13 Z"/>
  </g>
</svg>
