<svg width="16" height="16" viewBox="0 0 16 16" version="1.1" xmlns="http://www.w3.org/2000/svg" xmlns:xlink="http://www.w3.org/1999/xlink">
<title>Help Icon</title>
<desc>Help Icon</desc>
<g id="Canvas" transform="translate(-397 -999)">
<g id="icon/help-24">
<g id="Combined Shape">
<use xlink:href="#path0_fill" transform="translate(397.5 999.5)" fill="#4C2A85"/>
</g>
</g>
</g>
<defs>
<path id="path0_fill" fill-rule="evenodd" d="M 0 7.5C 0 11.6422 3.35785 15 7.5 15C 11.6422 15 15 11.6422 15 7.5C 15 3.35785 11.6422 0 7.5 0C 3.35785 0 0 3.35785 0 7.5ZM 13.5 7.5C 13.5 10.8137 10.8137 13.5 7.5 13.5C 4.18628 13.5 1.5 10.8137 1.5 7.5C 1.5 4.18628 4.18628 1.5 7.5 1.5C 10.8137 1.5 13.5 4.18628 13.5 7.5ZM 7.5 11.25C 7.91422 11.25 8.25 10.9142 8.25 10.5C 8.25 10.0858 7.91422 9.75 7.5 9.75C 7.08578 9.75 6.75 10.0858 6.75 10.5C 6.75 10.9142 7.08578 11.25 7.5 11.25ZM 7.5 9.375C 7.91422 9.375 8.25 9.03918 8.25 8.625L 8.25 8.29828C 8.25082 8.30939 8.25327 8.31543 8.25977 8.3158C 8.27072 8.31641 8.29321 8.3009 8.3389 8.26666C 8.37976 8.23602 8.62283 8.06415 8.70001 8.00623C 9.37848 7.49738 9.75 6.90912 9.75 6C 9.75 4.64124 8.73318 3.75 7.5 3.75C 6.30988 3.75 5.25 4.76526 5.25 6C 5.25 6.41418 5.58578 6.75 6 6.75C 6.41422 6.75 6.75 6.41418 6.75 6C 6.75 5.60846 7.12424 5.25 7.5 5.25C 7.94553 5.25 8.25 5.51685 8.25 6C 8.25 6.37213 8.13403 6.55573 7.79999 6.80627C 7.74524 6.84735 7.50217 7.01923 7.4389 7.06665C 6.99716 7.39795 6.75 7.73163 6.75 8.25L 6.75 8.625C 6.75 9.03918 7.08578 9.375 7.5 9.375Z"/>
</defs>
</svg>
