<svg xmlns="http://www.w3.org/2000/svg" width="24" height="24" viewBox="0 0 24 24">
  <g fill="none" fill-rule="evenodd">
    <rect width="24" height="24"/>
    <path fill="#494949" fill-rule="nonzero" d="M12,22 C6.4771525,22 2,17.5228475 2,12 C2,6.4771525 6.4771525,2 12,2 C17.5228475,2 22,6.4771525 22,12 C22,17.5228475 17.5228475,22 12,22 Z M12,20 C16.418278,20 20,16.418278 20,12 C20,7.581722 16.418278,4 12,4 C7.581722,4 4,7.581722 4,12 C4,16.418278 7.581722,20 12,20 Z M12,17 C11.4477153,17 11,16.5522847 11,16 C11,15.4477153 11.4477153,15 12,15 C12.5522847,15 13,15.4477153 13,16 C13,16.5522847 12.5522847,17 12,17 Z M13,13.5 C13,14.0522847 12.5522847,14.5 12,14.5 C11.4477153,14.5 11,14.0522847 11,13.5 L11,13 C11,12.3088492 11.3295635,11.8639385 11.9185185,11.4222222 C12.0028959,11.3589392 12.3269699,11.1297726 12.4,11.075 C12.8453727,10.7409705 13,10.4961439 13,10 C13,9.35581667 12.5940379,9 12,9 C11.4989632,9 11,9.47796518 11,10 C11,10.5522847 10.5522847,11 10,11 C9.44771525,11 9,10.5522847 9,10 C9,8.35370165 10.4131726,7 12,7 C13.6442477,7 15,8.18828657 15,10 C15,11.2121895 14.5046273,11.9965295 13.6,12.675 C13.4971041,12.7521719 13.1730301,12.9813386 13.1185185,13.0222222 C13.0214788,13.095002 13.0029194,13.1042296 13,13.0643867 L13,13.5 Z"/>
  </g>
</svg>
