<svg xmlns="http://www.w3.org/2000/svg" xmlns:xlink="http://www.w3.org/1999/xlink" width="59" height="59" viewBox="0 0 59 59">
    <defs>
        <path id="a" d="M23.333 5h-15v30h23.334V13.333H25c-.92 0-1.667-.746-1.667-1.666V5zm3.334.69V10h4.31l-4.31-4.31zM8.333 1.667h17.643c.884 0 1.732.35 2.357.976l5.69 5.69c.626.625.977 1.473.977 2.357V35a3.333 3.333 0 0 1-3.333 3.333H8.333A3.333 3.333 0 0 1 5 35V5a3.333 3.333 0 0 1 3.333-3.333zm10 26.666v3.334h-6.666v-3.334h6.666zm6.667-5v3.334H11.667v-3.334H25zm3.333-5v3.334H11.667v-3.334h16.666z"/>
    </defs>
    <g fill="none" fill-rule="evenodd" transform="translate(-5)">
        <circle cx="39.5" cy="24.5" r="24.5" fill="#D8D8D8"/>
        <g transform="translate(0 20)">
            <mask id="b" fill="#fff">
                <use xlink:href="#a"/>
            </mask>
            <use fill="#00698F" fill-rule="nonzero" xlink:href="#a"/>
            <g fill="#000" mask="url(#b)">
                <path d="M0 0h40v40H0z"/>
            </g>
        </g>
    </g>
</svg>
