<svg xmlns="http://www.w3.org/2000/svg" xmlns:xlink="http://www.w3.org/1999/xlink" width="52" height="65" viewBox="0 0 52 65">
    <defs>
        <path id="a" d="M18 32c-7.732 0-14-6.268-14-14S10.268 4 18 4s14 6.268 14 14-6.268 14-14 14zm0-4c5.523 0 10-4.477 10-10S23.523 8 18 8 8 12.477 8 18s4.477 10 10 10zm18.071 5.243a2 2 0 1 1-2.828 2.828L29 31.828A2 2 0 1 1 31.828 29l4.243 4.243z"/>
    </defs>
    <g fill="none" fill-rule="evenodd" transform="translate(0 -4)">
        <circle cx="24.5" cy="44.5" r="24.5" fill="#413157" opacity=".256"/>
        <g transform="translate(15)">
            <mask id="b" fill="#fff">
                <use xlink:href="#a"/>
            </mask>
            <use fill="#4D5766" fill-rule="nonzero" xlink:href="#a"/>
            <g fill="#000" mask="url(#b)">
                <path d="M0 0h40v40H0z"/>
            </g>
        </g>
    </g>
</svg>
