<?xml version="1.0" encoding="UTF-8"?>
<svg width="44px" height="42px" viewBox="0 0 44 42" version="1.1" xmlns="http://www.w3.org/2000/svg" xmlns:xlink="http://www.w3.org/1999/xlink">
    <!-- Generator: Sketch 61.2 (89653) - https://sketch.com -->
    <title>icons/lightbulb</title>
    <desc>Created with Sketch.</desc>
    <defs>
        <polygon id="path-1" points="0.0823382838 0.36583569 20.6054123 0.36583569 20.6054123 29 0.0823382838 29"></polygon>
        <polygon id="path-3" points="0.154933333 0.50625 3.48826667 0.50625 3.48826667 9.881125 0.154933333 9.881125"></polygon>
        <polygon id="path-5" points="0 0.237184319 8.70771083 0.237184319 8.70771083 5.63166667 0 5.63166667"></polygon>
        <polygon id="path-7" points="0.527842884 0.237499226 9.598125 0.237499226 9.598125 5.63166667 0.527842884 5.63166667"></polygon>
    </defs>
    <g id="Design-Library" stroke="none" stroke-width="1" fill="none" fill-rule="evenodd">
        <g id="Icons" transform="translate(-636.000000, -559.000000)">
            <g id="icon/lightbulb" transform="translate(633.000000, 559.000000)">
                <g id="Group-21" transform="translate(3.000000, 0.000000)">
                    <g id="Group-3" transform="translate(12.000000, 13.000000)">
                        <mask id="mask-2" fill="white">
                            <use xlink:href="#path-1"></use>
                        </mask>
                        <g id="Clip-2"></g>
                        <path d="M16.335025,15.6728429 C15.045275,17.2252306 14.292775,19.1634959 14.193025,21.1911286 L11.627525,21.1911286 L11.627525,13.1439245 C11.627525,12.4254347 11.0529417,11.8424755 10.3441917,11.8424755 C9.63660833,11.8424755 9.062025,12.4254347 9.062025,13.1439245 L9.062025,21.1911286 L6.496525,21.1911286 C6.46269167,19.1978224 5.73585833,17.2796796 4.443775,15.7770061 C1.72019167,12.4662714 2.15769167,7.54159796 5.42144167,4.77831224 C6.39385833,3.95447551 7.551775,3.38749592 8.792525,3.12649592 C12.955775,2.25708776 17.026275,4.97657755 17.8831917,9.20051633 C17.988775,9.71955714 18.0418583,10.2486592 18.0413817,10.7795367 C18.0506083,12.562149 17.4474417,14.2926796 16.335025,15.6728429 L16.335025,15.6728429 Z M14.193025,25.0954755 C14.193025,25.8145571 13.619025,26.3969245 12.910275,26.3969245 L7.779275,26.3969245 C7.070525,26.3969245 6.496525,25.8145571 6.496525,25.0954755 L6.496525,23.7940265 L14.193025,23.7940265 L14.193025,25.0954755 Z M16.874025,2.73647551 C14.4846917,0.742577551 11.3364417,-0.0510755102 8.30485833,0.575679592 C4.22910833,1.41135306 1.05344167,4.65935306 0.261858333,8.80102653 C-0.309808333,11.8756184 0.499275,15.0484551 2.46860833,17.4560469 C3.371025,18.4893939 3.88844167,19.8109653 3.93044167,21.1911286 L3.93044167,25.0954755 C3.93044167,27.2521286 5.65360833,29.0004143 7.779275,29.0004143 L12.910275,29.0004143 C15.0353583,29.0004143 16.758525,27.2521286 16.758525,25.0954755 L16.758525,21.4385163 C16.8016917,19.9145367 17.353525,18.4509245 18.3236083,17.2867816 C21.861525,12.8468224 21.2146083,6.34372041 16.874025,2.71043469 L16.874025,2.73647551 Z" id="Fill-1" fill="#042330" mask="url(#mask-2)"></path>
                    </g>
                    <g id="Group-6" transform="translate(20.000000, 0.000000)">
                        <mask id="mask-4" fill="white">
                            <use xlink:href="#path-3"></use>
                        </mask>
                        <g id="Clip-5"></g>
                        <path d="M1.8216,9.881125 C0.900933333,9.881125 0.154933333,9.18175 0.154933333,8.318625 L0.154933333,2.068625 C0.154933333,1.2055 0.900933333,0.506125 1.8216,0.506125 C2.74226667,0.506125 3.48826667,1.2055 3.48826667,2.068625 L3.48826667,8.318625 C3.48826667,9.18175 2.74226667,9.881125 1.8216,9.881125" id="Fill-4" fill="#042330" mask="url(#mask-4)"></path>
                    </g>
                    <path d="M13.3923592,13 C12.894961,13 12.4046409,12.7818323 12.0899867,12.3699414 L8.30770143,7.42602893 C7.78520813,6.74341456 7.9441439,5.78824333 8.66289392,5.29201874 C9.38293087,4.79579415 10.3873792,4.94735042 10.910516,5.6299648 L14.6928012,10.5744884 C15.2146511,11.2564917 15.0557153,12.212274 14.3369653,12.7078875 C14.0506235,12.9052773 13.7205261,13 13.3923592,13" id="Fill-7" fill="#042330"></path>
                    <g id="Group-11" transform="translate(0.000000, 14.000000)">
                        <mask id="mask-6" fill="white">
                            <use xlink:href="#path-5"></use>
                        </mask>
                        <g id="Clip-10"></g>
                        <path d="M7.20762,5.63166667 C7.05342,5.63166667 6.89742,5.605 6.74382,5.54966667 L1.03722,3.48966667 C0.24882,3.205 -0.18198,2.265 0.07362,1.38966667 C0.32982,0.513 1.17702,0.0343333333 1.96422,0.319666667 L7.67022,2.37966667 C8.45862,2.66366667 8.89002,3.60433333 8.63382,4.47966667 C8.42742,5.18433333 7.84002,5.63166667 7.20762,5.63166667" id="Fill-9" fill="#042330" mask="url(#mask-6)"></path>
                    </g>
                    <path d="M2.55043626,31 C1.89681191,31 1.28969784,30.5853741 1.07637072,29.9322301 C0.811572246,29.120898 1.25745071,28.2490095 2.07231067,27.9857746 L7.96981308,26.0763943 C8.78343276,25.8119236 9.658446,26.2562098 9.92386462,27.0681598 C10.188043,27.8794919 9.74278463,28.7513804 8.92792467,29.0146153 L3.02980212,30.9239955 C2.87104706,30.9752831 2.70981146,31 2.55043626,31" id="Fill-12" fill="#042330"></path>
                    <path d="M31.6076408,13 C31.2794739,13 30.9493765,12.9052659 30.6630347,12.7078521 C29.9442847,12.2121787 29.7853489,11.2562806 30.3071988,10.5741948 L34.089484,5.62907276 C34.6132643,4.94698695 35.6183561,4.79663471 36.3371061,5.29108579 C37.0558561,5.78737045 37.2147919,6.74265729 36.6922986,7.42535428 L32.9100133,12.3698652 C32.5953591,12.7818059 32.1043956,13 31.6076408,13" id="Fill-14" fill="#042330"></path>
                    <g id="Group-18" transform="translate(34.000000, 14.000000)">
                        <mask id="mask-8" fill="white">
                            <use xlink:href="#path-7"></use>
                        </mask>
                        <g id="Clip-17"></g>
                        <path d="M2.0904375,5.63166667 C1.4316875,5.63166667 0.8198125,5.18433333 0.6048125,4.47966667 C0.3379375,3.60433333 0.7873125,2.66366667 1.6085625,2.37966667 L7.5523125,0.319666667 C8.3716875,0.035 9.2541875,0.513666667 9.5216875,1.38966667 C9.7879375,2.265 9.3391875,3.205 8.5179375,3.48966667 L2.5735625,5.54966667 C2.4135625,5.605 2.2510625,5.63166667 2.0904375,5.63166667" id="Fill-16" fill="#042330" mask="url(#mask-8)"></path>
                    </g>
                    <path d="M41.4495637,31 C41.2901885,31 41.1289529,30.9752831 40.9701979,30.9239955 L35.0720753,29.0146153 C34.2572154,28.7513804 33.811957,27.8794919 34.0761354,27.0681598 C34.341554,26.2562098 35.2159471,25.8119236 36.0301869,26.0763943 L41.9276893,27.9857746 C42.7425493,28.2490095 43.1884278,29.120898 42.9236293,29.9322301 C42.7103022,30.5853741 42.1031881,31 41.4495637,31" id="Fill-19" fill="#042330"></path>
                </g>
            </g>
        </g>
    </g>
</svg>