<svg xmlns="http://www.w3.org/2000/svg" width="65" height="39" viewBox="0 0 65 39">
    <path fill="#30384D" fill-rule="nonzero" d="M5.134 33.857a3.005 3.005 0 0 0-.992-.631c-.732-.301-1.552-.301-2.284 0a3.005 3.005 0 0 0-.992.631 3.007 3.007 0 0 0-.63.992 3.008 3.008 0 0 0 .63 3.278c.292.266.628.48.992.632a2.824 2.824 0 0 0 2.284 0c.364-.153.7-.366.992-.632a3.008 3.008 0 0 0 .63-3.278 3.007 3.007 0 0 0-.63-.992zM16.25 6h45.5C63.545 6 65 4.657 65 3s-1.455-3-3.25-3h-45.5C14.455 0 13 1.343 13 3s1.455 3 3.25 3zM5.984 17.865c-1.006-.852-2.51-1.1-3.814-.63a4.16 4.16 0 0 0-1.154.63 2.988 2.988 0 0 0-.735.991 2.458 2.458 0 0 0 0 2.282c.177.364.425.699.735.99.34.266.73.48 1.154.631a3.79 3.79 0 0 0 2.66 0 4.16 4.16 0 0 0 1.154-.63c.31-.292.558-.627.735-.991a2.458 2.458 0 0 0 0-2.282 2.988 2.988 0 0 0-.735-.99zM61.75 16h-45.5C14.455 16 13 17.343 13 19s1.455 3 3.25 3h45.5c1.795 0 3.25-1.343 3.25-3s-1.455-3-3.25-3zM5.984.866A3.616 3.616 0 0 0 4.83.236C3.527-.237 2.022.012 1.016.865c-.31.292-.558.628-.735.992a2.463 2.463 0 0 0 0 2.284c.177.364.425.7.735.992.34.265.73.479 1.154.63 1.303.472 2.808.223 3.814-.63.31-.292.558-.628.735-.992a2.463 2.463 0 0 0 0-2.284 3.439 3.439 0 0 0-.735-.992zM61.75 33h-45.5C14.455 33 13 34.343 13 36s1.455 3 3.25 3h45.5c1.795 0 3.25-1.343 3.25-3s-1.455-3-3.25-3z"/>
</svg>
