<?xml version="1.0" encoding="UTF-8"?>
<svg width="36px" height="46px" viewBox="0 0 36 46" version="1.1" xmlns="http://www.w3.org/2000/svg" xmlns:xlink="http://www.w3.org/1999/xlink">
    <!-- Generator: Sketch 61.2 (89653) - https://sketch.com -->
    <title>icons/my-data</title>
    <desc>Created with Sketch.</desc>
    <defs>
        <path d="M24.75,32.2 L11.25,32.2 C10.0073593,32.2 9,33.2297451 9,34.5 C9,35.7702549 10.0073593,36.8 11.25,36.8 L24.75,36.8 C25.9926407,36.8 27,35.7702549 27,34.5 C27,33.2297451 25.9926407,32.2 24.75,32.2 Z M11.25,18.4 L13.5,18.4 C14.7426407,18.4 15.75,17.3702549 15.75,16.1 C15.75,14.8297451 14.7426407,13.8 13.5,13.8 L11.25,13.8 C10.0073593,13.8 9,14.8297451 9,16.1 C9,17.3702549 10.0073593,18.4 11.25,18.4 Z M24.75,23 L11.25,23 C10.0073593,23 9,24.0297451 9,25.3 C9,26.5702549 10.0073593,27.6 11.25,27.6 L24.75,27.6 C25.9926407,27.6 27,26.5702549 27,25.3 C27,24.0297451 25.9926407,23 24.75,23 Z M35.3475,30.567 C35.1335167,30.3576066 34.8811905,30.1934671 34.605,30.084 C34.0616364,29.8320868 33.4383636,29.8320868 32.895,30.084 C32.6188095,30.1934671 32.3664833,30.3576066 32.1525,30.567 C31.9537554,30.7905622 31.7939442,31.0472747 31.68,31.326 C31.3276574,32.1825133 31.5140747,33.1716104 32.1525,33.833 C32.5771174,34.263529 33.1519433,34.5035345 33.75,34.5000385 C34.0440238,34.496366 34.3344998,34.4338542 34.605,34.316 C34.877666,34.1995237 35.1287979,34.0361612 35.3475,33.833 C35.9859253,33.1716104 36.1723426,32.1825133 35.82,31.326 C35.7060558,31.0472747 35.5462446,30.7905622 35.3475,30.567 L35.3475,30.567 Z M36,15.962 C35.9765634,15.7507103 35.9313112,15.5425503 35.865,15.341 L35.865,15.134 C35.7568176,14.8975134 35.6125135,14.6801291 35.4375,14.49 L35.4375,14.49 L21.9375,0.69 L21.9375,0.69 C21.7515041,0.511097272 21.5388456,0.363586486 21.3075,0.253 C21.2403371,0.243248424 21.1721629,0.243248424 21.105,0.253 C20.8764333,0.119005116 20.6240025,0.0329916686 20.3625,0 L6.75,0 C3.02207794,0 0,3.08923523 0,6.9 L0,39.1 C0,42.9107648 3.02207794,46 6.75,46 L24.75,46 C25.9926407,46 27,44.9702549 27,43.7 C27,42.4297451 25.9926407,41.4 24.75,41.4 L6.75,41.4 C5.50735931,41.4 4.5,40.3702549 4.5,39.1 L4.5,6.9 C4.5,5.62974508 5.50735931,4.6 6.75,4.6 L18,4.6 L18,11.5 C18,15.3107648 21.0220779,18.4 24.75,18.4 L31.5,18.4 L31.5,23 C31.5,24.2702549 32.5073593,25.3 33.75,25.3 C34.9926407,25.3 36,24.2702549 36,23 L36,16.1 C36,16.1 36,16.1 36,15.962 Z M24.75,13.8 C23.5073593,13.8 22.5,12.7702549 22.5,11.5 L22.5,7.843 L28.3275,13.8 L24.75,13.8 Z M33.75,36.8 C32.5073593,36.8 31.5,37.8297451 31.5,39.1 L31.5,43.7 C31.5,44.9702549 32.5073593,46 33.75,46 C34.9926407,46 36,44.9702549 36,43.7 L36,39.1 C36,37.8297451 34.9926407,36.8 33.75,36.8 Z" id="path-1"></path>
    </defs>
    <g id="Design-Library" stroke="none" stroke-width="1" fill="none" fill-rule="evenodd">
        <g id="Icons" transform="translate(-482.000000, -370.000000)">
            <g id="icon/my-data" transform="translate(482.000000, 370.000000)">
                <g id="icons/my-data">
                    <g id="colour/@bggrey">
                        <mask id="mask-2" fill="white">
                            <use xlink:href="#path-1"></use>
                        </mask>
                        <g id="Mask" fill-rule="nonzero"></g>
                        <g id="colour/@iconsgrey" mask="url(#mask-2)" fill="#30384d">
                            <rect id="Fill" x="0" y="0" width="52" height="52.7647059"></rect>
                        </g>
                    </g>
                </g>
            </g>
        </g>
    </g>
</svg>