<svg height='100px' width='100px'  fill="#000000" xmlns="http://www.w3.org/2000/svg" xmlns:xlink="http://www.w3.org/1999/xlink" version="1.1" x="0px" y="0px" viewBox="0 0 48 48" style="enable-background:new 0 0 48 48;" xml:space="preserve"><title>Png 48px Solid - 70 Basic Icons</title><g><path d="M24,3C12.4,3,3,12.4,3,24s9.4,21,21,21s21-9.4,21-21S35.6,3,24,3z M32,26h-6v6.1c0,1.1-0.9,2-2,2s-2-0.9-2-2   V26h-6c-1.1,0-2-0.9-2-2s0.9-2,2-2h6v-6.1c0-1.1,0.9-2,2-2s2,0.9,2,2V22h6c1.1,0,2,0.9,2,2S33.1,26,32,26z"></path></g></svg>