<?xml version="1.0" encoding="UTF-8"?>
<svg width="39px" height="39px" viewBox="0 0 39 39" version="1.1" xmlns="http://www.w3.org/2000/svg" xmlns:xlink="http://www.w3.org/1999/xlink">
    <!-- Generator: Sketch 61.2 (89653) - https://sketch.com -->
    <title>icon/print</title>
    <desc>Created with Sketch.</desc>
    <defs>
        <path d="M9.75,15.6 C8.67304474,15.6 7.8,16.4730447 7.8,17.55 C7.8,18.6269553 8.67304474,19.5 9.75,19.5 C10.8269553,19.5 11.7,18.6269553 11.7,17.55 C11.7,16.4730447 10.8269553,15.6 9.75,15.6 Z M33.15,7.8 L31.2,7.8 L31.2,1.95 C31.2,0.873044738 30.3269553,0 29.25,0 L9.75,0 C8.67304474,0 7.8,0.873044738 7.8,1.95 L7.8,7.8 L5.85,7.8 C2.61913421,7.8 0,10.4191342 0,13.65 L0,25.35 C0,28.5808658 2.61913421,31.2 5.85,31.2 L7.8,31.2 L7.8,37.05 C7.8,38.1269553 8.67304474,39 9.75,39 L29.25,39 C30.3269553,39 31.2,38.1269553 31.2,37.05 L31.2,31.2 L33.15,31.2 C36.3808658,31.2 39,28.5808658 39,25.35 L39,13.65 C39,10.4191342 36.3808658,7.8 33.15,7.8 Z M11.7,3.9 L27.3,3.9 L27.3,7.8 L11.7,7.8 L11.7,3.9 Z M27.3,35.1 L11.7,35.1 L11.7,27.3 L27.3,27.3 L27.3,35.1 Z M35.1,25.35 C35.1,26.4269553 34.2269553,27.3 33.15,27.3 L31.2,27.3 L31.2,25.35 C31.2,24.2730447 30.3269553,23.4 29.25,23.4 L9.75,23.4 C8.67304474,23.4 7.8,24.2730447 7.8,25.35 L7.8,27.3 L5.85,27.3 C4.77304474,27.3 3.9,26.4269553 3.9,25.35 L3.9,13.65 C3.9,12.5730447 4.77304474,11.7 5.85,11.7 L33.15,11.7 C34.2269553,11.7 35.1,12.5730447 35.1,13.65 L35.1,25.35 Z" id="path-1"></path>
    </defs>
    <g id="Design-Library" stroke="none" stroke-width="1" fill="none" fill-rule="evenodd">
        <g id="Icons" transform="translate(-480.000000, -463.000000)">
            <g id="icon/print" transform="translate(480.000000, 463.000000)">
                <g id="print">
                    <mask id="mask-2" fill="white">
                        <use xlink:href="#path-1"></use>
                    </mask>
                    <use id="Mask" fill="#FFFFFF" fill-rule="nonzero" xlink:href="#path-1"></use>
                    <g id="colour/@iconsgrey" mask="url(#mask-2)" fill="#D4D4D4">
                        <g transform="translate(-4.780645, -2.516129)" id="Fill">
                            <rect x="0" y="0" width="56.6129032" height="47.8064516"></rect>
                        </g>
                    </g>
                </g>
            </g>
        </g>
    </g>
</svg>