<?xml version="1.0" encoding="UTF-8"?>
<svg width="12px" height="16px" viewBox="0 0 12 16" version="1.1" xmlns="http://www.w3.org/2000/svg" xmlns:xlink="http://www.w3.org/1999/xlink">
    <!-- Generator: Sketch 48.2 (47327) - http://www.bohemiancoding.com/sketch -->
    <title>icon/publisher-passive-24</title>
    <desc>Created with Sketch.</desc>
    <defs></defs>
    <g id="icon/publisher-passive-24" stroke="none" stroke-width="1" fill="none" fill-rule="evenodd" transform="translate(-6.000000, -4.000000)">
        <g>
            <rect id="Rectangle-Copy-7" x="0" y="0" width="24" height="24"></rect>
            <path d="M18,19 C18,19.5522847 17.5522847,20 17,20 C16.4477153,20 16,19.5522847 16,19 C16,16.790861 14.209139,15 12,15 C9.790861,15 8,16.790861 8,19 C8,19.5522847 7.55228475,20 7,20 C6.44771525,20 6,19.5522847 6,19 C6,15.6862915 8.6862915,13 12,13 C15.3137085,13 18,15.6862915 18,19 Z M12,12 C9.790861,12 8,10.209139 8,8 C8,5.790861 9.790861,4 12,4 C14.209139,4 16,5.790861 16,8 C16,10.209139 14.209139,12 12,12 Z M12,10 C13.1045695,10 14,9.1045695 14,8 C14,6.8954305 13.1045695,6 12,6 C10.8954305,6 10,6.8954305 10,8 C10,9.1045695 10.8954305,10 12,10 Z" id="Combined-Shape" fill="#F55860" fill-rule="nonzero"></path>
        </g>
    </g>
</svg>