<svg xmlns="http://www.w3.org/2000/svg" width="20" height="10" viewBox="0 0 20 10">
  <g fill="none" fill-rule="evenodd" transform="translate(-2 -7)">
    <rect width="24" height="24"/>
    <path fill="#C0C0C0" fill-rule="nonzero" d="M19.5857864,12 L16.2928932,8.70710678 C15.9023689,8.31658249 15.9023689,7.68341751 16.2928932,7.29289322 C16.6834175,6.90236893 17.3165825,6.90236893 17.7071068,7.29289322 L21.7071068,11.2928932 C22.0976311,11.6834175 22.0976311,12.3165825 21.7071068,12.7071068 L17.7071068,16.7071068 C17.3165825,17.0976311 16.6834175,17.0976311 16.2928932,16.7071068 C15.9023689,16.3165825 15.9023689,15.6834175 16.2928932,15.2928932 L19.5857864,12 Z M7.70710678,15.2928932 C8.09763107,15.6834175 8.09763107,16.3165825 7.70710678,16.7071068 C7.31658249,17.0976311 6.68341751,17.0976311 6.29289322,16.7071068 L2.29289322,12.7071068 C1.90236893,12.3165825 1.90236893,11.6834175 2.29289322,11.2928932 L6.29289322,7.29289322 C6.68341751,6.90236893 7.31658249,6.90236893 7.70710678,7.29289322 C8.09763107,7.68341751 8.09763107,8.31658249 7.70710678,8.70710678 L4.41421356,12 L7.70710678,15.2928932 Z M10,13 C9.44771525,13 9,12.5522847 9,12 C9,11.4477153 9.44771525,11 10,11 L14,11 C14.5522847,11 15,11.4477153 15,12 C15,12.5522847 14.5522847,13 14,13 L10,13 Z"/>
  </g>
</svg>
