<svg xmlns="http://www.w3.org/2000/svg" width="24" height="24" viewBox="0 0 24 24">
  <g fill="none" fill-rule="evenodd">
    <rect width="24" height="24"/>
    <path fill="#4C2A85" fill-rule="nonzero" d="M6.72430446,14.933292 C7.24642766,14.7532758 7.81562406,15.0306084 7.99564021,15.5527316 C8.17565635,16.0748548 7.8983238,16.6440512 7.3762006,16.8240673 C6.82240008,17.0150051 6.40422564,17.231722 6.15877988,17.4401789 C6.02773563,17.5514746 6,17.6000368 6,17.5852395 C6,18.0766961 8.674143,18.9986795 12,18.9986795 C15.325857,18.9986795 18,18.0766961 18,17.5852395 C18,17.6000368 17.9722644,17.5514746 17.8412201,17.4401789 C17.5957744,17.231722 17.1775999,17.0150051 16.6237994,16.8240673 C16.1016762,16.6440512 15.8243436,16.0748548 16.0043598,15.5527316 C16.1843759,15.0306084 16.7535723,14.7532758 17.2756955,14.933292 C18.0459626,15.1988625 18.6765829,15.5256784 19.1358966,15.9157732 C19.6774975,16.3757543 20,16.9404223 20,17.5852395 C20,19.7595951 16.4061295,20.9986795 12,20.9986795 C7.5938705,20.9986795 4,19.7595951 4,17.5852395 C4,16.9404223 4.32250253,16.3757543 4.86410337,15.9157732 C5.32341707,15.5256784 5.95403742,15.1988625 6.72430446,14.933292 Z M12,16.5 C10.2127166,16.5 6,11.9267998 6,8 C6,4.6862915 8.6862915,2 12,2 C15.3137085,2 18,4.6862915 18,8 C18,11.9267998 13.7872834,16.5 12,16.5 Z M12.2953615,14.1479719 C12.8146862,13.7623358 13.3617241,13.2766734 13.8625336,12.7330096 C15.2055781,11.2750402 16,9.6613194 16,8 C16,5.790861 14.209139,4 12,4 C9.790861,4 8,5.790861 8,8 C8,9.6613194 8.79442185,11.2750402 10.1374664,12.7330096 C10.6382759,13.2766734 11.1853138,13.7623358 11.7046385,14.1479719 C11.8090906,14.2255351 11.9087352,14.2961634 12,14.3578445 C12.0912648,14.2961634 12.1909094,14.2255351 12.2953615,14.1479719 Z M12,11 C10.3431458,11 9,9.65685425 9,8 C9,6.34314575 10.3431458,5 12,5 C13.6568542,5 15,6.34314575 15,8 C15,9.65685425 13.6568542,11 12,11 Z M12,9 C12.5522847,9 13,8.55228475 13,8 C13,7.44771525 12.5522847,7 12,7 C11.4477153,7 11,7.44771525 11,8 C11,8.55228475 11.4477153,9 12,9 Z"/>
  </g>
</svg>
