<svg width="28" height="27" viewBox="0 0 28 27" version="1.1" xmlns="http://www.w3.org/2000/svg" xmlns:xlink="http://www.w3.org/1999/xlink">
<title>Search icon</title>
<desc>Search icon</desc>
<g id="Canvas" transform="translate(700 -246)">
<g id="Search icon">
<g id="Oval 2">
<use xlink:href="#path0_stroke" transform="translate(-697.886 247.957)" fill="#F1F7EE"/>
</g>
<g id="Line 2">
<use xlink:href="#path1_stroke" transform="translate(-678.336 267.545)" fill="#F1F7EE"/>
</g>
</g>
</g>
<defs>
<path id="path0_stroke" d="M 9.07679 19.4119C 14.7675 19.4119 19.3766 14.7904 19.3766 9.09442L 16.9305 9.09442C 16.9305 13.4439 13.412 16.9658 9.07679 16.9658L 9.07679 19.4119ZM 19.3766 9.09442C 19.3766 3.39847 14.7675 -1.22306 9.07679 -1.22306L 9.07679 1.22306C 13.412 1.22306 16.9305 4.74495 16.9305 9.09442L 19.3766 9.09442ZM 9.07679 -1.22306C 3.3861 -1.22306 -1.22306 3.39847 -1.22306 9.09442L 1.22306 9.09442C 1.22306 4.74495 4.74153 1.22306 9.07679 1.22306L 9.07679 -1.22306ZM -1.22306 9.09442C -1.22306 14.7904 3.3861 19.4119 9.07679 19.4119L 9.07679 16.9658C 4.74153 16.9658 1.22306 13.4439 1.22306 9.09442L -1.22306 9.09442Z"/>
<path id="path1_stroke" d="M 3.32361 5.06142C 3.80078 5.53952 4.57518 5.54027 5.05328 5.0631C 5.53138 4.58593 5.53213 3.81153 5.05496 3.33343L 3.32361 5.06142ZM 0.865674 -0.863995C 0.388502 -1.34209 -0.385897 -1.34285 -0.863995 -0.865674C -1.34209 -0.388502 -1.34285 0.385897 -0.865674 0.863995L 0.865674 -0.863995ZM 5.05496 3.33343L 0.865674 -0.863995L -0.865674 0.863995L 3.32361 5.06142L 5.05496 3.33343Z"/>
</defs>
</svg>
