<svg xmlns="http://www.w3.org/2000/svg" width="24" height="24" viewBox="0 0 24 24">
  <g fill="none" fill-rule="evenodd">
    <rect width="24" height="24" fill="#FAFBFC"/>
    <path fill="#494949" fill-rule="nonzero" d="M12,22 C6.4771525,22 2,17.5228475 2,12 C2,6.4771525 6.4771525,2 12,2 C17.5228475,2 22,6.4771525 22,12 C22,17.5228475 17.5228475,22 12,22 Z M12,20 C16.418278,20 20,16.418278 20,12 C20,7.581722 16.418278,4 12,4 C7.581722,4 4,7.581722 4,12 C4,16.418278 7.581722,20 12,20 Z M11.4618052,12.5475916 L15.2567059,8.33103527 C15.6261649,7.92052525 16.2584547,7.88724683 16.6689647,8.25670585 C17.0794748,8.62616487 17.1127532,9.25845471 16.7432941,9.66896473 L12.2432941,14.6689647 C11.860022,15.0948227 11.1980183,15.1122318 10.7928932,14.7071068 L8.29289322,12.2071068 C7.90236893,11.8165825 7.90236893,11.1834175 8.29289322,10.7928932 C8.68341751,10.4023689 9.31658249,10.4023689 9.70710678,10.7928932 L11.4618052,12.5475916 Z"/>
  </g>
</svg>
