<?xml version="1.0" encoding="UTF-8"?>
<svg width="57px" height="57px" viewBox="0 0 57 57" version="1.1" xmlns="http://www.w3.org/2000/svg" xmlns:xlink="http://www.w3.org/1999/xlink">
    <!-- Generator: Sketch 48.2 (47327) - http://www.bohemiancoding.com/sketch -->
    <title>tick-24</title>
    <desc>Created with Sketch.</desc>
    <defs></defs>
    <g id="Feedback-form_03_01_thanks" stroke="none" stroke-width="1" fill="none" fill-rule="evenodd" transform="translate(-1012.000000, -860.000000)">
        <g id="Group-4" transform="translate(987.000000, 838.000000)">
            <g id="Group-3" transform="translate(19.000000, 16.000000)">
                <g id="tick-24">
                    <rect id="Rectangle-path" x="0" y="0" width="69" height="69"></rect>
                    <path d="M34.5,63 C18.7598846,63 6,50.2401154 6,34.5 C6,18.7598846 18.7598846,6 34.5,6 C50.2401154,6 63,18.7598846 63,34.5 C63,50.2401154 50.2401154,63 34.5,63 Z M34.5,57.3 C47.0920923,57.3 57.3,47.0920923 57.3,34.5 C57.3,21.9079077 47.0920923,11.7 34.5,11.7 C21.9079077,11.7 11.7,21.9079077 11.7,34.5 C11.7,47.0920923 21.9079077,57.3 34.5,57.3 Z M32.9661448,36.0606361 L43.7816118,24.0434505 C44.83457,22.873497 46.6365959,22.7786535 47.8065494,23.8316117 C48.9765032,24.8845699 49.0713466,26.6865959 48.0183882,27.8565495 L35.1933882,42.1065494 C34.1010627,43.3202447 32.2143522,43.3698606 31.0597456,42.2152544 L23.9347457,35.0902544 C22.8217515,33.9772601 22.8217515,32.1727399 23.9347457,31.0597456 C25.0477399,29.9467514 26.8522601,29.9467514 27.9652543,31.0597456 L32.9661448,36.0606361 Z" id="Shape" fill="#145E70" fill-rule="nonzero"></path>
                </g>
            </g>
        </g>
    </g>
</svg>