<svg xmlns="http://www.w3.org/2000/svg" width="24" height="24" viewBox="0 0 24 24">
  <g fill="none" fill-rule="evenodd">
    <rect width="24" height="24"/>
    <path fill="#FFFFFF" fill-rule="nonzero" d="M15,6 L9,6 L9,7 C9,7.55228475 8.55228475,8 8,8 C7.44771525,8 7,7.55228475 7,7 L7,6 L5,6 L5,9 L19,9 L19,6 L17,6 L17,7 C17,7.55228475 16.5522847,8 16,8 C15.4477153,8 15,7.55228475 15,7 L15,6 Z M17,4 L20,4 C20.5522847,4 21,4.44771525 21,5 L21,20 C21,20.5522847 20.5522847,21 20,21 L4,21 C3.44771525,21 3,20.5522847 3,20 L3,5 C3,4.44771525 3.44771525,4 4,4 L7,4 L7,3 C7,2.44771525 7.44771525,2 8,2 C8.55228475,2 9,2.44771525 9,3 L9,4 L15,4 L15,3 C15,2.44771525 15.4477153,2 16,2 C16.5522847,2 17,2.44771525 17,3 L17,4 Z M19,11 L5,11 L5,19 L19,19 L19,11 Z"/>
  </g>
</svg>
