<svg xmlns="http://www.w3.org/2000/svg" width="24" height="24" viewBox="0 0 24 24">
  <g fill="none" fill-rule="evenodd">
    <rect width="24" height="24"/>
    <path fill="#494949" fill-rule="nonzero" d="M17.2917974,6 C15.8447695,4.72193137 13.9806111,4 12,4 C7.581722,4 4,7.581722 4,12 C4,16.418278 7.581722,20 12,20 C16.418278,20 20,16.418278 20,12 C20,11.4477153 20.4477153,11 21,11 C21.5522847,11 22,11.4477153 22,12 C22,17.5228475 17.5228475,22 12,22 C6.4771525,22 2,17.5228475 2,12 C2,6.4771525 6.4771525,2 12,2 C14.4217952,2 16.7085152,2.86596566 18.5,4.40027749 L18.5,3 C18.5,2.44771525 18.9477153,2 19.5,2 C20.0522847,2 20.5,2.44771525 20.5,3 L20.5,7 C20.5,7.55228475 20.0522847,8 19.5,8 L15.5,8 C14.9477153,8 14.5,7.55228475 14.5,7 C14.5,6.44771525 14.9477153,6 15.5,6 L17.2917974,6 Z M12,12 L16,12 C16.5522847,12 17,12.4477153 17,13 C17,13.5522847 16.5522847,14 16,14 L11,14 C10.4477153,14 10,13.5522847 10,13 L10,8 C10,7.44771525 10.4477153,7 11,7 C11.5522847,7 12,7.44771525 12,8 L12,12 Z"/>
  </g>
</svg>
