<?xml version="1.0" encoding="utf-8"?>
<!-- Generator: Adobe Illustrator 22.1.0, SVG Export Plug-In . SVG Version: 6.00 Build 0)  -->
<svg version="1.1" id="Layer_1" xmlns="http://www.w3.org/2000/svg" xmlns:xlink="http://www.w3.org/1999/xlink" x="0px" y="0px"
	 viewBox="2 5 94 90" style="enable-background:new 0 0 100 125;" xml:space="preserve">
<style type="text/css">
	.st0{fill:none;}
</style>
<rect  x="5" y="5" class="st0" width="90" height="90"/>
<g  style="fill: #ffffff">
	<path d="M50.3,28.1c-0.2-0.2-0.5-0.2-0.6,0L38.8,38.8c-0.1,0.1-0.1,0.2-0.1,0.3c0,0.1,0,0.2,0.1,0.3l2.3,2.4c0.2,0.2,0.5,0.2,0.6,0
		l6.1-6v16.6c0,0.3,0.2,0.5,0.5,0.5h3.3c0.3,0,0.5-0.2,0.5-0.5V35.8l6.1,6c0.1,0.1,0.2,0.1,0.3,0.1c0.1,0,0.2,0,0.3-0.1l2.3-2.4
		c0.2-0.2,0.2-0.5,0-0.6L50.3,28.1z"/>
	<path d="M97,76.5L86.5,63.2V22.7c0-3.3-2.7-6-6-6h-61c-3.3,0-6,2.7-6,6v40.6L3,76.5c-0.1,0.2-0.2,0.4-0.1,0.7L4,80
		c0,0.1,0.1,0.2,0.2,0.3l4,2.9c0.1,0.1,0.2,0.1,0.4,0.1h82.8c0.1,0,0.3,0,0.4-0.1l4-2.9c0.1-0.1,0.2-0.2,0.2-0.3l1.1-2.9
		C97.2,76.9,97.1,76.7,97,76.5z M67.4,77.3c-0.1,0.2-0.3,0.3-0.5,0.3H33.1c-0.2,0-0.4-0.1-0.5-0.3c-0.1-0.2-0.2-0.4-0.1-0.6l1.5-5
		c0.1-0.3,0.3-0.5,0.6-0.5h30.9c0.3,0,0.6,0.2,0.6,0.5l1.5,5C67.6,76.9,67.6,77.1,67.4,77.3z M79.4,56.4c0,0.4-0.3,0.7-0.7,0.7H21.3
		c-0.4,0-0.7-0.3-0.7-0.7V24.5c0-0.4,0.3-0.7,0.7-0.7h57.4c0.4,0,0.7,0.3,0.7,0.7V56.4z"/>
</g>
</svg>
