<?xml version="1.0" encoding="utf-8"?>
<!-- Generator: Adobe Illustrator 22.1.0, SVG Export Plug-In . SVG Version: 6.00 Build 0)  -->
<svg version="1.1" id="Layer_1" xmlns="http://www.w3.org/2000/svg" xmlns:xlink="http://www.w3.org/1999/xlink" x="0px" y="0px"
	 viewBox="1 15 97.5 69" style="enable-background:new 0 0 100 125;" xml:space="preserve">
<path style="fill: #FFFFFF" d="M84.3,15.1H52.4l0,0H15.8c-4.7,0-8.5,3.8-8.5,8.5v35v1.9v6.3c0,1.1-0.4,2.2-1.1,3l-4.4,5.4c-0.3,0.4-0.5,0.9-0.5,1.4v2.5
	c0,3.2,2.6,5.8,5.8,5.8H93c3.2,0,5.8-2.6,5.8-5.8v-2.5c0-0.5-0.2-1-0.5-1.4L94,69.9c-0.7-0.9-1.1-1.9-1.1-3v-5v-3.2v-9.3l0,0V23.6
	C92.8,18.9,89,15.1,84.3,15.1z M59.3,76.5c0,1.6-1.3,2.9-2.9,2.9H43.7c-1.6,0-2.9-1.3-2.9-2.9v-0.6h18.5V76.5z M84.3,61.8v5.5H15.8
	v-6.5v-2.3v-35l0,0h40.5h28l0,0v35v2.3v0.6l0,0V61.8z M50,27.5c-4.7,0-9.2,1.8-12.6,5.2c-3.4,3.4-5.2,7.8-5.2,12.6
	c0,4.7,1.8,9.2,5.2,12.6c3.4,3.4,7.8,5.2,12.6,5.2c4.7,0,9.2-1.8,12.6-5.2c3.4-3.4,5.2-7.8,5.2-12.6c0-4.7-1.8-9.2-5.2-12.6
	C59.2,29.4,54.7,27.5,50,27.5z M62.2,38.1h-4.4c-0.5-2-1.2-3.9-2.1-5.7C58.5,33.5,60.7,35.5,62.2,38.1z M49.1,31.1
	c0.7,0,1.4,0,2.1,0c1.4,2.2,2.4,4.5,3.1,6.9h-8.4C46.5,35.6,47.6,33.3,49.1,31.1z M36.2,49c-0.3-1.2-0.5-2.5-0.5-3.7
	c0-1.3,0.2-2.5,0.5-3.7h5.2c-0.2,1.3-0.3,2.6-0.3,3.9c0,1.2,0.1,2.4,0.2,3.5H36.2z M37.7,52.6H42c0.5,2,1.2,3.9,2,5.7
	C41.4,57.1,39.2,55.1,37.7,52.6z M42.1,38.1h-4.4c1.5-2.6,3.8-4.6,6.6-5.8C43.4,34.1,42.7,36.1,42.1,38.1z M50.9,59.5
	c-0.7,0-1.4,0-2.1,0c-1.4-2.2-2.4-4.5-3.1-6.9h8.4C53.4,55,52.3,57.4,50.9,59.5z M54.9,49H45c-0.2-1.2-0.2-2.4-0.2-3.5
	c0-1.3,0.1-2.6,0.3-3.9H55c0.2,1.2,0.2,2.4,0.2,3.6C55.2,46.4,55.1,47.8,54.9,49z M55.6,58.4c0.9-1.9,1.7-3.8,2.2-5.9h4.5
	C60.7,55.2,58.4,57.2,55.6,58.4z M64.2,45.3c0,1.3-0.2,2.5-0.5,3.7h-5.3c0.2-1.3,0.3-2.6,0.3-3.9c0-1.2-0.1-2.4-0.2-3.6h5.2
	C64.1,42.8,64.2,44.1,64.2,45.3z" />
</svg>
