<?xml version="1.0" encoding="utf-8"?>
<!-- Generator: Adobe Illustrator 22.1.0, SVG Export Plug-In . SVG Version: 6.00 Build 0)  -->
<svg version="1.1" id="Layer_1" xmlns="http://www.w3.org/2000/svg" xmlns:xlink="http://www.w3.org/1999/xlink" x="0px" y="0px"
	 viewBox="0 0 100 125" style="enable-background:new 0 0 100 125;" xml:space="preserve">
<path style="fill: #FFFFFF" d="M14.3,97.5h58.2c4.4,0,8-3.6,8-8v-7.2h4.6c4.7,0,8.6-3.9,8.6-8.6V50.1c0-4.7-3.9-8.6-8.6-8.6h-4.6V10.5c0-4.4-3.6-8-8-8
	H33.3c-3.9,0-9,2.2-11.8,4.9L11.2,17.8c-2.7,2.7-4.8,7.9-4.8,11.8v59.9C6.3,93.9,9.9,97.5,14.3,97.5z M79.9,67.5L79.9,67.5l4.6-16
	h4.6l-7.2,21.1h-4.2l-7.1-21.1h4.7L79.9,67.5z M15.6,19.4l6.8-7.1c0.6-0.7,1.3-1,1.8-1c0.8,0,1.3,0.9,1.3,2.3l-0.1,5.2
	c-0.1,2.3-2,4.2-4.3,4.1l-4-0.1c-1.2,0-1.9-0.4-2.2-1.1C14.5,21,14.8,20.2,15.6,19.4z M10,29.6c0-1,0.2-2.6,0.7-3
	c0.6-0.4,1.7-0.3,3.3-0.3h8.7c3.7,0,6.7-3,6.7-6.7v-8.9c0-1.8,0.5-3,1.1-3.7c0.6-0.7,1.8-0.8,2.6-0.8h39.2c2.4,0,4.3,1.9,4.3,4.3
	v31.1h-50c-4.7,0-8.6,3.8-8.6,8.6v23.6c0,4.7,3.9,8.6,8.6,8.6h50v7.2c0,2.4-1.9,4.3-4.3,4.3H14.3c-2.4,0-4.3-1.9-4.3-4.3V29.6z
	 M61,65.4c-0.4-0.4-1.3-0.8-2.8-1.1l-3.6-0.8c-2.3-0.5-3.8-1.3-4.6-2.2c-0.8-0.9-1.2-2.2-1.2-3.8c0-1.9,0.7-3.5,2-4.7
	c1.4-1.2,3.4-1.8,6.1-1.8c2.7,0,4.7,0.7,6.1,2c1.4,1.4,2.1,3,2.1,4.8h-4.2c-0.1-1-0.5-1.8-1.2-2.4c-0.7-0.5-1.8-0.8-3.1-0.8
	c-1.1,0-2,0.2-2.7,0.7c-0.7,0.5-1,1.1-1,1.8c0,0.5,0.1,1,0.4,1.3c0.3,0.4,0.8,0.6,1.4,0.8l5.6,1.4c2,0.5,3.4,1.2,4.2,2.1
	c0.8,0.9,1.2,2.1,1.2,3.5c0,2.3-0.8,4-2.4,5.2c-1.6,1.2-3.6,1.7-5.9,1.7c-3,0-5.3-0.6-6.8-1.9c-1.5-1.3-2.2-3-2.2-5.1h4.2
	c0,1,0.4,1.9,1.1,2.5c0.8,0.6,1.9,0.9,3.3,0.9s2.5-0.2,3.3-0.7c0.7-0.5,1.1-1.1,1.1-2C61.6,66.2,61.4,65.7,61,65.4z M28.8,67.3
	c0.9,1.3,2.2,2,3.9,2c2.5,0,4.1-1.3,4.7-4h4.4c-0.3,2.2-1.3,4-2.8,5.5c-1.6,1.5-3.7,2.3-6.3,2.3c-2.9,0-5.3-1-7-2.9
	c-1.7-1.9-2.6-4.7-2.6-8.2c0-3.3,0.9-6,2.6-8.1c1.7-2,4.1-3.1,7.1-3.1c2.6,0,4.8,0.7,6.4,2.1c1.6,1.4,2.5,3.2,2.7,5.3h-4.4
	c-0.5-2.4-2.1-3.6-4.7-3.6c-1.6,0-2.9,0.6-3.8,1.9c-0.9,1.3-1.4,3.1-1.4,5.4C27.4,64.3,27.9,66,28.8,67.3z"/>
</svg>
