<?xml version="1.0" encoding="utf-8" standalone="yes"?><!-- Generator: Adobe Illustrator 22.1.0, SVG Export Plug-In . SVG Version: 6.00 Build 0)  --><svg xmlns="http://www.w3.org/2000/svg" xmlns:xlink="http://www.w3.org/1999/xlink" version="1.1" id="Layer_1" x="0px" y="0px" viewBox="2.85 5 94.28 90" style="enable-background:new 0 0 100 125;zoom: 1;" xml:space="preserve"><style type="text/css">
        .st0{fill:none;}
</style><rect x="5" y="5" class="st0" width="90" height="90"></rect><g style="fill: #320e3b"><path d="M50.3,28.1c-0.2-0.2-0.5-0.2-0.6,0L38.8,38.8c-0.1,0.1-0.1,0.2-0.1,0.3c0,0.1,0,0.2,0.1,0.3l2.3,2.4c0.2,0.2,0.5,0.2,0.6,0 l6.1-6v16.6c0,0.3,0.2,0.5,0.5,0.5h3.3c0.3,0,0.5-0.2,0.5-0.5V35.8l6.1,6c0.1,0.1,0.2,0.1,0.3,0.1c0.1,0,0.2,0,0.3-0.1l2.3-2.4 c0.2-0.2,0.2-0.5,0-0.6L50.3,28.1z"></path><path d="M97,76.5 L86.5,63.2 V22.7 c0,-3.3 -2.7,-6 -6,-6 h-61 c-3.3,0 -6,2.7 -6,6 v40.6 L3,76.5 c-0.1,0.2 -0.2,0.4 -0.1,0.7 L4,80 c0,0.1 0.1,0.2 0.2,0.3 l4,2.9 c0.1,0.1 0.2,0.1 0.4,0.1 h82.8 c0.1,0 0.3,0 0.4,-0.1 l4,-2.9 c0.1,-0.1 0.2,-0.2 0.2,-0.3 l1.1,-2.9 C97.2,76.9 97.1,76.7 97,76.5  z M67.4,77.3 c-0.1,0.2 -0.3,0.3 -0.5,0.3 H33.1 c-0.2,0 -0.4,-0.1 -0.5,-0.3 c-0.1,-0.2 -0.2,-0.4 -0.1,-0.6 l1.5,-5 c0.1,-0.3 0.3,-0.5 0.6,-0.5 h30.9 c0.3,0 0.6,0.2 0.6,0.5 l1.5,5 C67.6,76.9 67.6,77.1 67.4,77.3  z M79.4,56.4 c0,0.4 -0.3,0.7 -0.7,0.7 H21.3 c-0.4,0 -0.7,-0.3 -0.7,-0.7 V24.5 c0,-0.4 0.3,-0.7 0.7,-0.7 h57.4 c0.4,0 0.7,0.3 0.7,0.7 V56.4  z "></path></g></svg>