<svg xmlns="http://www.w3.org/2000/svg" xmlns:xlink="http://www.w3.org/1999/xlink" viewBox="0 0 215.55 60.51"><defs><style>.cls-1,.cls-2,.cls-3{fill:#fafafa;}.cls-1{clip-rule:evenodd;}.cls-3{fill-rule:evenodd;}.cls-4{clip-path:url(#clip-path);}.cls-5,.cls-8{isolation:isolate;}.cls-6{clip-path:url(#clip-path-2);}.cls-7{clip-path:url(#clip-path-3);}.cls-8{opacity:0.11;}</style><clipPath id="clip-path"><path class="cls-1" d="M32.27,58.77h0a4.81,4.81,0,0,1-3.36-5.92L37.78,20.6a4.81,4.81,0,0,1,9-.74h0a4.79,4.79,0,0,1,.27,3.29L38.19,55.41A4.82,4.82,0,0,1,32.27,58.77Zm0-53.33h0a4.81,4.81,0,0,1,3.36,5.92L27.59,40.65A4.8,4.8,0,0,1,21.68,44h0a4.8,4.8,0,0,1-3.36-5.91L26.38,8.8A4.81,4.81,0,0,1,32.29,5.44ZM17.47,6h0A4.82,4.82,0,0,1,20.84,12l-9.9,35.95A4.8,4.8,0,0,1,5,51.27H5a4.8,4.8,0,0,1-3.36-5.91l9.89-36A4.81,4.81,0,0,1,17.47,6Z"/></clipPath><clipPath id="clip-path-2"><rect class="cls-2" x="6.23" y="4.17" width="38.5" height="52.17" transform="translate(8.94 -5.68) rotate(15.38)"/></clipPath><clipPath id="clip-path-3"><rect class="cls-2" x="6.53" y="4.52" width="37.91" height="51.47" transform="translate(8.94 -5.68) rotate(15.38)"/></clipPath></defs><title>Asset 3</title><g id="Layer_2" data-name="Layer 2"><g id="Layer_1-2" data-name="Layer 1"><path class="cls-3" d="M32.27,58.77h0a4.81,4.81,0,0,1-3.36-5.92L37.78,20.6a4.81,4.81,0,0,1,9-.74h0a4.79,4.79,0,0,1,.27,3.29L38.19,55.41A4.82,4.82,0,0,1,32.27,58.77Zm0-53.33h0a4.81,4.81,0,0,1,3.36,5.92L27.59,40.65A4.8,4.8,0,0,1,21.68,44h0a4.8,4.8,0,0,1-3.36-5.91L26.38,8.8A4.81,4.81,0,0,1,32.29,5.44ZM17.47,6h0A4.82,4.82,0,0,1,20.84,12l-9.9,35.95A4.8,4.8,0,0,1,5,51.27H5a4.8,4.8,0,0,1-3.36-5.91l9.89-36A4.81,4.81,0,0,1,17.47,6Z"/><g class="cls-4"><g class="cls-5"><rect class="cls-2" x="6.23" y="4.17" width="38.5" height="52.17" transform="translate(8.94 -5.68) rotate(15.38)"/><g class="cls-6"><rect class="cls-2" x="6.53" y="4.52" width="37.91" height="51.47" transform="translate(8.94 -5.68) rotate(15.38)"/><g class="cls-7"><g class="cls-8"><rect class="cls-2" x="6.23" y="4.17" width="38.5" height="52.17" transform="translate(8.94 -5.68) rotate(15.38)"/><g class="cls-6"><rect class="cls-2" x="6.53" y="4.52" width="37.91" height="51.47" transform="translate(8.94 -5.68) rotate(15.38)"/><g class="cls-7"><rect class="cls-2" x="6.74" y="0.42" width="10.21" height="52.13" transform="translate(7.45 -2.19) rotate(15.38)"/><rect class="cls-2" x="21.88" y="4.37" width="10.21" height="40.71" transform="translate(7.53 -6.27) rotate(15.38)"/><rect class="cls-2" x="33.98" y="7.92" width="10.21" height="52.13" transform="translate(10.41 -9.15) rotate(15.38)"/></g></g></g></g></g></g></g><circle class="cls-2" cx="212.14" cy="36.19" r="3.41"/><path class="cls-2" d="M73.23,20.21a.54.54,0,0,1,.5.41L74.19,23a6.65,6.65,0,0,1,11.8.63,7,7,0,0,1,6.47-3.92c4.09,0,6.92,3,6.88,8.59l0,10.68a.39.39,0,0,1-.41.42H95.71a.4.4,0,0,1-.42-.42V28.93c0-3.59-1.46-5.09-3.83-5.09-2.67,0-4.55,2.29-4.59,6.59V39a.4.4,0,0,1-.42.42H83.24a.4.4,0,0,1-.42-.42V28.93c0-3.59-1.5-5.14-3.88-5.09-2.54,0-4.42,2.46-4.55,6.21v9a.39.39,0,0,1-.41.42H70.72a.39.39,0,0,1-.41-.42V20.62a.38.38,0,0,1,.41-.41Z"/><path class="cls-2" d="M120.07,20.58a.48.48,0,0,1,.46-.37h2.58a.38.38,0,0,1,.38.41V39a.4.4,0,0,1-.42.42h-2.58a.49.49,0,0,1-.46-.38l-.55-2.5a7.6,7.6,0,0,1-6.63,3.3c-5.8,0-9.68-4-9.68-10s3.88-10,9.68-10a7.6,7.6,0,0,1,6.63,3.3Zm-6.93,15.27a5.78,5.78,0,0,0,6.09-6,5.77,5.77,0,0,0-6.09-6,5.63,5.63,0,0,0-6,6A5.7,5.7,0,0,0,113.14,35.85Z"/><path class="cls-2" d="M143.93,23.21l.66-2.59a.52.52,0,0,1,.46-.41h2.26a.38.38,0,0,1,.41.41l0,18.57c0,6.17-4.21,10.14-10.26,10.18a15.48,15.48,0,0,1-7.67-2,.42.42,0,0,1-.17-.62l1.42-2.84a.38.38,0,0,1,.54-.17,12,12,0,0,0,5.71,1.63c4,0,6.3-2.34,6.35-6.17V36.77a7.68,7.68,0,0,1-6.51,3.13c-5.8,0-9.68-4-9.68-10.06s3.88-10,9.68-10A7.75,7.75,0,0,1,143.93,23.21Zm-6.47,12.6c3.63,0,6.17-2.38,6.17-6s-2.5-6-6.17-6a5.64,5.64,0,0,0-5.92,6A5.61,5.61,0,0,0,137.46,35.81Z"/><path class="cls-2" d="M151.72,29.84c0-6,3.88-10,9.68-10a7.5,7.5,0,0,1,6.39,3.05V9.69a.37.37,0,0,1,.41-.37h3.26c.25,0,.41.12.41.37V39a.37.37,0,0,1-.41.42h-2.3a.46.46,0,0,1-.46-.38l-.62-2.54a7.63,7.63,0,0,1-6.68,3.34C155.6,39.86,151.72,35.81,151.72,29.84Zm10-6a5.65,5.65,0,0,0-5.93,6,5.67,5.67,0,0,0,5.93,6,5.76,5.76,0,0,0,6.09-6A5.76,5.76,0,0,0,161.7,23.84Z"/><path class="cls-2" d="M192.77,20.58a.48.48,0,0,1,.46-.37h2.59a.38.38,0,0,1,.37.41V39a.4.4,0,0,1-.42.42h-2.58a.49.49,0,0,1-.46-.38l-.54-2.5a7.62,7.62,0,0,1-6.64,3.3c-5.8,0-9.67-4-9.67-10s3.87-10,9.67-10a7.62,7.62,0,0,1,6.64,3.3Zm-6.92,15.27a5.79,5.79,0,0,0,6.09-6,5.78,5.78,0,0,0-6.09-6,5.63,5.63,0,0,0-6,6A5.71,5.71,0,0,0,185.85,35.85Z"/></g></g></svg>